G75*
%MOIN*%
%OFA0B0*%
%FSLAX25Y25*%
%IPPOS*%
%LPD*%
%AMOC8*
5,1,8,0,0,1.08239X$1,22.5*
%
%ADD10C,0.09461*%
%ADD11R,0.06706X0.04343*%
%ADD12OC8,0.08200*%
%ADD13R,0.04400X0.07800*%
%ADD14R,0.07800X0.04400*%
%ADD15R,0.04762X0.04762*%
%ADD16C,0.04762*%
D10*
X0202000Y0286250D03*
D11*
X0244104Y0256496D03*
X0244104Y0243504D03*
X0263396Y0243504D03*
X0263396Y0256496D03*
X0157896Y0253746D03*
X0157896Y0240754D03*
X0138604Y0240754D03*
X0138604Y0253746D03*
X0104396Y0163996D03*
X0104396Y0151004D03*
X0085104Y0151004D03*
X0085104Y0163996D03*
X0141104Y0068496D03*
X0141104Y0055504D03*
X0160396Y0055504D03*
X0160396Y0068496D03*
X0247354Y0068746D03*
X0247354Y0055754D03*
X0266646Y0055754D03*
X0266646Y0068746D03*
X0300104Y0149754D03*
X0300104Y0162746D03*
X0319396Y0162746D03*
X0319396Y0149754D03*
D12*
X0211000Y0067000D03*
X0211000Y0057000D03*
X0201000Y0057000D03*
X0191000Y0057000D03*
X0191000Y0067000D03*
X0201000Y0067000D03*
D13*
X0240130Y0115230D03*
X0240180Y0131440D03*
D14*
X0170622Y0128787D03*
X0168969Y0128787D03*
X0168970Y0133729D03*
X0170592Y0133729D03*
X0170622Y0123669D03*
X0168850Y0123669D03*
X0168850Y0118906D03*
X0170701Y0118906D03*
D15*
X0178000Y0125000D03*
X0187750Y0115250D03*
X0177250Y0110000D03*
X0206500Y0088250D03*
X0211250Y0100500D03*
X0220750Y0081250D03*
X0242000Y0085500D03*
X0249500Y0108750D03*
X0259500Y0122000D03*
X0275500Y0144750D03*
X0240250Y0153000D03*
X0242250Y0164250D03*
X0229250Y0183250D03*
X0213000Y0194250D03*
X0199000Y0183750D03*
X0206250Y0179500D03*
X0179000Y0173500D03*
X0172500Y0187750D03*
X0166500Y0162000D03*
X0160750Y0144000D03*
X0141000Y0139250D03*
X0144250Y0127000D03*
X0139500Y0152000D03*
X0125250Y0177000D03*
X0186500Y0140000D03*
X0224750Y0122250D03*
X0160500Y0080750D03*
X0132750Y0062500D03*
X0296500Y0078750D03*
X0296250Y0088000D03*
X0311500Y0138500D03*
X0318750Y0141000D03*
X0212500Y0253250D03*
D16*
X0110000Y0079750D03*
X0136202Y0086702D03*
X0172500Y0104500D03*
X0182750Y0099250D03*
X0173500Y0070500D03*
X0136500Y0130000D03*
X0148250Y0139000D03*
X0162500Y0156250D03*
X0165875Y0170875D03*
X0159000Y0191250D03*
X0173500Y0196750D03*
X0228750Y0217750D03*
X0241000Y0196000D03*
X0233000Y0142250D03*
X0232250Y0134500D03*
X0115750Y0158250D03*
X0092250Y0138500D03*
M02*
