G75*
%MOIN*%
%OFA0B0*%
%FSLAX25Y25*%
%IPPOS*%
%LPD*%
%AMOC8*
5,1,8,0,0,1.08239X$1,22.5*
%
%ADD10R,0.05906X0.01969*%
%ADD11R,0.01969X0.05906*%
%ADD12R,0.12598X0.04724*%
%ADD13R,0.03937X0.05906*%
%ADD14R,0.05118X0.06299*%
%ADD15R,0.05512X0.01378*%
%ADD16R,0.07480X0.07087*%
%ADD17R,0.07480X0.07480*%
%ADD18R,0.03937X0.07087*%
%ADD19R,0.03937X0.04331*%
%ADD20R,0.04331X0.03937*%
%ADD21R,0.05906X0.05906*%
%ADD22R,0.05906X0.05118*%
%ADD23R,0.05118X0.05906*%
%ADD24R,0.03150X0.04724*%
%ADD25R,0.05900X0.07900*%
%ADD26R,0.15000X0.07900*%
%ADD27R,0.15354X0.15354*%
%ADD28R,0.12598X0.12598*%
D10*
X0177915Y0131252D03*
X0177915Y0134402D03*
X0177915Y0137551D03*
X0177915Y0140701D03*
X0177915Y0143850D03*
X0177915Y0147000D03*
X0177915Y0150150D03*
X0177915Y0153299D03*
X0177915Y0156449D03*
X0177915Y0159598D03*
X0177915Y0162748D03*
X0223585Y0162748D03*
X0223585Y0159598D03*
X0223585Y0156449D03*
X0223585Y0153299D03*
X0223585Y0150150D03*
X0223585Y0147000D03*
X0223585Y0143850D03*
X0223585Y0140701D03*
X0223585Y0137551D03*
X0223585Y0134402D03*
X0223585Y0131252D03*
D11*
X0216498Y0124165D03*
X0213348Y0124165D03*
X0210199Y0124165D03*
X0207049Y0124165D03*
X0203900Y0124165D03*
X0200750Y0124165D03*
X0197600Y0124165D03*
X0194451Y0124165D03*
X0191301Y0124165D03*
X0188152Y0124165D03*
X0185002Y0124165D03*
X0185002Y0169835D03*
X0188152Y0169835D03*
X0191301Y0169835D03*
X0194451Y0169835D03*
X0197600Y0169835D03*
X0200750Y0169835D03*
X0203900Y0169835D03*
X0207049Y0169835D03*
X0210199Y0169835D03*
X0213348Y0169835D03*
X0216498Y0169835D03*
D12*
X0212886Y0206876D03*
X0212886Y0222624D03*
X0186114Y0222624D03*
X0186114Y0206876D03*
D13*
X0125750Y0129451D03*
X0125750Y0122049D03*
D14*
X0152813Y0182250D03*
X0160687Y0182250D03*
X0256472Y0160730D03*
X0265528Y0160730D03*
X0265528Y0145770D03*
X0256472Y0145770D03*
D15*
X0302817Y0115868D03*
X0302817Y0113309D03*
X0302817Y0110750D03*
X0302817Y0108191D03*
X0302817Y0105632D03*
D16*
X0313250Y0095002D03*
X0313250Y0126498D03*
D17*
X0313250Y0115750D03*
X0313250Y0105750D03*
D18*
X0288012Y0096500D03*
X0276988Y0096500D03*
D19*
X0278404Y0108000D03*
X0285096Y0108000D03*
X0284846Y0121000D03*
X0278154Y0121000D03*
D20*
X0125750Y0143154D03*
X0125750Y0149846D03*
D21*
X0125610Y0165000D03*
X0139390Y0165000D03*
D22*
X0152750Y0164846D03*
X0152750Y0158154D03*
X0126500Y0103096D03*
X0126500Y0096404D03*
D23*
X0228154Y0096000D03*
X0234846Y0096000D03*
X0277904Y0134250D03*
X0284596Y0134250D03*
D24*
X0198293Y0100500D03*
X0191207Y0100500D03*
X0191457Y0088250D03*
X0198543Y0088250D03*
D25*
X0087600Y0092100D03*
X0096600Y0092100D03*
X0105600Y0092100D03*
D26*
X0096500Y0116900D03*
D27*
X0121750Y0210000D03*
X0283750Y0212000D03*
D28*
X0251467Y0212000D03*
X0316033Y0212000D03*
X0154033Y0210000D03*
X0089467Y0210000D03*
M02*
