G75*
%MOIN*%
%OFA0B0*%
%FSLAX25Y25*%
%IPPOS*%
%LPD*%
%AMOC8*
5,1,8,0,0,1.08239X$1,22.5*
%
%ADD10R,0.05906X0.03543*%
%ADD11OC8,0.07400*%
%ADD12R,0.03600X0.07000*%
%ADD13R,0.07000X0.03600*%
%ADD14C,0.01200*%
%ADD15C,0.01600*%
%ADD16R,0.03962X0.03962*%
%ADD17C,0.03962*%
D10*
X0141104Y0055504D03*
X0141104Y0068496D03*
X0160396Y0068496D03*
X0160396Y0055504D03*
X0247354Y0055754D03*
X0247354Y0068746D03*
X0266646Y0068746D03*
X0266646Y0055754D03*
X0300104Y0149754D03*
X0300104Y0162746D03*
X0319396Y0162746D03*
X0319396Y0149754D03*
X0263396Y0243504D03*
X0263396Y0256496D03*
X0244104Y0256496D03*
X0244104Y0243504D03*
X0157896Y0240754D03*
X0157896Y0253746D03*
X0138604Y0253746D03*
X0138604Y0240754D03*
X0104396Y0163996D03*
X0104396Y0151004D03*
X0085104Y0151004D03*
X0085104Y0163996D03*
D11*
X0191000Y0067000D03*
X0201000Y0067000D03*
X0201000Y0057000D03*
X0191000Y0057000D03*
X0211000Y0057000D03*
X0211000Y0067000D03*
D12*
X0240130Y0115230D03*
X0240180Y0131440D03*
D13*
X0170622Y0128787D03*
X0168969Y0128787D03*
X0168970Y0133729D03*
X0170592Y0133729D03*
X0170622Y0123669D03*
X0168850Y0123669D03*
X0168850Y0118906D03*
X0170701Y0118906D03*
D14*
X0170592Y0133729D02*
X0168970Y0133729D01*
D15*
X0170592Y0133729D02*
X0180229Y0133729D01*
X0186500Y0140000D01*
X0194500Y0141500D02*
X0194500Y0188750D01*
X0200000Y0194250D01*
X0213000Y0194250D01*
X0212000Y0187250D02*
X0202500Y0187250D01*
X0199000Y0183750D01*
X0202000Y0179500D02*
X0199250Y0176750D01*
X0199250Y0139250D01*
X0179000Y0119000D01*
X0170795Y0119000D01*
X0170701Y0118906D01*
X0170622Y0123669D02*
X0156831Y0123669D01*
X0138000Y0142500D01*
X0138000Y0146000D01*
X0126500Y0157500D01*
X0126500Y0158250D01*
X0115750Y0158250D01*
X0104396Y0163996D02*
X0118146Y0176896D01*
X0125250Y0177000D01*
X0140500Y0177000D02*
X0145000Y0172500D01*
X0157250Y0172500D01*
X0159500Y0170250D01*
X0159500Y0159250D01*
X0162500Y0156250D01*
X0166500Y0162000D02*
X0172500Y0168000D01*
X0172500Y0187750D01*
X0179000Y0186750D02*
X0192750Y0200500D01*
X0227750Y0200500D01*
X0229250Y0199000D01*
X0229250Y0183250D01*
X0241000Y0196000D02*
X0241000Y0205500D01*
X0228750Y0217750D01*
X0221250Y0229250D02*
X0161750Y0229250D01*
X0160500Y0230500D01*
X0158250Y0230500D01*
X0148750Y0240000D01*
X0148750Y0245500D01*
X0148000Y0246250D01*
X0131500Y0246250D01*
X0128500Y0243250D01*
X0128500Y0239750D01*
X0103250Y0214500D01*
X0103250Y0187000D01*
X0095000Y0178750D01*
X0095000Y0164000D01*
X0098000Y0161000D01*
X0098000Y0157400D01*
X0104396Y0151004D01*
X0103000Y0144250D02*
X0098750Y0144250D01*
X0094750Y0148250D01*
X0094750Y0157500D01*
X0088254Y0163996D01*
X0085104Y0163996D01*
X0085104Y0151004D02*
X0085104Y0145646D01*
X0092250Y0138500D01*
X0103000Y0144250D02*
X0151000Y0096250D01*
X0151000Y0064900D01*
X0160396Y0055504D01*
X0159750Y0049250D02*
X0157000Y0049250D01*
X0144000Y0062250D01*
X0144000Y0065600D01*
X0141104Y0068496D01*
X0132750Y0062500D02*
X0139746Y0055504D01*
X0141104Y0055504D01*
X0159750Y0049250D02*
X0174000Y0035000D01*
X0232250Y0035000D01*
X0247750Y0050500D01*
X0261392Y0050500D01*
X0266646Y0055754D01*
X0266646Y0068746D02*
X0276650Y0078750D01*
X0296500Y0078750D01*
X0296250Y0088000D02*
X0295500Y0088750D01*
X0278000Y0088750D01*
X0268000Y0078750D01*
X0267750Y0078750D01*
X0247354Y0058354D01*
X0247354Y0055754D01*
X0244246Y0055754D01*
X0225750Y0074250D01*
X0214500Y0074250D01*
X0206375Y0082375D01*
X0191000Y0067000D01*
X0191000Y0057000D02*
X0184000Y0057000D01*
X0177250Y0063750D01*
X0177250Y0110000D01*
X0172500Y0104500D02*
X0172500Y0071500D01*
X0173500Y0070500D01*
X0160396Y0068496D02*
X0160396Y0080646D01*
X0160500Y0080750D01*
X0160000Y0081250D01*
X0160000Y0092000D01*
X0136500Y0115500D01*
X0136500Y0130000D01*
X0144000Y0126750D02*
X0144250Y0127000D01*
X0144000Y0126750D02*
X0144000Y0114750D01*
X0169500Y0089250D01*
X0169500Y0058500D01*
X0183500Y0044500D01*
X0196000Y0044500D01*
X0201000Y0049500D01*
X0201000Y0057000D01*
X0206375Y0082375D02*
X0206500Y0082500D01*
X0206500Y0088250D01*
X0209250Y0093500D02*
X0218000Y0093500D01*
X0220750Y0090750D01*
X0220750Y0081250D01*
X0209250Y0093500D02*
X0204000Y0098750D01*
X0204000Y0103250D01*
X0199000Y0108250D01*
X0194750Y0108250D01*
X0187750Y0115250D01*
X0182250Y0117500D02*
X0199250Y0134500D01*
X0232250Y0134500D01*
X0233000Y0142250D02*
X0233000Y0158000D01*
X0234250Y0159250D01*
X0246000Y0159250D01*
X0250000Y0163250D01*
X0250000Y0238000D01*
X0253250Y0241250D01*
X0253250Y0249750D01*
X0253750Y0250250D01*
X0242250Y0250250D01*
X0221250Y0229250D01*
X0228362Y0240754D02*
X0244104Y0256496D01*
X0234250Y0263250D02*
X0224250Y0253250D01*
X0212500Y0253250D01*
X0212004Y0253746D01*
X0157896Y0253746D01*
X0157896Y0240754D02*
X0228362Y0240754D01*
X0244104Y0243504D02*
X0215350Y0214750D01*
X0229250Y0200850D01*
X0229250Y0199000D01*
X0212000Y0187250D02*
X0235000Y0164250D01*
X0242250Y0164250D01*
X0240250Y0153000D02*
X0240180Y0152930D01*
X0240180Y0131440D01*
X0224750Y0122250D02*
X0259250Y0122250D01*
X0259500Y0122000D01*
X0275500Y0117250D02*
X0247354Y0089104D01*
X0247354Y0068746D01*
X0242000Y0085500D02*
X0242000Y0101250D01*
X0249500Y0108750D01*
X0240130Y0115230D02*
X0239150Y0114250D01*
X0225500Y0114250D01*
X0211750Y0100500D01*
X0211250Y0100500D01*
X0182750Y0099250D02*
X0182250Y0099750D01*
X0182250Y0117500D01*
X0178000Y0125000D02*
X0194500Y0141500D01*
X0173000Y0159500D02*
X0173000Y0161750D01*
X0178500Y0167250D01*
X0178500Y0173000D01*
X0179000Y0173500D01*
X0179000Y0186750D01*
X0173500Y0196750D02*
X0165875Y0189125D01*
X0165875Y0170875D01*
X0173000Y0159500D02*
X0160750Y0147250D01*
X0160750Y0144000D01*
X0150500Y0141000D02*
X0157771Y0133729D01*
X0170592Y0133729D01*
X0170622Y0123669D02*
X0156581Y0123669D01*
X0141000Y0139250D01*
X0148250Y0139000D02*
X0150250Y0141000D01*
X0150500Y0141000D01*
X0139500Y0152000D01*
X0140500Y0177000D02*
X0140500Y0182000D01*
X0149750Y0191250D01*
X0159000Y0191250D01*
X0164608Y0214750D02*
X0215350Y0214750D01*
X0206250Y0179500D02*
X0202000Y0179500D01*
X0164608Y0214750D02*
X0138604Y0240754D01*
X0234250Y0263250D02*
X0256642Y0263250D01*
X0263396Y0256496D01*
X0263396Y0243504D02*
X0263396Y0199455D01*
X0300104Y0162746D01*
X0311500Y0154850D02*
X0319396Y0162746D01*
X0311500Y0154850D02*
X0311500Y0138500D01*
X0318750Y0141000D02*
X0319396Y0141646D01*
X0319396Y0149754D01*
X0300104Y0149754D02*
X0300104Y0091854D01*
X0296250Y0088000D01*
X0275500Y0117250D02*
X0275500Y0144750D01*
X0136202Y0086702D02*
X0129250Y0079750D01*
X0110000Y0079750D01*
D16*
X0132750Y0062500D03*
X0160500Y0080750D03*
X0177250Y0110000D03*
X0187750Y0115250D03*
X0178000Y0125000D03*
X0186500Y0140000D03*
X0160750Y0144000D03*
X0141000Y0139250D03*
X0144250Y0127000D03*
X0139500Y0152000D03*
X0166500Y0162000D03*
X0179000Y0173500D03*
X0172500Y0187750D03*
X0199000Y0183750D03*
X0206250Y0179500D03*
X0213000Y0194250D03*
X0229250Y0183250D03*
X0242250Y0164250D03*
X0240250Y0153000D03*
X0224750Y0122250D03*
X0249500Y0108750D03*
X0259500Y0122000D03*
X0275500Y0144750D03*
X0311500Y0138500D03*
X0318750Y0141000D03*
X0296250Y0088000D03*
X0296500Y0078750D03*
X0242000Y0085500D03*
X0220750Y0081250D03*
X0206500Y0088250D03*
X0211250Y0100500D03*
X0125250Y0177000D03*
X0212500Y0253250D03*
D17*
X0110000Y0079750D03*
X0136202Y0086702D03*
X0172500Y0104500D03*
X0182750Y0099250D03*
X0173500Y0070500D03*
X0136500Y0130000D03*
X0148250Y0139000D03*
X0162500Y0156250D03*
X0165875Y0170875D03*
X0159000Y0191250D03*
X0173500Y0196750D03*
X0228750Y0217750D03*
X0241000Y0196000D03*
X0233000Y0142250D03*
X0232250Y0134500D03*
X0115750Y0158250D03*
X0092250Y0138500D03*
M02*
