%
M48
M72
T01C0.02362
T02C0.04000
T03C0.08661
%
T01
X110000Y79750
X132750Y62500
X160500Y80750
X173500Y70500
X182750Y99250
X172500Y104500
X177250Y110000
X187750Y115250
X178000Y125000
X186500Y140000
X160750Y144000
X148250Y139000
X141000Y139250
X136500Y130000
X144250Y127000
X139500Y152000
X162500Y156250
X166500Y162000
X165875Y170875
X179000Y173500
X172500Y187750
X173500Y196750
X159000Y191250
X125250Y177000
X115750Y158250
X92250Y138500
X136202Y86702
X206500Y88250
X211250Y100500
X220750Y81250
X242000Y85500
X249500Y108750
X259500Y122000
X275500Y144750
X240250Y153000
X233000Y142250
X232250Y134500
X224750Y122250
X242250Y164250
X229250Y183250
X241000Y196000
X228750Y217750
X213000Y194250
X199000Y183750
X206250Y179500
X212500Y253250
X318750Y141000
X311500Y138500
X296250Y88000
X296500Y78750
T02
X211000Y67000
X211000Y57000
X201000Y57000
X191000Y57000
X191000Y67000
X201000Y67000
T03
X202000Y286250
M30
