G75*
%MOIN*%
%OFA0B0*%
%FSLAX25Y25*%
%IPPOS*%
%LPD*%
%AMOC8*
5,1,8,0,0,1.08239X$1,22.5*
%
%ADD10C,0.09461*%
%ADD11R,0.06706X0.02769*%
%ADD12R,0.02769X0.06706*%
%ADD13R,0.13398X0.05524*%
%ADD14R,0.04737X0.06706*%
%ADD15R,0.05918X0.07099*%
%ADD16OC8,0.08200*%
%ADD17R,0.06312X0.02178*%
%ADD18R,0.08280X0.07887*%
%ADD19R,0.08280X0.08280*%
%ADD20R,0.04737X0.07887*%
%ADD21R,0.04737X0.05131*%
%ADD22R,0.05131X0.04737*%
%ADD23R,0.06706X0.06706*%
%ADD24R,0.06706X0.05918*%
%ADD25R,0.05918X0.06706*%
%ADD26R,0.03950X0.05524*%
%ADD27R,0.06700X0.08700*%
%ADD28R,0.15800X0.08700*%
%ADD29R,0.16154X0.16154*%
%ADD30R,0.13398X0.13398*%
%ADD31R,0.04762X0.04762*%
%ADD32C,0.04762*%
D10*
X0202000Y0286250D03*
D11*
X0223585Y0162748D03*
X0223585Y0159598D03*
X0223585Y0156449D03*
X0223585Y0153299D03*
X0223585Y0150150D03*
X0223585Y0147000D03*
X0223585Y0143850D03*
X0223585Y0140701D03*
X0223585Y0137551D03*
X0223585Y0134402D03*
X0223585Y0131252D03*
X0177915Y0131252D03*
X0177915Y0134402D03*
X0177915Y0137551D03*
X0177915Y0140701D03*
X0177915Y0143850D03*
X0177915Y0147000D03*
X0177915Y0150150D03*
X0177915Y0153299D03*
X0177915Y0156449D03*
X0177915Y0159598D03*
X0177915Y0162748D03*
D12*
X0185002Y0169835D03*
X0188152Y0169835D03*
X0191301Y0169835D03*
X0194451Y0169835D03*
X0197600Y0169835D03*
X0200750Y0169835D03*
X0203900Y0169835D03*
X0207049Y0169835D03*
X0210199Y0169835D03*
X0213348Y0169835D03*
X0216498Y0169835D03*
X0216498Y0124165D03*
X0213348Y0124165D03*
X0210199Y0124165D03*
X0207049Y0124165D03*
X0203900Y0124165D03*
X0200750Y0124165D03*
X0197600Y0124165D03*
X0194451Y0124165D03*
X0191301Y0124165D03*
X0188152Y0124165D03*
X0185002Y0124165D03*
D13*
X0186114Y0206876D03*
X0186114Y0222624D03*
X0212886Y0222624D03*
X0212886Y0206876D03*
D14*
X0125750Y0129451D03*
X0125750Y0122049D03*
D15*
X0152813Y0182250D03*
X0160687Y0182250D03*
X0256472Y0160730D03*
X0265528Y0160730D03*
X0265528Y0145770D03*
X0256472Y0145770D03*
D16*
X0211000Y0067000D03*
X0211000Y0057000D03*
X0201000Y0057000D03*
X0191000Y0057000D03*
X0191000Y0067000D03*
X0201000Y0067000D03*
D17*
X0302817Y0105632D03*
X0302817Y0108191D03*
X0302817Y0110750D03*
X0302817Y0113309D03*
X0302817Y0115868D03*
D18*
X0313250Y0126498D03*
X0313250Y0095002D03*
D19*
X0313250Y0105750D03*
X0313250Y0115750D03*
D20*
X0288012Y0096500D03*
X0276988Y0096500D03*
D21*
X0278404Y0108000D03*
X0285096Y0108000D03*
X0284846Y0121000D03*
X0278154Y0121000D03*
D22*
X0125750Y0143154D03*
X0125750Y0149846D03*
D23*
X0125610Y0165000D03*
X0139390Y0165000D03*
D24*
X0152750Y0164846D03*
X0152750Y0158154D03*
X0126500Y0103096D03*
X0126500Y0096404D03*
D25*
X0228154Y0096000D03*
X0234846Y0096000D03*
X0277904Y0134250D03*
X0284596Y0134250D03*
D26*
X0198293Y0100500D03*
X0191207Y0100500D03*
X0191457Y0088250D03*
X0198543Y0088250D03*
D27*
X0105600Y0092100D03*
X0096600Y0092100D03*
X0087600Y0092100D03*
D28*
X0096500Y0116900D03*
D29*
X0121750Y0210000D03*
X0283750Y0212000D03*
D30*
X0251467Y0212000D03*
X0316033Y0212000D03*
X0154033Y0210000D03*
X0089467Y0210000D03*
D31*
X0125250Y0177000D03*
X0139500Y0152000D03*
X0141000Y0139250D03*
X0144250Y0127000D03*
X0160750Y0144000D03*
X0178000Y0125000D03*
X0187750Y0115250D03*
X0177250Y0110000D03*
X0206500Y0088250D03*
X0211250Y0100500D03*
X0220750Y0081250D03*
X0242000Y0085500D03*
X0249500Y0108750D03*
X0259500Y0122000D03*
X0275500Y0144750D03*
X0240250Y0153000D03*
X0242250Y0164250D03*
X0229250Y0183250D03*
X0213000Y0194250D03*
X0199000Y0183750D03*
X0206250Y0179500D03*
X0179000Y0173500D03*
X0172500Y0187750D03*
X0166500Y0162000D03*
X0186500Y0140000D03*
X0224750Y0122250D03*
X0160500Y0080750D03*
X0132750Y0062500D03*
X0296500Y0078750D03*
X0296250Y0088000D03*
X0311500Y0138500D03*
X0318750Y0141000D03*
X0212500Y0253250D03*
D32*
X0110000Y0079750D03*
X0136202Y0086702D03*
X0172500Y0104500D03*
X0182750Y0099250D03*
X0173500Y0070500D03*
X0136500Y0130000D03*
X0148250Y0139000D03*
X0162500Y0156250D03*
X0165875Y0170875D03*
X0159000Y0191250D03*
X0173500Y0196750D03*
X0228750Y0217750D03*
X0241000Y0196000D03*
X0233000Y0142250D03*
X0232250Y0134500D03*
X0115750Y0158250D03*
X0092250Y0138500D03*
M02*
