G75*
%MOIN*%
%OFA0B0*%
%FSLAX25Y25*%
%IPPOS*%
%LPD*%
%AMOC8*
5,1,8,0,0,1.08239X$1,22.5*
%
%ADD10C,0.09461*%
%ADD11R,0.06706X0.02769*%
%ADD12R,0.02769X0.06706*%
%ADD13R,0.13398X0.05524*%
%ADD14R,0.05131X0.04737*%
%ADD15R,0.04737X0.05131*%
%ADD16R,0.06312X0.02178*%
%ADD17R,0.08280X0.07887*%
%ADD18R,0.08280X0.08280*%
%ADD19R,0.06706X0.06706*%
%ADD20R,0.07099X0.05918*%
%ADD21R,0.06700X0.08700*%
%ADD22R,0.15800X0.08700*%
%ADD23R,0.16800X0.16800*%
%ADD24R,0.20800X0.20800*%
%ADD25C,0.00500*%
%ADD26C,0.03900*%
%ADD27C,0.04300*%
%ADD28C,0.10150*%
%ADD29R,0.10800X0.10800*%
%ADD30C,0.04762*%
%ADD31OC8,0.04762*%
D10*
X0202000Y0304117D03*
D11*
X0223585Y0180615D03*
X0223585Y0177465D03*
X0223585Y0174316D03*
X0223585Y0171166D03*
X0223585Y0168016D03*
X0223585Y0164867D03*
X0223585Y0161717D03*
X0223585Y0158568D03*
X0223585Y0155418D03*
X0223585Y0152268D03*
X0223585Y0149119D03*
X0177915Y0149119D03*
X0177915Y0152268D03*
X0177915Y0155418D03*
X0177915Y0158568D03*
X0177915Y0161717D03*
X0177915Y0164867D03*
X0177915Y0168016D03*
X0177915Y0171166D03*
X0177915Y0174316D03*
X0177915Y0177465D03*
X0177915Y0180615D03*
D12*
X0185002Y0187701D03*
X0188152Y0187701D03*
X0191301Y0187701D03*
X0194451Y0187701D03*
X0197600Y0187701D03*
X0200750Y0187701D03*
X0203900Y0187701D03*
X0207049Y0187701D03*
X0210199Y0187701D03*
X0213348Y0187701D03*
X0216498Y0187701D03*
X0216498Y0142032D03*
X0213348Y0142032D03*
X0210199Y0142032D03*
X0207049Y0142032D03*
X0203900Y0142032D03*
X0200750Y0142032D03*
X0197600Y0142032D03*
X0194451Y0142032D03*
X0191301Y0142032D03*
X0188152Y0142032D03*
X0185002Y0142032D03*
D13*
X0186114Y0224743D03*
X0186114Y0240491D03*
X0212886Y0240491D03*
X0212886Y0224743D03*
D14*
X0161000Y0260520D03*
X0161000Y0267213D03*
X0161000Y0275520D03*
X0161000Y0282213D03*
X0224904Y0137617D03*
X0231596Y0137617D03*
X0222096Y0104867D03*
X0215404Y0104867D03*
X0243654Y0102367D03*
X0250346Y0102367D03*
X0279154Y0114367D03*
X0285846Y0114367D03*
X0151596Y0099117D03*
X0144904Y0099117D03*
D15*
X0158250Y0153020D03*
X0158250Y0159713D03*
X0191250Y0201520D03*
X0191250Y0208213D03*
X0278154Y0138867D03*
X0284846Y0138867D03*
X0285096Y0125867D03*
X0278404Y0125867D03*
X0219750Y0094463D03*
X0219750Y0087770D03*
D16*
X0302817Y0123499D03*
X0302817Y0126058D03*
X0302817Y0128617D03*
X0302817Y0131176D03*
X0302817Y0133735D03*
D17*
X0313250Y0144365D03*
X0313250Y0112869D03*
D18*
X0313250Y0123617D03*
X0313250Y0133617D03*
D19*
X0237750Y0267477D03*
X0237750Y0281257D03*
D20*
X0230230Y0123394D03*
X0230230Y0114339D03*
X0215270Y0114339D03*
X0215270Y0123394D03*
D21*
X0105600Y0109967D03*
X0096600Y0109967D03*
X0087600Y0109967D03*
D22*
X0096500Y0134767D03*
D23*
X0135000Y0208117D03*
X0270000Y0208367D03*
D24*
X0270000Y0258367D03*
X0270000Y0158367D03*
X0135000Y0158117D03*
X0135000Y0258117D03*
D25*
X0135000Y0243550D02*
X0131033Y0243327D01*
X0127115Y0242661D01*
X0123297Y0241561D01*
X0119626Y0240041D01*
X0116148Y0238119D01*
X0112908Y0235819D01*
X0109945Y0233172D01*
X0107297Y0230209D01*
X0104998Y0226968D01*
X0103076Y0223491D01*
X0101555Y0219820D01*
X0100455Y0216001D01*
X0099790Y0212084D01*
X0099567Y0208117D01*
X0099790Y0204150D01*
X0100455Y0200232D01*
X0101555Y0196414D01*
X0103076Y0192743D01*
X0104998Y0189265D01*
X0107297Y0186025D01*
X0109945Y0183062D01*
X0112908Y0180414D01*
X0116148Y0178115D01*
X0119626Y0176193D01*
X0123297Y0174672D01*
X0127115Y0173572D01*
X0131033Y0172906D01*
X0135000Y0172684D01*
X0138967Y0172906D01*
X0142885Y0173572D01*
X0146703Y0174672D01*
X0150374Y0176193D01*
X0153852Y0178115D01*
X0157092Y0180414D01*
X0160055Y0183062D01*
X0162703Y0186025D01*
X0165002Y0189265D01*
X0166924Y0192743D01*
X0168445Y0196414D01*
X0169545Y0200232D01*
X0170210Y0204150D01*
X0170433Y0208117D01*
X0170210Y0212084D01*
X0169545Y0216001D01*
X0168445Y0219820D01*
X0166924Y0223491D01*
X0165002Y0226968D01*
X0162703Y0230209D01*
X0160055Y0233172D01*
X0157092Y0235819D01*
X0153852Y0238119D01*
X0150374Y0240041D01*
X0146703Y0241561D01*
X0142885Y0242661D01*
X0138967Y0243327D01*
X0135000Y0243550D01*
X0133325Y0243456D02*
X0136675Y0243456D01*
X0141143Y0242957D02*
X0128857Y0242957D01*
X0126412Y0242459D02*
X0143588Y0242459D01*
X0145319Y0241960D02*
X0124681Y0241960D01*
X0123056Y0241462D02*
X0146944Y0241462D01*
X0148147Y0240963D02*
X0121853Y0240963D01*
X0120649Y0240465D02*
X0149351Y0240465D01*
X0150509Y0239966D02*
X0119491Y0239966D01*
X0118589Y0239468D02*
X0151411Y0239468D01*
X0152313Y0238969D02*
X0117687Y0238969D01*
X0116785Y0238471D02*
X0153215Y0238471D01*
X0154058Y0237972D02*
X0115942Y0237972D01*
X0115239Y0237474D02*
X0154761Y0237474D01*
X0155463Y0236975D02*
X0114537Y0236975D01*
X0113834Y0236477D02*
X0156166Y0236477D01*
X0156869Y0235978D02*
X0113131Y0235978D01*
X0112528Y0235480D02*
X0157472Y0235480D01*
X0158030Y0234981D02*
X0111970Y0234981D01*
X0111412Y0234483D02*
X0158588Y0234483D01*
X0159146Y0233984D02*
X0110854Y0233984D01*
X0110296Y0233486D02*
X0159704Y0233486D01*
X0160220Y0232987D02*
X0109780Y0232987D01*
X0109334Y0232489D02*
X0160666Y0232489D01*
X0161111Y0231990D02*
X0108889Y0231990D01*
X0108443Y0231492D02*
X0161556Y0231492D01*
X0162002Y0230993D02*
X0107998Y0230993D01*
X0107552Y0230494D02*
X0162447Y0230494D01*
X0162854Y0229996D02*
X0107146Y0229996D01*
X0106792Y0229497D02*
X0163207Y0229497D01*
X0163561Y0228999D02*
X0106439Y0228999D01*
X0106085Y0228500D02*
X0163915Y0228500D01*
X0164269Y0228002D02*
X0105731Y0228002D01*
X0105378Y0227503D02*
X0164622Y0227503D01*
X0164976Y0227005D02*
X0105024Y0227005D01*
X0104743Y0226506D02*
X0165257Y0226506D01*
X0165533Y0226008D02*
X0104467Y0226008D01*
X0104192Y0225509D02*
X0165808Y0225509D01*
X0166084Y0225011D02*
X0103916Y0225011D01*
X0103641Y0224512D02*
X0166359Y0224512D01*
X0166635Y0224014D02*
X0103365Y0224014D01*
X0103090Y0223515D02*
X0166910Y0223515D01*
X0167120Y0223017D02*
X0102880Y0223017D01*
X0102673Y0222518D02*
X0167327Y0222518D01*
X0167533Y0222020D02*
X0102467Y0222020D01*
X0102260Y0221521D02*
X0167740Y0221521D01*
X0167946Y0221023D02*
X0102054Y0221023D01*
X0101847Y0220524D02*
X0168153Y0220524D01*
X0168359Y0220026D02*
X0101641Y0220026D01*
X0101471Y0219527D02*
X0168529Y0219527D01*
X0168673Y0219029D02*
X0101327Y0219029D01*
X0101184Y0218530D02*
X0168816Y0218530D01*
X0168960Y0218032D02*
X0101040Y0218032D01*
X0100897Y0217533D02*
X0169103Y0217533D01*
X0169247Y0217035D02*
X0100753Y0217035D01*
X0100609Y0216536D02*
X0169391Y0216536D01*
X0169534Y0216038D02*
X0100466Y0216038D01*
X0100377Y0215539D02*
X0169623Y0215539D01*
X0169708Y0215041D02*
X0100292Y0215041D01*
X0100207Y0214542D02*
X0169793Y0214542D01*
X0169877Y0214044D02*
X0100123Y0214044D01*
X0100038Y0213545D02*
X0169962Y0213545D01*
X0170047Y0213047D02*
X0099953Y0213047D01*
X0099869Y0212548D02*
X0170131Y0212548D01*
X0170212Y0212050D02*
X0099788Y0212050D01*
X0099760Y0211551D02*
X0170240Y0211551D01*
X0170268Y0211053D02*
X0099732Y0211053D01*
X0099704Y0210554D02*
X0170296Y0210554D01*
X0170324Y0210056D02*
X0099676Y0210056D01*
X0099648Y0209557D02*
X0170352Y0209557D01*
X0170380Y0209059D02*
X0099620Y0209059D01*
X0099592Y0208560D02*
X0170408Y0208560D01*
X0170430Y0208061D02*
X0099570Y0208061D01*
X0099598Y0207563D02*
X0170402Y0207563D01*
X0170374Y0207064D02*
X0099626Y0207064D01*
X0099654Y0206566D02*
X0170346Y0206566D01*
X0170318Y0206067D02*
X0099682Y0206067D01*
X0099710Y0205569D02*
X0170290Y0205569D01*
X0170262Y0205070D02*
X0099738Y0205070D01*
X0099766Y0204572D02*
X0170234Y0204572D01*
X0170197Y0204073D02*
X0099803Y0204073D01*
X0099887Y0203575D02*
X0170113Y0203575D01*
X0170028Y0203076D02*
X0099972Y0203076D01*
X0100057Y0202578D02*
X0169943Y0202578D01*
X0169859Y0202079D02*
X0100141Y0202079D01*
X0100226Y0201581D02*
X0169774Y0201581D01*
X0169689Y0201082D02*
X0100311Y0201082D01*
X0100396Y0200584D02*
X0169604Y0200584D01*
X0169502Y0200085D02*
X0100498Y0200085D01*
X0100641Y0199587D02*
X0169359Y0199587D01*
X0169215Y0199088D02*
X0100785Y0199088D01*
X0100928Y0198590D02*
X0169072Y0198590D01*
X0168928Y0198091D02*
X0101072Y0198091D01*
X0101216Y0197593D02*
X0168784Y0197593D01*
X0168641Y0197094D02*
X0101359Y0197094D01*
X0101503Y0196596D02*
X0168497Y0196596D01*
X0168313Y0196097D02*
X0101687Y0196097D01*
X0101893Y0195599D02*
X0168107Y0195599D01*
X0167901Y0195100D02*
X0102100Y0195100D01*
X0102306Y0194602D02*
X0167694Y0194602D01*
X0167488Y0194103D02*
X0102512Y0194103D01*
X0102719Y0193605D02*
X0167281Y0193605D01*
X0167075Y0193106D02*
X0102925Y0193106D01*
X0103151Y0192608D02*
X0166849Y0192608D01*
X0166574Y0192109D02*
X0103426Y0192109D01*
X0103702Y0191611D02*
X0166298Y0191611D01*
X0166023Y0191112D02*
X0103977Y0191112D01*
X0104253Y0190614D02*
X0165747Y0190614D01*
X0165472Y0190115D02*
X0104528Y0190115D01*
X0104804Y0189617D02*
X0165196Y0189617D01*
X0164898Y0189118D02*
X0105102Y0189118D01*
X0105456Y0188620D02*
X0164544Y0188620D01*
X0164190Y0188121D02*
X0105810Y0188121D01*
X0106164Y0187623D02*
X0163836Y0187623D01*
X0163483Y0187124D02*
X0106517Y0187124D01*
X0106871Y0186625D02*
X0163129Y0186625D01*
X0162775Y0186127D02*
X0107225Y0186127D01*
X0107651Y0185628D02*
X0162349Y0185628D01*
X0161903Y0185130D02*
X0108097Y0185130D01*
X0108542Y0184631D02*
X0161458Y0184631D01*
X0161012Y0184133D02*
X0108988Y0184133D01*
X0109433Y0183634D02*
X0160567Y0183634D01*
X0160121Y0183136D02*
X0109879Y0183136D01*
X0110420Y0182637D02*
X0159580Y0182637D01*
X0159022Y0182139D02*
X0110978Y0182139D01*
X0111536Y0181640D02*
X0158464Y0181640D01*
X0157907Y0181142D02*
X0112093Y0181142D01*
X0112651Y0180643D02*
X0157349Y0180643D01*
X0156713Y0180145D02*
X0113287Y0180145D01*
X0113990Y0179646D02*
X0156010Y0179646D01*
X0155308Y0179148D02*
X0114692Y0179148D01*
X0115395Y0178649D02*
X0154605Y0178649D01*
X0153902Y0178151D02*
X0116098Y0178151D01*
X0116985Y0177652D02*
X0153015Y0177652D01*
X0152113Y0177154D02*
X0117887Y0177154D01*
X0118789Y0176655D02*
X0151211Y0176655D01*
X0150287Y0176157D02*
X0119713Y0176157D01*
X0120916Y0175658D02*
X0149084Y0175658D01*
X0147880Y0175160D02*
X0122120Y0175160D01*
X0123335Y0174661D02*
X0146665Y0174661D01*
X0144935Y0174163D02*
X0125065Y0174163D01*
X0126796Y0173664D02*
X0143204Y0173664D01*
X0140493Y0173166D02*
X0129507Y0173166D01*
X0234790Y0204400D02*
X0234567Y0208367D01*
X0234790Y0212334D01*
X0235455Y0216251D01*
X0236555Y0220070D01*
X0238076Y0223741D01*
X0239998Y0227218D01*
X0242297Y0230459D01*
X0244945Y0233422D01*
X0247908Y0236069D01*
X0251148Y0238369D01*
X0254626Y0240291D01*
X0258297Y0241811D01*
X0262115Y0242911D01*
X0266033Y0243577D01*
X0270000Y0243800D01*
X0273967Y0243577D01*
X0277885Y0242911D01*
X0281703Y0241811D01*
X0285374Y0240291D01*
X0288852Y0238369D01*
X0292092Y0236069D01*
X0295055Y0233422D01*
X0297703Y0230459D01*
X0300002Y0227218D01*
X0301924Y0223741D01*
X0303445Y0220070D01*
X0304545Y0216251D01*
X0305210Y0212334D01*
X0305433Y0208367D01*
X0305210Y0204400D01*
X0304545Y0200482D01*
X0303445Y0196664D01*
X0301924Y0192993D01*
X0300002Y0189515D01*
X0297703Y0186275D01*
X0295055Y0183312D01*
X0292092Y0180664D01*
X0288852Y0178365D01*
X0285374Y0176443D01*
X0281703Y0174922D01*
X0277885Y0173822D01*
X0273967Y0173156D01*
X0270000Y0172934D01*
X0266033Y0173156D01*
X0262115Y0173822D01*
X0258297Y0174922D01*
X0254626Y0176443D01*
X0251148Y0178365D01*
X0247908Y0180664D01*
X0244945Y0183312D01*
X0242297Y0186275D01*
X0239998Y0189515D01*
X0238076Y0192993D01*
X0236555Y0196664D01*
X0235455Y0200482D01*
X0234790Y0204400D01*
X0234780Y0204572D02*
X0305220Y0204572D01*
X0305248Y0205070D02*
X0234752Y0205070D01*
X0234724Y0205569D02*
X0305276Y0205569D01*
X0305304Y0206067D02*
X0234696Y0206067D01*
X0234668Y0206566D02*
X0305332Y0206566D01*
X0305360Y0207064D02*
X0234640Y0207064D01*
X0234612Y0207563D02*
X0305388Y0207563D01*
X0305416Y0208061D02*
X0234584Y0208061D01*
X0234578Y0208560D02*
X0305422Y0208560D01*
X0305394Y0209059D02*
X0234606Y0209059D01*
X0234634Y0209557D02*
X0305366Y0209557D01*
X0305338Y0210056D02*
X0234662Y0210056D01*
X0234690Y0210554D02*
X0305310Y0210554D01*
X0305282Y0211053D02*
X0234718Y0211053D01*
X0234746Y0211551D02*
X0305254Y0211551D01*
X0305226Y0212050D02*
X0234774Y0212050D01*
X0234826Y0212548D02*
X0305174Y0212548D01*
X0305089Y0213047D02*
X0234911Y0213047D01*
X0234995Y0213545D02*
X0305004Y0213545D01*
X0304920Y0214044D02*
X0235080Y0214044D01*
X0235165Y0214542D02*
X0304835Y0214542D01*
X0304750Y0215041D02*
X0235250Y0215041D01*
X0235334Y0215539D02*
X0304666Y0215539D01*
X0304581Y0216038D02*
X0235419Y0216038D01*
X0235537Y0216536D02*
X0304463Y0216536D01*
X0304319Y0217035D02*
X0235681Y0217035D01*
X0235825Y0217533D02*
X0304175Y0217533D01*
X0304032Y0218032D02*
X0235968Y0218032D01*
X0236112Y0218530D02*
X0303888Y0218530D01*
X0303745Y0219029D02*
X0236255Y0219029D01*
X0236399Y0219527D02*
X0303601Y0219527D01*
X0303457Y0220026D02*
X0236543Y0220026D01*
X0236744Y0220524D02*
X0303256Y0220524D01*
X0303050Y0221023D02*
X0236950Y0221023D01*
X0237157Y0221521D02*
X0302843Y0221521D01*
X0302637Y0222020D02*
X0237363Y0222020D01*
X0237570Y0222518D02*
X0302430Y0222518D01*
X0302224Y0223017D02*
X0237776Y0223017D01*
X0237983Y0223515D02*
X0302017Y0223515D01*
X0301773Y0224014D02*
X0238227Y0224014D01*
X0238502Y0224512D02*
X0301498Y0224512D01*
X0301222Y0225011D02*
X0238778Y0225011D01*
X0239053Y0225509D02*
X0300947Y0225509D01*
X0300671Y0226008D02*
X0239329Y0226008D01*
X0239605Y0226506D02*
X0300395Y0226506D01*
X0300120Y0227005D02*
X0239880Y0227005D01*
X0240200Y0227503D02*
X0299800Y0227503D01*
X0299446Y0228002D02*
X0240554Y0228002D01*
X0240908Y0228500D02*
X0299092Y0228500D01*
X0298739Y0228999D02*
X0241261Y0228999D01*
X0241615Y0229497D02*
X0298385Y0229497D01*
X0298031Y0229996D02*
X0241969Y0229996D01*
X0242329Y0230494D02*
X0297671Y0230494D01*
X0297225Y0230993D02*
X0242775Y0230993D01*
X0243220Y0231492D02*
X0296780Y0231492D01*
X0296334Y0231990D02*
X0243666Y0231990D01*
X0244111Y0232489D02*
X0295889Y0232489D01*
X0295443Y0232987D02*
X0244557Y0232987D01*
X0245016Y0233486D02*
X0294984Y0233486D01*
X0294426Y0233984D02*
X0245574Y0233984D01*
X0246132Y0234483D02*
X0293868Y0234483D01*
X0293310Y0234981D02*
X0246690Y0234981D01*
X0247248Y0235480D02*
X0292752Y0235480D01*
X0292194Y0235978D02*
X0247806Y0235978D01*
X0248482Y0236477D02*
X0291518Y0236477D01*
X0290816Y0236975D02*
X0249184Y0236975D01*
X0249887Y0237474D02*
X0290113Y0237474D01*
X0289411Y0237972D02*
X0250589Y0237972D01*
X0251333Y0238471D02*
X0288667Y0238471D01*
X0287765Y0238969D02*
X0252235Y0238969D01*
X0253137Y0239468D02*
X0286863Y0239468D01*
X0285961Y0239966D02*
X0254039Y0239966D01*
X0255046Y0240465D02*
X0284954Y0240465D01*
X0283751Y0240963D02*
X0256249Y0240963D01*
X0257453Y0241462D02*
X0282547Y0241462D01*
X0281186Y0241960D02*
X0258814Y0241960D01*
X0260544Y0242459D02*
X0279456Y0242459D01*
X0277615Y0242957D02*
X0262385Y0242957D01*
X0265319Y0243456D02*
X0274681Y0243456D01*
X0305155Y0204073D02*
X0234845Y0204073D01*
X0234930Y0203575D02*
X0305070Y0203575D01*
X0304985Y0203076D02*
X0235015Y0203076D01*
X0235099Y0202578D02*
X0304901Y0202578D01*
X0304816Y0202079D02*
X0235184Y0202079D01*
X0235269Y0201581D02*
X0304731Y0201581D01*
X0304647Y0201082D02*
X0235353Y0201082D01*
X0235438Y0200584D02*
X0304562Y0200584D01*
X0304430Y0200085D02*
X0235570Y0200085D01*
X0235713Y0199587D02*
X0304287Y0199587D01*
X0304143Y0199088D02*
X0235857Y0199088D01*
X0236001Y0198590D02*
X0304000Y0198590D01*
X0303856Y0198091D02*
X0236144Y0198091D01*
X0236288Y0197593D02*
X0303712Y0197593D01*
X0303569Y0197094D02*
X0236431Y0197094D01*
X0236584Y0196596D02*
X0303416Y0196596D01*
X0303210Y0196097D02*
X0236790Y0196097D01*
X0236997Y0195599D02*
X0303003Y0195599D01*
X0302797Y0195100D02*
X0237203Y0195100D01*
X0237410Y0194602D02*
X0302590Y0194602D01*
X0302384Y0194103D02*
X0237616Y0194103D01*
X0237823Y0193605D02*
X0302177Y0193605D01*
X0301971Y0193106D02*
X0238029Y0193106D01*
X0238289Y0192608D02*
X0301711Y0192608D01*
X0301436Y0192109D02*
X0238564Y0192109D01*
X0238840Y0191611D02*
X0301160Y0191611D01*
X0300885Y0191112D02*
X0239115Y0191112D01*
X0239391Y0190614D02*
X0300609Y0190614D01*
X0300334Y0190115D02*
X0239666Y0190115D01*
X0239942Y0189617D02*
X0300058Y0189617D01*
X0299720Y0189118D02*
X0240280Y0189118D01*
X0240633Y0188620D02*
X0299367Y0188620D01*
X0299013Y0188121D02*
X0240987Y0188121D01*
X0241341Y0187623D02*
X0298659Y0187623D01*
X0298305Y0187124D02*
X0241695Y0187124D01*
X0242048Y0186625D02*
X0297952Y0186625D01*
X0297571Y0186127D02*
X0242429Y0186127D01*
X0242875Y0185628D02*
X0297125Y0185628D01*
X0296680Y0185130D02*
X0243320Y0185130D01*
X0243766Y0184631D02*
X0296234Y0184631D01*
X0295789Y0184133D02*
X0244211Y0184133D01*
X0244657Y0183634D02*
X0295343Y0183634D01*
X0294858Y0183136D02*
X0245142Y0183136D01*
X0245700Y0182637D02*
X0294300Y0182637D01*
X0293743Y0182139D02*
X0246258Y0182139D01*
X0246815Y0181640D02*
X0293185Y0181640D01*
X0292627Y0181142D02*
X0247373Y0181142D01*
X0247937Y0180643D02*
X0292063Y0180643D01*
X0291360Y0180145D02*
X0248640Y0180145D01*
X0249342Y0179646D02*
X0290658Y0179646D01*
X0289955Y0179148D02*
X0250045Y0179148D01*
X0250747Y0178649D02*
X0289253Y0178649D01*
X0288464Y0178151D02*
X0251536Y0178151D01*
X0252438Y0177652D02*
X0287562Y0177652D01*
X0286660Y0177154D02*
X0253340Y0177154D01*
X0254242Y0176655D02*
X0285759Y0176655D01*
X0284684Y0176157D02*
X0255316Y0176157D01*
X0256520Y0175658D02*
X0283480Y0175658D01*
X0282277Y0175160D02*
X0257723Y0175160D01*
X0259203Y0174661D02*
X0280797Y0174661D01*
X0279067Y0174163D02*
X0260933Y0174163D01*
X0263045Y0173664D02*
X0276955Y0173664D01*
X0274021Y0173166D02*
X0265979Y0173166D01*
D26*
X0201000Y0073867D03*
X0196000Y0073867D03*
X0196000Y0068867D03*
X0201000Y0068867D03*
X0201000Y0063867D03*
X0196000Y0063867D03*
D27*
X0194500Y0058867D03*
X0202500Y0058867D03*
X0198500Y0078867D03*
D28*
X0188500Y0078867D03*
X0188500Y0066367D03*
X0208500Y0066367D03*
X0208500Y0078867D03*
D29*
X0123750Y0113867D03*
X0123750Y0132367D03*
D30*
X0115500Y0103617D03*
X0135250Y0098617D03*
X0160000Y0099117D03*
X0163500Y0108867D03*
X0174000Y0101867D03*
X0188000Y0111117D03*
X0197750Y0124867D03*
X0188000Y0130617D03*
X0178750Y0139367D03*
X0171000Y0127617D03*
X0158500Y0144867D03*
X0151000Y0156117D03*
X0160500Y0168617D03*
X0170500Y0171367D03*
X0170000Y0159117D03*
X0178750Y0200117D03*
X0181000Y0213867D03*
X0174750Y0220367D03*
X0173250Y0235867D03*
X0163250Y0247617D03*
X0176750Y0271367D03*
X0218250Y0231867D03*
X0230750Y0236867D03*
X0238000Y0242617D03*
X0237500Y0254367D03*
X0219500Y0213617D03*
X0221250Y0202617D03*
X0210250Y0199867D03*
X0202750Y0207117D03*
X0237000Y0170617D03*
X0236000Y0160867D03*
X0232250Y0147117D03*
X0254750Y0144617D03*
X0269000Y0105867D03*
X0278000Y0104617D03*
X0267000Y0094367D03*
X0259750Y0102617D03*
X0232000Y0087117D03*
X0226750Y0081617D03*
X0210000Y0087867D03*
X0201750Y0096867D03*
X0191250Y0092617D03*
X0163500Y0081867D03*
X0185250Y0051867D03*
X0211500Y0053617D03*
X0291250Y0099617D03*
X0104250Y0159117D03*
X0096250Y0146617D03*
D31*
X0110750Y0172867D03*
M02*
