%
M48
M72
T01C0.02362
T02C0.03500
T03C0.08661
T04C0.09350
%
T01
X115500Y103617
X135250Y98617
X160000Y99117
X163500Y108867
X174000Y101867
X188000Y111117
X197750Y124867
X188000Y130617
X178750Y139367
X171000Y127617
X158500Y144867
X151000Y156117
X160500Y168617
X170500Y171367
X170000Y159117
X178750Y200117
X181000Y213867
X174750Y220367
X173250Y235867
X163250Y247617
X176750Y271367
X218250Y231867
X230750Y236867
X238000Y242617
X237500Y254367
X219500Y213617
X221250Y202617
X210250Y199867
X202750Y207117
X237000Y170617
X236000Y160867
X232250Y147117
X254750Y144617
X269000Y105867
X278000Y104617
X267000Y94367
X259750Y102617
X232000Y87117
X226750Y81617
X210000Y87867
X201750Y96867
X191250Y92617
X163500Y81867
X185250Y51867
X211500Y53617
X291250Y99617
X110750Y172867
X104250Y159117
X96250Y146617
T02
X198500Y78867
X194500Y58867
X202500Y58867
T03
X202000Y304117
T04
X208500Y78867
X208500Y66367
X188500Y66367
X188500Y78867
M30
