G75*
%MOIN*%
%OFA0B0*%
%FSLAX25Y25*%
%IPPOS*%
%LPD*%
%AMOC8*
5,1,8,0,0,1.08239X$1,22.5*
%
%ADD10C,0.00000*%
%ADD11C,0.00512*%
%ADD12C,0.00600*%
%ADD13R,0.05906X0.01969*%
%ADD14R,0.01969X0.05906*%
%ADD15R,0.12598X0.04724*%
%ADD16R,0.04331X0.03937*%
%ADD17R,0.03937X0.04331*%
%ADD18R,0.05512X0.01378*%
%ADD19R,0.07480X0.07087*%
%ADD20R,0.07480X0.07480*%
%ADD21R,0.05906X0.05906*%
%ADD22R,0.06299X0.05118*%
%ADD23R,0.20827X0.28976*%
%ADD24R,0.05900X0.07900*%
%ADD25R,0.15000X0.07900*%
%ADD26R,0.16000X0.16000*%
%ADD27R,0.20000X0.20000*%
%ADD28C,0.00500*%
%ADD29C,0.03100*%
%ADD30R,0.10000X0.10000*%
%ADD31C,0.01600*%
%ADD32C,0.01000*%
%ADD33C,0.03962*%
%ADD34C,0.01200*%
%ADD35OC8,0.03962*%
D10*
X0003000Y0022117D02*
X0003000Y0337077D01*
X0396701Y0337077D01*
X0396701Y0022117D01*
X0003000Y0022117D01*
X0183825Y0066367D02*
X0183827Y0066504D01*
X0183833Y0066640D01*
X0183843Y0066776D01*
X0183857Y0066912D01*
X0183875Y0067048D01*
X0183897Y0067183D01*
X0183922Y0067317D01*
X0183952Y0067450D01*
X0183986Y0067582D01*
X0184023Y0067714D01*
X0184064Y0067844D01*
X0184110Y0067973D01*
X0184158Y0068101D01*
X0184211Y0068227D01*
X0184267Y0068351D01*
X0184327Y0068474D01*
X0184390Y0068595D01*
X0184457Y0068714D01*
X0184527Y0068831D01*
X0184601Y0068947D01*
X0184678Y0069059D01*
X0184758Y0069170D01*
X0184842Y0069278D01*
X0184929Y0069384D01*
X0185018Y0069487D01*
X0185111Y0069587D01*
X0185206Y0069685D01*
X0185305Y0069780D01*
X0185406Y0069872D01*
X0185510Y0069960D01*
X0185616Y0070046D01*
X0185725Y0070129D01*
X0185836Y0070208D01*
X0185949Y0070285D01*
X0186065Y0070358D01*
X0186182Y0070427D01*
X0186302Y0070493D01*
X0186423Y0070555D01*
X0186547Y0070614D01*
X0186672Y0070670D01*
X0186798Y0070721D01*
X0186926Y0070769D01*
X0187055Y0070813D01*
X0187186Y0070854D01*
X0187318Y0070890D01*
X0187450Y0070923D01*
X0187584Y0070951D01*
X0187718Y0070976D01*
X0187853Y0070997D01*
X0187989Y0071014D01*
X0188125Y0071027D01*
X0188261Y0071036D01*
X0188398Y0071041D01*
X0188534Y0071042D01*
X0188671Y0071039D01*
X0188807Y0071032D01*
X0188943Y0071021D01*
X0189079Y0071006D01*
X0189214Y0070987D01*
X0189349Y0070964D01*
X0189483Y0070937D01*
X0189616Y0070907D01*
X0189748Y0070872D01*
X0189880Y0070834D01*
X0190009Y0070792D01*
X0190138Y0070746D01*
X0190265Y0070696D01*
X0190391Y0070642D01*
X0190515Y0070585D01*
X0190638Y0070525D01*
X0190758Y0070460D01*
X0190877Y0070393D01*
X0190993Y0070322D01*
X0191108Y0070247D01*
X0191220Y0070169D01*
X0191330Y0070088D01*
X0191438Y0070004D01*
X0191543Y0069916D01*
X0191645Y0069826D01*
X0191745Y0069733D01*
X0191842Y0069636D01*
X0191936Y0069537D01*
X0192027Y0069436D01*
X0192115Y0069331D01*
X0192200Y0069224D01*
X0192282Y0069115D01*
X0192361Y0069003D01*
X0192436Y0068889D01*
X0192508Y0068773D01*
X0192577Y0068655D01*
X0192642Y0068535D01*
X0192704Y0068413D01*
X0192762Y0068289D01*
X0192816Y0068164D01*
X0192867Y0068037D01*
X0192913Y0067909D01*
X0192957Y0067779D01*
X0192996Y0067648D01*
X0193032Y0067516D01*
X0193063Y0067383D01*
X0193091Y0067250D01*
X0193115Y0067115D01*
X0193135Y0066980D01*
X0193151Y0066844D01*
X0193163Y0066708D01*
X0193171Y0066572D01*
X0193175Y0066435D01*
X0193175Y0066299D01*
X0193171Y0066162D01*
X0193163Y0066026D01*
X0193151Y0065890D01*
X0193135Y0065754D01*
X0193115Y0065619D01*
X0193091Y0065484D01*
X0193063Y0065351D01*
X0193032Y0065218D01*
X0192996Y0065086D01*
X0192957Y0064955D01*
X0192913Y0064825D01*
X0192867Y0064697D01*
X0192816Y0064570D01*
X0192762Y0064445D01*
X0192704Y0064321D01*
X0192642Y0064199D01*
X0192577Y0064079D01*
X0192508Y0063961D01*
X0192436Y0063845D01*
X0192361Y0063731D01*
X0192282Y0063619D01*
X0192200Y0063510D01*
X0192115Y0063403D01*
X0192027Y0063298D01*
X0191936Y0063197D01*
X0191842Y0063098D01*
X0191745Y0063001D01*
X0191645Y0062908D01*
X0191543Y0062818D01*
X0191438Y0062730D01*
X0191330Y0062646D01*
X0191220Y0062565D01*
X0191108Y0062487D01*
X0190993Y0062412D01*
X0190877Y0062341D01*
X0190758Y0062274D01*
X0190638Y0062209D01*
X0190515Y0062149D01*
X0190391Y0062092D01*
X0190265Y0062038D01*
X0190138Y0061988D01*
X0190009Y0061942D01*
X0189880Y0061900D01*
X0189748Y0061862D01*
X0189616Y0061827D01*
X0189483Y0061797D01*
X0189349Y0061770D01*
X0189214Y0061747D01*
X0189079Y0061728D01*
X0188943Y0061713D01*
X0188807Y0061702D01*
X0188671Y0061695D01*
X0188534Y0061692D01*
X0188398Y0061693D01*
X0188261Y0061698D01*
X0188125Y0061707D01*
X0187989Y0061720D01*
X0187853Y0061737D01*
X0187718Y0061758D01*
X0187584Y0061783D01*
X0187450Y0061811D01*
X0187318Y0061844D01*
X0187186Y0061880D01*
X0187055Y0061921D01*
X0186926Y0061965D01*
X0186798Y0062013D01*
X0186672Y0062064D01*
X0186547Y0062120D01*
X0186423Y0062179D01*
X0186302Y0062241D01*
X0186182Y0062307D01*
X0186065Y0062376D01*
X0185949Y0062449D01*
X0185836Y0062526D01*
X0185725Y0062605D01*
X0185616Y0062688D01*
X0185510Y0062774D01*
X0185406Y0062862D01*
X0185305Y0062954D01*
X0185206Y0063049D01*
X0185111Y0063147D01*
X0185018Y0063247D01*
X0184929Y0063350D01*
X0184842Y0063456D01*
X0184758Y0063564D01*
X0184678Y0063675D01*
X0184601Y0063787D01*
X0184527Y0063903D01*
X0184457Y0064020D01*
X0184390Y0064139D01*
X0184327Y0064260D01*
X0184267Y0064383D01*
X0184211Y0064507D01*
X0184158Y0064633D01*
X0184110Y0064761D01*
X0184064Y0064890D01*
X0184023Y0065020D01*
X0183986Y0065152D01*
X0183952Y0065284D01*
X0183922Y0065417D01*
X0183897Y0065551D01*
X0183875Y0065686D01*
X0183857Y0065822D01*
X0183843Y0065958D01*
X0183833Y0066094D01*
X0183827Y0066230D01*
X0183825Y0066367D01*
X0192750Y0058867D02*
X0192752Y0058950D01*
X0192758Y0059033D01*
X0192768Y0059116D01*
X0192782Y0059198D01*
X0192799Y0059280D01*
X0192821Y0059360D01*
X0192846Y0059439D01*
X0192875Y0059517D01*
X0192908Y0059594D01*
X0192945Y0059669D01*
X0192984Y0059742D01*
X0193028Y0059813D01*
X0193074Y0059882D01*
X0193124Y0059949D01*
X0193177Y0060013D01*
X0193233Y0060075D01*
X0193292Y0060134D01*
X0193354Y0060190D01*
X0193418Y0060243D01*
X0193485Y0060293D01*
X0193554Y0060339D01*
X0193625Y0060383D01*
X0193698Y0060422D01*
X0193773Y0060459D01*
X0193850Y0060492D01*
X0193928Y0060521D01*
X0194007Y0060546D01*
X0194087Y0060568D01*
X0194169Y0060585D01*
X0194251Y0060599D01*
X0194334Y0060609D01*
X0194417Y0060615D01*
X0194500Y0060617D01*
X0194583Y0060615D01*
X0194666Y0060609D01*
X0194749Y0060599D01*
X0194831Y0060585D01*
X0194913Y0060568D01*
X0194993Y0060546D01*
X0195072Y0060521D01*
X0195150Y0060492D01*
X0195227Y0060459D01*
X0195302Y0060422D01*
X0195375Y0060383D01*
X0195446Y0060339D01*
X0195515Y0060293D01*
X0195582Y0060243D01*
X0195646Y0060190D01*
X0195708Y0060134D01*
X0195767Y0060075D01*
X0195823Y0060013D01*
X0195876Y0059949D01*
X0195926Y0059882D01*
X0195972Y0059813D01*
X0196016Y0059742D01*
X0196055Y0059669D01*
X0196092Y0059594D01*
X0196125Y0059517D01*
X0196154Y0059439D01*
X0196179Y0059360D01*
X0196201Y0059280D01*
X0196218Y0059198D01*
X0196232Y0059116D01*
X0196242Y0059033D01*
X0196248Y0058950D01*
X0196250Y0058867D01*
X0196248Y0058784D01*
X0196242Y0058701D01*
X0196232Y0058618D01*
X0196218Y0058536D01*
X0196201Y0058454D01*
X0196179Y0058374D01*
X0196154Y0058295D01*
X0196125Y0058217D01*
X0196092Y0058140D01*
X0196055Y0058065D01*
X0196016Y0057992D01*
X0195972Y0057921D01*
X0195926Y0057852D01*
X0195876Y0057785D01*
X0195823Y0057721D01*
X0195767Y0057659D01*
X0195708Y0057600D01*
X0195646Y0057544D01*
X0195582Y0057491D01*
X0195515Y0057441D01*
X0195446Y0057395D01*
X0195375Y0057351D01*
X0195302Y0057312D01*
X0195227Y0057275D01*
X0195150Y0057242D01*
X0195072Y0057213D01*
X0194993Y0057188D01*
X0194913Y0057166D01*
X0194831Y0057149D01*
X0194749Y0057135D01*
X0194666Y0057125D01*
X0194583Y0057119D01*
X0194500Y0057117D01*
X0194417Y0057119D01*
X0194334Y0057125D01*
X0194251Y0057135D01*
X0194169Y0057149D01*
X0194087Y0057166D01*
X0194007Y0057188D01*
X0193928Y0057213D01*
X0193850Y0057242D01*
X0193773Y0057275D01*
X0193698Y0057312D01*
X0193625Y0057351D01*
X0193554Y0057395D01*
X0193485Y0057441D01*
X0193418Y0057491D01*
X0193354Y0057544D01*
X0193292Y0057600D01*
X0193233Y0057659D01*
X0193177Y0057721D01*
X0193124Y0057785D01*
X0193074Y0057852D01*
X0193028Y0057921D01*
X0192984Y0057992D01*
X0192945Y0058065D01*
X0192908Y0058140D01*
X0192875Y0058217D01*
X0192846Y0058295D01*
X0192821Y0058374D01*
X0192799Y0058454D01*
X0192782Y0058536D01*
X0192768Y0058618D01*
X0192758Y0058701D01*
X0192752Y0058784D01*
X0192750Y0058867D01*
X0200750Y0058867D02*
X0200752Y0058950D01*
X0200758Y0059033D01*
X0200768Y0059116D01*
X0200782Y0059198D01*
X0200799Y0059280D01*
X0200821Y0059360D01*
X0200846Y0059439D01*
X0200875Y0059517D01*
X0200908Y0059594D01*
X0200945Y0059669D01*
X0200984Y0059742D01*
X0201028Y0059813D01*
X0201074Y0059882D01*
X0201124Y0059949D01*
X0201177Y0060013D01*
X0201233Y0060075D01*
X0201292Y0060134D01*
X0201354Y0060190D01*
X0201418Y0060243D01*
X0201485Y0060293D01*
X0201554Y0060339D01*
X0201625Y0060383D01*
X0201698Y0060422D01*
X0201773Y0060459D01*
X0201850Y0060492D01*
X0201928Y0060521D01*
X0202007Y0060546D01*
X0202087Y0060568D01*
X0202169Y0060585D01*
X0202251Y0060599D01*
X0202334Y0060609D01*
X0202417Y0060615D01*
X0202500Y0060617D01*
X0202583Y0060615D01*
X0202666Y0060609D01*
X0202749Y0060599D01*
X0202831Y0060585D01*
X0202913Y0060568D01*
X0202993Y0060546D01*
X0203072Y0060521D01*
X0203150Y0060492D01*
X0203227Y0060459D01*
X0203302Y0060422D01*
X0203375Y0060383D01*
X0203446Y0060339D01*
X0203515Y0060293D01*
X0203582Y0060243D01*
X0203646Y0060190D01*
X0203708Y0060134D01*
X0203767Y0060075D01*
X0203823Y0060013D01*
X0203876Y0059949D01*
X0203926Y0059882D01*
X0203972Y0059813D01*
X0204016Y0059742D01*
X0204055Y0059669D01*
X0204092Y0059594D01*
X0204125Y0059517D01*
X0204154Y0059439D01*
X0204179Y0059360D01*
X0204201Y0059280D01*
X0204218Y0059198D01*
X0204232Y0059116D01*
X0204242Y0059033D01*
X0204248Y0058950D01*
X0204250Y0058867D01*
X0204248Y0058784D01*
X0204242Y0058701D01*
X0204232Y0058618D01*
X0204218Y0058536D01*
X0204201Y0058454D01*
X0204179Y0058374D01*
X0204154Y0058295D01*
X0204125Y0058217D01*
X0204092Y0058140D01*
X0204055Y0058065D01*
X0204016Y0057992D01*
X0203972Y0057921D01*
X0203926Y0057852D01*
X0203876Y0057785D01*
X0203823Y0057721D01*
X0203767Y0057659D01*
X0203708Y0057600D01*
X0203646Y0057544D01*
X0203582Y0057491D01*
X0203515Y0057441D01*
X0203446Y0057395D01*
X0203375Y0057351D01*
X0203302Y0057312D01*
X0203227Y0057275D01*
X0203150Y0057242D01*
X0203072Y0057213D01*
X0202993Y0057188D01*
X0202913Y0057166D01*
X0202831Y0057149D01*
X0202749Y0057135D01*
X0202666Y0057125D01*
X0202583Y0057119D01*
X0202500Y0057117D01*
X0202417Y0057119D01*
X0202334Y0057125D01*
X0202251Y0057135D01*
X0202169Y0057149D01*
X0202087Y0057166D01*
X0202007Y0057188D01*
X0201928Y0057213D01*
X0201850Y0057242D01*
X0201773Y0057275D01*
X0201698Y0057312D01*
X0201625Y0057351D01*
X0201554Y0057395D01*
X0201485Y0057441D01*
X0201418Y0057491D01*
X0201354Y0057544D01*
X0201292Y0057600D01*
X0201233Y0057659D01*
X0201177Y0057721D01*
X0201124Y0057785D01*
X0201074Y0057852D01*
X0201028Y0057921D01*
X0200984Y0057992D01*
X0200945Y0058065D01*
X0200908Y0058140D01*
X0200875Y0058217D01*
X0200846Y0058295D01*
X0200821Y0058374D01*
X0200799Y0058454D01*
X0200782Y0058536D01*
X0200768Y0058618D01*
X0200758Y0058701D01*
X0200752Y0058784D01*
X0200750Y0058867D01*
X0203825Y0066367D02*
X0203827Y0066504D01*
X0203833Y0066640D01*
X0203843Y0066776D01*
X0203857Y0066912D01*
X0203875Y0067048D01*
X0203897Y0067183D01*
X0203922Y0067317D01*
X0203952Y0067450D01*
X0203986Y0067582D01*
X0204023Y0067714D01*
X0204064Y0067844D01*
X0204110Y0067973D01*
X0204158Y0068101D01*
X0204211Y0068227D01*
X0204267Y0068351D01*
X0204327Y0068474D01*
X0204390Y0068595D01*
X0204457Y0068714D01*
X0204527Y0068831D01*
X0204601Y0068947D01*
X0204678Y0069059D01*
X0204758Y0069170D01*
X0204842Y0069278D01*
X0204929Y0069384D01*
X0205018Y0069487D01*
X0205111Y0069587D01*
X0205206Y0069685D01*
X0205305Y0069780D01*
X0205406Y0069872D01*
X0205510Y0069960D01*
X0205616Y0070046D01*
X0205725Y0070129D01*
X0205836Y0070208D01*
X0205949Y0070285D01*
X0206065Y0070358D01*
X0206182Y0070427D01*
X0206302Y0070493D01*
X0206423Y0070555D01*
X0206547Y0070614D01*
X0206672Y0070670D01*
X0206798Y0070721D01*
X0206926Y0070769D01*
X0207055Y0070813D01*
X0207186Y0070854D01*
X0207318Y0070890D01*
X0207450Y0070923D01*
X0207584Y0070951D01*
X0207718Y0070976D01*
X0207853Y0070997D01*
X0207989Y0071014D01*
X0208125Y0071027D01*
X0208261Y0071036D01*
X0208398Y0071041D01*
X0208534Y0071042D01*
X0208671Y0071039D01*
X0208807Y0071032D01*
X0208943Y0071021D01*
X0209079Y0071006D01*
X0209214Y0070987D01*
X0209349Y0070964D01*
X0209483Y0070937D01*
X0209616Y0070907D01*
X0209748Y0070872D01*
X0209880Y0070834D01*
X0210009Y0070792D01*
X0210138Y0070746D01*
X0210265Y0070696D01*
X0210391Y0070642D01*
X0210515Y0070585D01*
X0210638Y0070525D01*
X0210758Y0070460D01*
X0210877Y0070393D01*
X0210993Y0070322D01*
X0211108Y0070247D01*
X0211220Y0070169D01*
X0211330Y0070088D01*
X0211438Y0070004D01*
X0211543Y0069916D01*
X0211645Y0069826D01*
X0211745Y0069733D01*
X0211842Y0069636D01*
X0211936Y0069537D01*
X0212027Y0069436D01*
X0212115Y0069331D01*
X0212200Y0069224D01*
X0212282Y0069115D01*
X0212361Y0069003D01*
X0212436Y0068889D01*
X0212508Y0068773D01*
X0212577Y0068655D01*
X0212642Y0068535D01*
X0212704Y0068413D01*
X0212762Y0068289D01*
X0212816Y0068164D01*
X0212867Y0068037D01*
X0212913Y0067909D01*
X0212957Y0067779D01*
X0212996Y0067648D01*
X0213032Y0067516D01*
X0213063Y0067383D01*
X0213091Y0067250D01*
X0213115Y0067115D01*
X0213135Y0066980D01*
X0213151Y0066844D01*
X0213163Y0066708D01*
X0213171Y0066572D01*
X0213175Y0066435D01*
X0213175Y0066299D01*
X0213171Y0066162D01*
X0213163Y0066026D01*
X0213151Y0065890D01*
X0213135Y0065754D01*
X0213115Y0065619D01*
X0213091Y0065484D01*
X0213063Y0065351D01*
X0213032Y0065218D01*
X0212996Y0065086D01*
X0212957Y0064955D01*
X0212913Y0064825D01*
X0212867Y0064697D01*
X0212816Y0064570D01*
X0212762Y0064445D01*
X0212704Y0064321D01*
X0212642Y0064199D01*
X0212577Y0064079D01*
X0212508Y0063961D01*
X0212436Y0063845D01*
X0212361Y0063731D01*
X0212282Y0063619D01*
X0212200Y0063510D01*
X0212115Y0063403D01*
X0212027Y0063298D01*
X0211936Y0063197D01*
X0211842Y0063098D01*
X0211745Y0063001D01*
X0211645Y0062908D01*
X0211543Y0062818D01*
X0211438Y0062730D01*
X0211330Y0062646D01*
X0211220Y0062565D01*
X0211108Y0062487D01*
X0210993Y0062412D01*
X0210877Y0062341D01*
X0210758Y0062274D01*
X0210638Y0062209D01*
X0210515Y0062149D01*
X0210391Y0062092D01*
X0210265Y0062038D01*
X0210138Y0061988D01*
X0210009Y0061942D01*
X0209880Y0061900D01*
X0209748Y0061862D01*
X0209616Y0061827D01*
X0209483Y0061797D01*
X0209349Y0061770D01*
X0209214Y0061747D01*
X0209079Y0061728D01*
X0208943Y0061713D01*
X0208807Y0061702D01*
X0208671Y0061695D01*
X0208534Y0061692D01*
X0208398Y0061693D01*
X0208261Y0061698D01*
X0208125Y0061707D01*
X0207989Y0061720D01*
X0207853Y0061737D01*
X0207718Y0061758D01*
X0207584Y0061783D01*
X0207450Y0061811D01*
X0207318Y0061844D01*
X0207186Y0061880D01*
X0207055Y0061921D01*
X0206926Y0061965D01*
X0206798Y0062013D01*
X0206672Y0062064D01*
X0206547Y0062120D01*
X0206423Y0062179D01*
X0206302Y0062241D01*
X0206182Y0062307D01*
X0206065Y0062376D01*
X0205949Y0062449D01*
X0205836Y0062526D01*
X0205725Y0062605D01*
X0205616Y0062688D01*
X0205510Y0062774D01*
X0205406Y0062862D01*
X0205305Y0062954D01*
X0205206Y0063049D01*
X0205111Y0063147D01*
X0205018Y0063247D01*
X0204929Y0063350D01*
X0204842Y0063456D01*
X0204758Y0063564D01*
X0204678Y0063675D01*
X0204601Y0063787D01*
X0204527Y0063903D01*
X0204457Y0064020D01*
X0204390Y0064139D01*
X0204327Y0064260D01*
X0204267Y0064383D01*
X0204211Y0064507D01*
X0204158Y0064633D01*
X0204110Y0064761D01*
X0204064Y0064890D01*
X0204023Y0065020D01*
X0203986Y0065152D01*
X0203952Y0065284D01*
X0203922Y0065417D01*
X0203897Y0065551D01*
X0203875Y0065686D01*
X0203857Y0065822D01*
X0203843Y0065958D01*
X0203833Y0066094D01*
X0203827Y0066230D01*
X0203825Y0066367D01*
X0203825Y0078867D02*
X0203827Y0079004D01*
X0203833Y0079140D01*
X0203843Y0079276D01*
X0203857Y0079412D01*
X0203875Y0079548D01*
X0203897Y0079683D01*
X0203922Y0079817D01*
X0203952Y0079950D01*
X0203986Y0080082D01*
X0204023Y0080214D01*
X0204064Y0080344D01*
X0204110Y0080473D01*
X0204158Y0080601D01*
X0204211Y0080727D01*
X0204267Y0080851D01*
X0204327Y0080974D01*
X0204390Y0081095D01*
X0204457Y0081214D01*
X0204527Y0081331D01*
X0204601Y0081447D01*
X0204678Y0081559D01*
X0204758Y0081670D01*
X0204842Y0081778D01*
X0204929Y0081884D01*
X0205018Y0081987D01*
X0205111Y0082087D01*
X0205206Y0082185D01*
X0205305Y0082280D01*
X0205406Y0082372D01*
X0205510Y0082460D01*
X0205616Y0082546D01*
X0205725Y0082629D01*
X0205836Y0082708D01*
X0205949Y0082785D01*
X0206065Y0082858D01*
X0206182Y0082927D01*
X0206302Y0082993D01*
X0206423Y0083055D01*
X0206547Y0083114D01*
X0206672Y0083170D01*
X0206798Y0083221D01*
X0206926Y0083269D01*
X0207055Y0083313D01*
X0207186Y0083354D01*
X0207318Y0083390D01*
X0207450Y0083423D01*
X0207584Y0083451D01*
X0207718Y0083476D01*
X0207853Y0083497D01*
X0207989Y0083514D01*
X0208125Y0083527D01*
X0208261Y0083536D01*
X0208398Y0083541D01*
X0208534Y0083542D01*
X0208671Y0083539D01*
X0208807Y0083532D01*
X0208943Y0083521D01*
X0209079Y0083506D01*
X0209214Y0083487D01*
X0209349Y0083464D01*
X0209483Y0083437D01*
X0209616Y0083407D01*
X0209748Y0083372D01*
X0209880Y0083334D01*
X0210009Y0083292D01*
X0210138Y0083246D01*
X0210265Y0083196D01*
X0210391Y0083142D01*
X0210515Y0083085D01*
X0210638Y0083025D01*
X0210758Y0082960D01*
X0210877Y0082893D01*
X0210993Y0082822D01*
X0211108Y0082747D01*
X0211220Y0082669D01*
X0211330Y0082588D01*
X0211438Y0082504D01*
X0211543Y0082416D01*
X0211645Y0082326D01*
X0211745Y0082233D01*
X0211842Y0082136D01*
X0211936Y0082037D01*
X0212027Y0081936D01*
X0212115Y0081831D01*
X0212200Y0081724D01*
X0212282Y0081615D01*
X0212361Y0081503D01*
X0212436Y0081389D01*
X0212508Y0081273D01*
X0212577Y0081155D01*
X0212642Y0081035D01*
X0212704Y0080913D01*
X0212762Y0080789D01*
X0212816Y0080664D01*
X0212867Y0080537D01*
X0212913Y0080409D01*
X0212957Y0080279D01*
X0212996Y0080148D01*
X0213032Y0080016D01*
X0213063Y0079883D01*
X0213091Y0079750D01*
X0213115Y0079615D01*
X0213135Y0079480D01*
X0213151Y0079344D01*
X0213163Y0079208D01*
X0213171Y0079072D01*
X0213175Y0078935D01*
X0213175Y0078799D01*
X0213171Y0078662D01*
X0213163Y0078526D01*
X0213151Y0078390D01*
X0213135Y0078254D01*
X0213115Y0078119D01*
X0213091Y0077984D01*
X0213063Y0077851D01*
X0213032Y0077718D01*
X0212996Y0077586D01*
X0212957Y0077455D01*
X0212913Y0077325D01*
X0212867Y0077197D01*
X0212816Y0077070D01*
X0212762Y0076945D01*
X0212704Y0076821D01*
X0212642Y0076699D01*
X0212577Y0076579D01*
X0212508Y0076461D01*
X0212436Y0076345D01*
X0212361Y0076231D01*
X0212282Y0076119D01*
X0212200Y0076010D01*
X0212115Y0075903D01*
X0212027Y0075798D01*
X0211936Y0075697D01*
X0211842Y0075598D01*
X0211745Y0075501D01*
X0211645Y0075408D01*
X0211543Y0075318D01*
X0211438Y0075230D01*
X0211330Y0075146D01*
X0211220Y0075065D01*
X0211108Y0074987D01*
X0210993Y0074912D01*
X0210877Y0074841D01*
X0210758Y0074774D01*
X0210638Y0074709D01*
X0210515Y0074649D01*
X0210391Y0074592D01*
X0210265Y0074538D01*
X0210138Y0074488D01*
X0210009Y0074442D01*
X0209880Y0074400D01*
X0209748Y0074362D01*
X0209616Y0074327D01*
X0209483Y0074297D01*
X0209349Y0074270D01*
X0209214Y0074247D01*
X0209079Y0074228D01*
X0208943Y0074213D01*
X0208807Y0074202D01*
X0208671Y0074195D01*
X0208534Y0074192D01*
X0208398Y0074193D01*
X0208261Y0074198D01*
X0208125Y0074207D01*
X0207989Y0074220D01*
X0207853Y0074237D01*
X0207718Y0074258D01*
X0207584Y0074283D01*
X0207450Y0074311D01*
X0207318Y0074344D01*
X0207186Y0074380D01*
X0207055Y0074421D01*
X0206926Y0074465D01*
X0206798Y0074513D01*
X0206672Y0074564D01*
X0206547Y0074620D01*
X0206423Y0074679D01*
X0206302Y0074741D01*
X0206182Y0074807D01*
X0206065Y0074876D01*
X0205949Y0074949D01*
X0205836Y0075026D01*
X0205725Y0075105D01*
X0205616Y0075188D01*
X0205510Y0075274D01*
X0205406Y0075362D01*
X0205305Y0075454D01*
X0205206Y0075549D01*
X0205111Y0075647D01*
X0205018Y0075747D01*
X0204929Y0075850D01*
X0204842Y0075956D01*
X0204758Y0076064D01*
X0204678Y0076175D01*
X0204601Y0076287D01*
X0204527Y0076403D01*
X0204457Y0076520D01*
X0204390Y0076639D01*
X0204327Y0076760D01*
X0204267Y0076883D01*
X0204211Y0077007D01*
X0204158Y0077133D01*
X0204110Y0077261D01*
X0204064Y0077390D01*
X0204023Y0077520D01*
X0203986Y0077652D01*
X0203952Y0077784D01*
X0203922Y0077917D01*
X0203897Y0078051D01*
X0203875Y0078186D01*
X0203857Y0078322D01*
X0203843Y0078458D01*
X0203833Y0078594D01*
X0203827Y0078730D01*
X0203825Y0078867D01*
X0196750Y0078867D02*
X0196752Y0078950D01*
X0196758Y0079033D01*
X0196768Y0079116D01*
X0196782Y0079198D01*
X0196799Y0079280D01*
X0196821Y0079360D01*
X0196846Y0079439D01*
X0196875Y0079517D01*
X0196908Y0079594D01*
X0196945Y0079669D01*
X0196984Y0079742D01*
X0197028Y0079813D01*
X0197074Y0079882D01*
X0197124Y0079949D01*
X0197177Y0080013D01*
X0197233Y0080075D01*
X0197292Y0080134D01*
X0197354Y0080190D01*
X0197418Y0080243D01*
X0197485Y0080293D01*
X0197554Y0080339D01*
X0197625Y0080383D01*
X0197698Y0080422D01*
X0197773Y0080459D01*
X0197850Y0080492D01*
X0197928Y0080521D01*
X0198007Y0080546D01*
X0198087Y0080568D01*
X0198169Y0080585D01*
X0198251Y0080599D01*
X0198334Y0080609D01*
X0198417Y0080615D01*
X0198500Y0080617D01*
X0198583Y0080615D01*
X0198666Y0080609D01*
X0198749Y0080599D01*
X0198831Y0080585D01*
X0198913Y0080568D01*
X0198993Y0080546D01*
X0199072Y0080521D01*
X0199150Y0080492D01*
X0199227Y0080459D01*
X0199302Y0080422D01*
X0199375Y0080383D01*
X0199446Y0080339D01*
X0199515Y0080293D01*
X0199582Y0080243D01*
X0199646Y0080190D01*
X0199708Y0080134D01*
X0199767Y0080075D01*
X0199823Y0080013D01*
X0199876Y0079949D01*
X0199926Y0079882D01*
X0199972Y0079813D01*
X0200016Y0079742D01*
X0200055Y0079669D01*
X0200092Y0079594D01*
X0200125Y0079517D01*
X0200154Y0079439D01*
X0200179Y0079360D01*
X0200201Y0079280D01*
X0200218Y0079198D01*
X0200232Y0079116D01*
X0200242Y0079033D01*
X0200248Y0078950D01*
X0200250Y0078867D01*
X0200248Y0078784D01*
X0200242Y0078701D01*
X0200232Y0078618D01*
X0200218Y0078536D01*
X0200201Y0078454D01*
X0200179Y0078374D01*
X0200154Y0078295D01*
X0200125Y0078217D01*
X0200092Y0078140D01*
X0200055Y0078065D01*
X0200016Y0077992D01*
X0199972Y0077921D01*
X0199926Y0077852D01*
X0199876Y0077785D01*
X0199823Y0077721D01*
X0199767Y0077659D01*
X0199708Y0077600D01*
X0199646Y0077544D01*
X0199582Y0077491D01*
X0199515Y0077441D01*
X0199446Y0077395D01*
X0199375Y0077351D01*
X0199302Y0077312D01*
X0199227Y0077275D01*
X0199150Y0077242D01*
X0199072Y0077213D01*
X0198993Y0077188D01*
X0198913Y0077166D01*
X0198831Y0077149D01*
X0198749Y0077135D01*
X0198666Y0077125D01*
X0198583Y0077119D01*
X0198500Y0077117D01*
X0198417Y0077119D01*
X0198334Y0077125D01*
X0198251Y0077135D01*
X0198169Y0077149D01*
X0198087Y0077166D01*
X0198007Y0077188D01*
X0197928Y0077213D01*
X0197850Y0077242D01*
X0197773Y0077275D01*
X0197698Y0077312D01*
X0197625Y0077351D01*
X0197554Y0077395D01*
X0197485Y0077441D01*
X0197418Y0077491D01*
X0197354Y0077544D01*
X0197292Y0077600D01*
X0197233Y0077659D01*
X0197177Y0077721D01*
X0197124Y0077785D01*
X0197074Y0077852D01*
X0197028Y0077921D01*
X0196984Y0077992D01*
X0196945Y0078065D01*
X0196908Y0078140D01*
X0196875Y0078217D01*
X0196846Y0078295D01*
X0196821Y0078374D01*
X0196799Y0078454D01*
X0196782Y0078536D01*
X0196768Y0078618D01*
X0196758Y0078701D01*
X0196752Y0078784D01*
X0196750Y0078867D01*
X0183825Y0078867D02*
X0183827Y0079004D01*
X0183833Y0079140D01*
X0183843Y0079276D01*
X0183857Y0079412D01*
X0183875Y0079548D01*
X0183897Y0079683D01*
X0183922Y0079817D01*
X0183952Y0079950D01*
X0183986Y0080082D01*
X0184023Y0080214D01*
X0184064Y0080344D01*
X0184110Y0080473D01*
X0184158Y0080601D01*
X0184211Y0080727D01*
X0184267Y0080851D01*
X0184327Y0080974D01*
X0184390Y0081095D01*
X0184457Y0081214D01*
X0184527Y0081331D01*
X0184601Y0081447D01*
X0184678Y0081559D01*
X0184758Y0081670D01*
X0184842Y0081778D01*
X0184929Y0081884D01*
X0185018Y0081987D01*
X0185111Y0082087D01*
X0185206Y0082185D01*
X0185305Y0082280D01*
X0185406Y0082372D01*
X0185510Y0082460D01*
X0185616Y0082546D01*
X0185725Y0082629D01*
X0185836Y0082708D01*
X0185949Y0082785D01*
X0186065Y0082858D01*
X0186182Y0082927D01*
X0186302Y0082993D01*
X0186423Y0083055D01*
X0186547Y0083114D01*
X0186672Y0083170D01*
X0186798Y0083221D01*
X0186926Y0083269D01*
X0187055Y0083313D01*
X0187186Y0083354D01*
X0187318Y0083390D01*
X0187450Y0083423D01*
X0187584Y0083451D01*
X0187718Y0083476D01*
X0187853Y0083497D01*
X0187989Y0083514D01*
X0188125Y0083527D01*
X0188261Y0083536D01*
X0188398Y0083541D01*
X0188534Y0083542D01*
X0188671Y0083539D01*
X0188807Y0083532D01*
X0188943Y0083521D01*
X0189079Y0083506D01*
X0189214Y0083487D01*
X0189349Y0083464D01*
X0189483Y0083437D01*
X0189616Y0083407D01*
X0189748Y0083372D01*
X0189880Y0083334D01*
X0190009Y0083292D01*
X0190138Y0083246D01*
X0190265Y0083196D01*
X0190391Y0083142D01*
X0190515Y0083085D01*
X0190638Y0083025D01*
X0190758Y0082960D01*
X0190877Y0082893D01*
X0190993Y0082822D01*
X0191108Y0082747D01*
X0191220Y0082669D01*
X0191330Y0082588D01*
X0191438Y0082504D01*
X0191543Y0082416D01*
X0191645Y0082326D01*
X0191745Y0082233D01*
X0191842Y0082136D01*
X0191936Y0082037D01*
X0192027Y0081936D01*
X0192115Y0081831D01*
X0192200Y0081724D01*
X0192282Y0081615D01*
X0192361Y0081503D01*
X0192436Y0081389D01*
X0192508Y0081273D01*
X0192577Y0081155D01*
X0192642Y0081035D01*
X0192704Y0080913D01*
X0192762Y0080789D01*
X0192816Y0080664D01*
X0192867Y0080537D01*
X0192913Y0080409D01*
X0192957Y0080279D01*
X0192996Y0080148D01*
X0193032Y0080016D01*
X0193063Y0079883D01*
X0193091Y0079750D01*
X0193115Y0079615D01*
X0193135Y0079480D01*
X0193151Y0079344D01*
X0193163Y0079208D01*
X0193171Y0079072D01*
X0193175Y0078935D01*
X0193175Y0078799D01*
X0193171Y0078662D01*
X0193163Y0078526D01*
X0193151Y0078390D01*
X0193135Y0078254D01*
X0193115Y0078119D01*
X0193091Y0077984D01*
X0193063Y0077851D01*
X0193032Y0077718D01*
X0192996Y0077586D01*
X0192957Y0077455D01*
X0192913Y0077325D01*
X0192867Y0077197D01*
X0192816Y0077070D01*
X0192762Y0076945D01*
X0192704Y0076821D01*
X0192642Y0076699D01*
X0192577Y0076579D01*
X0192508Y0076461D01*
X0192436Y0076345D01*
X0192361Y0076231D01*
X0192282Y0076119D01*
X0192200Y0076010D01*
X0192115Y0075903D01*
X0192027Y0075798D01*
X0191936Y0075697D01*
X0191842Y0075598D01*
X0191745Y0075501D01*
X0191645Y0075408D01*
X0191543Y0075318D01*
X0191438Y0075230D01*
X0191330Y0075146D01*
X0191220Y0075065D01*
X0191108Y0074987D01*
X0190993Y0074912D01*
X0190877Y0074841D01*
X0190758Y0074774D01*
X0190638Y0074709D01*
X0190515Y0074649D01*
X0190391Y0074592D01*
X0190265Y0074538D01*
X0190138Y0074488D01*
X0190009Y0074442D01*
X0189880Y0074400D01*
X0189748Y0074362D01*
X0189616Y0074327D01*
X0189483Y0074297D01*
X0189349Y0074270D01*
X0189214Y0074247D01*
X0189079Y0074228D01*
X0188943Y0074213D01*
X0188807Y0074202D01*
X0188671Y0074195D01*
X0188534Y0074192D01*
X0188398Y0074193D01*
X0188261Y0074198D01*
X0188125Y0074207D01*
X0187989Y0074220D01*
X0187853Y0074237D01*
X0187718Y0074258D01*
X0187584Y0074283D01*
X0187450Y0074311D01*
X0187318Y0074344D01*
X0187186Y0074380D01*
X0187055Y0074421D01*
X0186926Y0074465D01*
X0186798Y0074513D01*
X0186672Y0074564D01*
X0186547Y0074620D01*
X0186423Y0074679D01*
X0186302Y0074741D01*
X0186182Y0074807D01*
X0186065Y0074876D01*
X0185949Y0074949D01*
X0185836Y0075026D01*
X0185725Y0075105D01*
X0185616Y0075188D01*
X0185510Y0075274D01*
X0185406Y0075362D01*
X0185305Y0075454D01*
X0185206Y0075549D01*
X0185111Y0075647D01*
X0185018Y0075747D01*
X0184929Y0075850D01*
X0184842Y0075956D01*
X0184758Y0076064D01*
X0184678Y0076175D01*
X0184601Y0076287D01*
X0184527Y0076403D01*
X0184457Y0076520D01*
X0184390Y0076639D01*
X0184327Y0076760D01*
X0184267Y0076883D01*
X0184211Y0077007D01*
X0184158Y0077133D01*
X0184110Y0077261D01*
X0184064Y0077390D01*
X0184023Y0077520D01*
X0183986Y0077652D01*
X0183952Y0077784D01*
X0183922Y0077917D01*
X0183897Y0078051D01*
X0183875Y0078186D01*
X0183857Y0078322D01*
X0183843Y0078458D01*
X0183833Y0078594D01*
X0183827Y0078730D01*
X0183825Y0078867D01*
X0197669Y0304117D02*
X0197671Y0304248D01*
X0197677Y0304380D01*
X0197687Y0304511D01*
X0197701Y0304642D01*
X0197719Y0304772D01*
X0197741Y0304901D01*
X0197766Y0305030D01*
X0197796Y0305158D01*
X0197830Y0305285D01*
X0197867Y0305412D01*
X0197908Y0305536D01*
X0197953Y0305660D01*
X0198002Y0305782D01*
X0198054Y0305903D01*
X0198110Y0306021D01*
X0198170Y0306139D01*
X0198233Y0306254D01*
X0198300Y0306367D01*
X0198370Y0306479D01*
X0198443Y0306588D01*
X0198519Y0306694D01*
X0198599Y0306799D01*
X0198682Y0306901D01*
X0198768Y0307000D01*
X0198857Y0307097D01*
X0198949Y0307191D01*
X0199044Y0307282D01*
X0199141Y0307371D01*
X0199241Y0307456D01*
X0199344Y0307538D01*
X0199449Y0307617D01*
X0199556Y0307693D01*
X0199666Y0307765D01*
X0199778Y0307834D01*
X0199892Y0307900D01*
X0200007Y0307962D01*
X0200125Y0308021D01*
X0200244Y0308076D01*
X0200365Y0308128D01*
X0200488Y0308175D01*
X0200612Y0308219D01*
X0200737Y0308260D01*
X0200863Y0308296D01*
X0200991Y0308329D01*
X0201119Y0308357D01*
X0201248Y0308382D01*
X0201378Y0308403D01*
X0201508Y0308420D01*
X0201639Y0308433D01*
X0201770Y0308442D01*
X0201901Y0308447D01*
X0202033Y0308448D01*
X0202164Y0308445D01*
X0202296Y0308438D01*
X0202427Y0308427D01*
X0202557Y0308412D01*
X0202687Y0308393D01*
X0202817Y0308370D01*
X0202945Y0308344D01*
X0203073Y0308313D01*
X0203200Y0308278D01*
X0203326Y0308240D01*
X0203450Y0308198D01*
X0203574Y0308152D01*
X0203695Y0308102D01*
X0203815Y0308049D01*
X0203934Y0307992D01*
X0204051Y0307932D01*
X0204165Y0307868D01*
X0204278Y0307800D01*
X0204389Y0307729D01*
X0204498Y0307655D01*
X0204604Y0307578D01*
X0204708Y0307497D01*
X0204809Y0307414D01*
X0204908Y0307327D01*
X0205004Y0307237D01*
X0205097Y0307144D01*
X0205188Y0307049D01*
X0205275Y0306951D01*
X0205360Y0306850D01*
X0205441Y0306747D01*
X0205519Y0306641D01*
X0205594Y0306533D01*
X0205666Y0306423D01*
X0205734Y0306311D01*
X0205799Y0306197D01*
X0205860Y0306080D01*
X0205918Y0305962D01*
X0205972Y0305842D01*
X0206023Y0305721D01*
X0206070Y0305598D01*
X0206113Y0305474D01*
X0206152Y0305349D01*
X0206188Y0305222D01*
X0206219Y0305094D01*
X0206247Y0304966D01*
X0206271Y0304837D01*
X0206291Y0304707D01*
X0206307Y0304576D01*
X0206319Y0304445D01*
X0206327Y0304314D01*
X0206331Y0304183D01*
X0206331Y0304051D01*
X0206327Y0303920D01*
X0206319Y0303789D01*
X0206307Y0303658D01*
X0206291Y0303527D01*
X0206271Y0303397D01*
X0206247Y0303268D01*
X0206219Y0303140D01*
X0206188Y0303012D01*
X0206152Y0302885D01*
X0206113Y0302760D01*
X0206070Y0302636D01*
X0206023Y0302513D01*
X0205972Y0302392D01*
X0205918Y0302272D01*
X0205860Y0302154D01*
X0205799Y0302037D01*
X0205734Y0301923D01*
X0205666Y0301811D01*
X0205594Y0301701D01*
X0205519Y0301593D01*
X0205441Y0301487D01*
X0205360Y0301384D01*
X0205275Y0301283D01*
X0205188Y0301185D01*
X0205097Y0301090D01*
X0205004Y0300997D01*
X0204908Y0300907D01*
X0204809Y0300820D01*
X0204708Y0300737D01*
X0204604Y0300656D01*
X0204498Y0300579D01*
X0204389Y0300505D01*
X0204278Y0300434D01*
X0204166Y0300366D01*
X0204051Y0300302D01*
X0203934Y0300242D01*
X0203815Y0300185D01*
X0203695Y0300132D01*
X0203574Y0300082D01*
X0203450Y0300036D01*
X0203326Y0299994D01*
X0203200Y0299956D01*
X0203073Y0299921D01*
X0202945Y0299890D01*
X0202817Y0299864D01*
X0202687Y0299841D01*
X0202557Y0299822D01*
X0202427Y0299807D01*
X0202296Y0299796D01*
X0202164Y0299789D01*
X0202033Y0299786D01*
X0201901Y0299787D01*
X0201770Y0299792D01*
X0201639Y0299801D01*
X0201508Y0299814D01*
X0201378Y0299831D01*
X0201248Y0299852D01*
X0201119Y0299877D01*
X0200991Y0299905D01*
X0200863Y0299938D01*
X0200737Y0299974D01*
X0200612Y0300015D01*
X0200488Y0300059D01*
X0200365Y0300106D01*
X0200244Y0300158D01*
X0200125Y0300213D01*
X0200007Y0300272D01*
X0199892Y0300334D01*
X0199778Y0300400D01*
X0199666Y0300469D01*
X0199556Y0300541D01*
X0199449Y0300617D01*
X0199344Y0300696D01*
X0199241Y0300778D01*
X0199141Y0300863D01*
X0199044Y0300952D01*
X0198949Y0301043D01*
X0198857Y0301137D01*
X0198768Y0301234D01*
X0198682Y0301333D01*
X0198599Y0301435D01*
X0198519Y0301540D01*
X0198443Y0301646D01*
X0198370Y0301755D01*
X0198300Y0301867D01*
X0198233Y0301980D01*
X0198170Y0302095D01*
X0198110Y0302213D01*
X0198054Y0302331D01*
X0198002Y0302452D01*
X0197953Y0302574D01*
X0197908Y0302698D01*
X0197867Y0302822D01*
X0197830Y0302949D01*
X0197796Y0303076D01*
X0197766Y0303204D01*
X0197741Y0303333D01*
X0197719Y0303462D01*
X0197701Y0303592D01*
X0197687Y0303723D01*
X0197677Y0303854D01*
X0197671Y0303986D01*
X0197669Y0304117D01*
D11*
X0202126Y0318158D02*
X0209777Y0331409D01*
X0206160Y0324633D02*
X0214291Y0318756D01*
X0214174Y0318554D02*
X0206160Y0324633D01*
X0215315Y0320529D01*
X0215431Y0320731D02*
X0214174Y0318554D01*
X0214547Y0319199D02*
X0206160Y0324633D01*
X0215059Y0320085D01*
X0215431Y0320731D02*
X0206160Y0324633D01*
X0330717Y0252713D01*
X0321562Y0256817D01*
X0321445Y0256615D02*
X0330717Y0252713D01*
X0322586Y0258590D01*
X0322702Y0258792D02*
X0321445Y0256615D01*
X0321818Y0257261D02*
X0330717Y0252713D01*
X0322330Y0258147D01*
X0322702Y0258792D02*
X0330717Y0252713D01*
X0327126Y0245983D02*
X0347177Y0245983D01*
X0339500Y0245727D02*
X0340524Y0235747D01*
X0340757Y0235747D02*
X0339500Y0245727D01*
X0338476Y0235747D01*
X0338243Y0235747D02*
X0340757Y0235747D01*
X0340012Y0235747D02*
X0339500Y0245727D01*
X0338988Y0235747D01*
X0338243Y0235747D02*
X0339500Y0245727D01*
X0339500Y0101908D01*
X0340524Y0111888D01*
X0340757Y0111888D02*
X0339500Y0101908D01*
X0338476Y0111888D01*
X0338243Y0111888D02*
X0340757Y0111888D01*
X0340012Y0111888D02*
X0339500Y0101908D01*
X0338988Y0111888D01*
X0338243Y0111888D02*
X0339500Y0101908D01*
X0347177Y0101652D02*
X0327126Y0101652D01*
X0362308Y0101592D01*
X0354631Y0101861D02*
X0355672Y0111839D01*
X0355905Y0111839D02*
X0354631Y0101861D01*
X0353625Y0111843D01*
X0353391Y0111843D02*
X0355905Y0111839D01*
X0355160Y0111840D02*
X0354631Y0101861D01*
X0354136Y0111842D01*
X0353391Y0111843D02*
X0354631Y0101861D01*
X0354754Y0173564D01*
X0355761Y0163582D01*
X0355994Y0163581D02*
X0354754Y0173564D01*
X0353713Y0163585D01*
X0353480Y0163585D02*
X0355994Y0163581D01*
X0355249Y0163582D02*
X0354754Y0173564D01*
X0354225Y0163584D01*
X0353480Y0163585D02*
X0354754Y0173564D01*
X0362432Y0173806D02*
X0327250Y0173867D01*
X0327126Y0245983D02*
X0334777Y0259234D01*
X0279506Y0307018D02*
X0264000Y0281117D01*
X0275343Y0300563D02*
X0266254Y0304811D01*
X0266134Y0304611D02*
X0275343Y0300563D01*
X0267306Y0306567D01*
X0267426Y0306767D02*
X0266134Y0304611D01*
X0266517Y0305250D02*
X0275343Y0300563D01*
X0267043Y0306128D01*
X0267426Y0306767D02*
X0275343Y0300563D01*
X0213908Y0337341D01*
X0221946Y0331336D01*
X0221826Y0331136D02*
X0213908Y0337341D01*
X0222997Y0333093D01*
X0223117Y0333293D02*
X0221826Y0331136D01*
X0222209Y0331776D02*
X0213908Y0337341D01*
X0222734Y0332654D01*
X0223117Y0333293D02*
X0213908Y0337341D01*
X0217632Y0344060D02*
X0202126Y0318158D01*
X0194937Y0330608D01*
X0198555Y0323831D02*
X0190424Y0317954D01*
X0190540Y0317752D02*
X0198555Y0323831D01*
X0189400Y0319727D01*
X0189283Y0319929D02*
X0190540Y0317752D01*
X0190168Y0318398D02*
X0198555Y0323831D01*
X0189656Y0319284D01*
X0189283Y0319929D02*
X0198555Y0323831D01*
X0073998Y0251912D01*
X0083153Y0256016D01*
X0083269Y0255814D02*
X0073998Y0251912D01*
X0082129Y0257789D01*
X0082012Y0257991D02*
X0083269Y0255814D01*
X0082897Y0256459D02*
X0073998Y0251912D01*
X0082385Y0257346D01*
X0082012Y0257991D02*
X0073998Y0251912D01*
X0077126Y0245983D02*
X0062392Y0271416D01*
X0066462Y0264902D02*
X0075611Y0269019D01*
X0075728Y0268817D02*
X0066462Y0264902D01*
X0074585Y0270790D01*
X0074468Y0270992D02*
X0075728Y0268817D01*
X0075354Y0269462D02*
X0066462Y0264902D01*
X0074841Y0270347D01*
X0074468Y0270992D02*
X0066462Y0264902D01*
X0128393Y0300779D01*
X0120270Y0294890D01*
X0120387Y0294689D02*
X0128393Y0300779D01*
X0119244Y0296662D01*
X0119127Y0296864D02*
X0120387Y0294689D01*
X0120014Y0295333D02*
X0128393Y0300779D01*
X0119501Y0296219D01*
X0119127Y0296864D02*
X0128393Y0300779D01*
X0124766Y0307550D02*
X0139500Y0282117D01*
X0077126Y0245983D02*
X0069937Y0258433D01*
X0068500Y0245727D02*
X0069524Y0235747D01*
X0069757Y0235747D02*
X0068500Y0245727D01*
X0067476Y0235747D01*
X0067243Y0235747D02*
X0069757Y0235747D01*
X0069012Y0235747D02*
X0068500Y0245727D01*
X0067988Y0235747D01*
X0067243Y0235747D02*
X0068500Y0245727D01*
X0068500Y0101908D01*
X0069524Y0111888D01*
X0069757Y0111888D02*
X0068500Y0101908D01*
X0067476Y0111888D01*
X0067243Y0111888D02*
X0069757Y0111888D01*
X0069012Y0111888D02*
X0068500Y0101908D01*
X0067988Y0111888D01*
X0067243Y0111888D02*
X0068500Y0101908D01*
X0060823Y0101652D02*
X0077126Y0101652D01*
X0048443Y0101602D01*
X0056119Y0101871D02*
X0055078Y0111850D01*
X0054845Y0111850D02*
X0056119Y0101871D01*
X0057126Y0111854D01*
X0057359Y0111854D02*
X0054845Y0111850D01*
X0055590Y0111851D02*
X0056119Y0101871D01*
X0056614Y0111853D01*
X0057359Y0111854D02*
X0056119Y0101871D01*
X0055994Y0173574D01*
X0054988Y0163592D01*
X0054755Y0163592D02*
X0055994Y0173574D01*
X0057035Y0163596D01*
X0057269Y0163596D02*
X0054755Y0163592D01*
X0055500Y0163593D02*
X0055994Y0173574D01*
X0056524Y0163595D01*
X0057269Y0163596D02*
X0055994Y0173574D01*
X0048317Y0173817D02*
X0077000Y0173867D01*
X0077126Y0245983D02*
X0060823Y0245983D01*
X0077126Y0101652D02*
X0066365Y0083015D01*
X0070425Y0089536D02*
X0078557Y0083659D01*
X0078440Y0083457D02*
X0070425Y0089536D01*
X0079580Y0085432D01*
X0079697Y0085634D02*
X0078440Y0083457D01*
X0078813Y0084102D02*
X0070425Y0089536D01*
X0079324Y0084989D01*
X0079697Y0085634D02*
X0070425Y0089536D01*
X0194982Y0017617D01*
X0185827Y0021721D01*
X0185711Y0021519D02*
X0194982Y0017617D01*
X0186851Y0023494D01*
X0186968Y0023695D02*
X0185711Y0021519D01*
X0186083Y0022164D02*
X0194982Y0017617D01*
X0186595Y0023050D01*
X0186968Y0023695D02*
X0194982Y0017617D01*
X0191365Y0010840D02*
X0202126Y0029477D01*
X0218591Y0001256D01*
X0214943Y0008016D02*
X0224079Y0012161D01*
X0224197Y0011960D02*
X0214943Y0008016D01*
X0223048Y0013929D01*
X0222930Y0014131D02*
X0224197Y0011960D01*
X0223821Y0012603D02*
X0214943Y0008016D01*
X0223305Y0013487D01*
X0222930Y0014131D02*
X0214943Y0008016D01*
X0276875Y0044148D01*
X0268770Y0038234D01*
X0268888Y0038033D02*
X0276875Y0044148D01*
X0267738Y0040003D01*
X0267621Y0040204D02*
X0268888Y0038033D01*
X0268512Y0038676D02*
X0276875Y0044148D01*
X0267996Y0039561D01*
X0267621Y0040204D02*
X0276875Y0044148D01*
X0280965Y0037646D02*
X0264500Y0065867D01*
X0217309Y0023652D02*
X0218566Y0021475D01*
X0209295Y0017573D01*
X0218450Y0021677D01*
X0218194Y0022120D02*
X0209295Y0017573D01*
X0217426Y0023450D01*
X0217309Y0023652D02*
X0209295Y0017573D01*
X0217682Y0023007D01*
X0209295Y0017573D02*
X0333852Y0089492D01*
X0325720Y0083615D01*
X0325837Y0083413D02*
X0333852Y0089492D01*
X0324697Y0085388D01*
X0324580Y0085590D02*
X0325837Y0083413D01*
X0325464Y0084059D02*
X0333852Y0089492D01*
X0324953Y0084945D01*
X0324580Y0085590D02*
X0333852Y0089492D01*
X0337912Y0082972D02*
X0327126Y0101652D01*
X0202126Y0029477D02*
X0212912Y0010797D01*
X0202126Y0029477D02*
X0186330Y0001914D01*
X0189925Y0008702D02*
X0180757Y0012776D01*
X0180641Y0012574D02*
X0189925Y0008702D01*
X0181775Y0014552D01*
X0181891Y0014755D02*
X0180641Y0012574D01*
X0181011Y0013220D02*
X0189925Y0008702D01*
X0181520Y0014108D01*
X0181891Y0014755D02*
X0189925Y0008702D01*
X0127743Y0044337D01*
X0135893Y0038486D01*
X0135777Y0038284D02*
X0127743Y0044337D01*
X0136911Y0040263D01*
X0137027Y0040465D02*
X0135777Y0038284D01*
X0136148Y0038931D02*
X0127743Y0044337D01*
X0136657Y0039819D01*
X0137027Y0040465D02*
X0127743Y0044337D01*
X0123704Y0037803D02*
X0139500Y0065367D01*
D12*
X0135878Y0062098D02*
X0133495Y0062241D01*
X0130579Y0061460D01*
X0133352Y0059859D01*
X0133743Y0058400D01*
X0133209Y0057476D01*
X0131751Y0057085D01*
X0129902Y0058153D01*
X0129511Y0059611D01*
X0130579Y0061460D01*
X0129229Y0063472D02*
X0127770Y0063081D01*
X0128161Y0061623D01*
X0127627Y0060698D01*
X0126169Y0060308D01*
X0124320Y0061375D01*
X0123929Y0062834D01*
X0126846Y0063615D02*
X0127770Y0063081D01*
X0129229Y0063472D02*
X0129763Y0064397D01*
X0129372Y0065855D01*
X0127523Y0066923D01*
X0126064Y0066532D01*
X0135093Y0056388D02*
X0136018Y0055854D01*
X0135484Y0054930D01*
X0134559Y0055464D01*
X0135093Y0056388D01*
X0137884Y0054777D02*
X0138275Y0053318D01*
X0140124Y0052251D01*
X0141582Y0052642D01*
X0142116Y0053566D01*
X0141725Y0055024D01*
X0138952Y0056626D01*
X0137884Y0054777D01*
X0138952Y0056626D02*
X0141868Y0057407D01*
X0144251Y0057264D01*
X0144534Y0053403D02*
X0147307Y0051802D01*
X0147698Y0050343D01*
X0147164Y0049419D01*
X0145706Y0049028D01*
X0143857Y0050096D01*
X0143466Y0051554D01*
X0144534Y0053403D01*
X0147450Y0054185D01*
X0149833Y0054042D01*
X0154535Y0039319D02*
X0151352Y0033761D01*
X0153204Y0032700D02*
X0149499Y0034822D01*
X0151621Y0038528D02*
X0154535Y0039319D01*
X0157745Y0036251D02*
X0157214Y0035324D01*
X0157610Y0033867D01*
X0159463Y0032806D01*
X0159859Y0031349D01*
X0159328Y0030423D01*
X0157871Y0030027D01*
X0156018Y0031088D01*
X0155622Y0032545D01*
X0156153Y0033472D01*
X0157610Y0033867D01*
X0159463Y0032806D02*
X0160920Y0033202D01*
X0161450Y0034129D01*
X0161054Y0035586D01*
X0159202Y0036647D01*
X0157745Y0036251D01*
X0161216Y0029342D02*
X0162142Y0028811D01*
X0161611Y0027885D01*
X0160685Y0028416D01*
X0161216Y0029342D01*
X0164012Y0027740D02*
X0164408Y0026283D01*
X0166261Y0025222D01*
X0167718Y0025618D01*
X0168248Y0026545D01*
X0167853Y0028002D01*
X0166926Y0028532D01*
X0167853Y0028002D02*
X0169309Y0028397D01*
X0169840Y0029324D01*
X0169444Y0030781D01*
X0167591Y0031842D01*
X0166134Y0031446D01*
X0171728Y0028243D02*
X0173185Y0028639D01*
X0175037Y0027577D01*
X0175433Y0026121D01*
X0174903Y0025194D01*
X0173446Y0024798D01*
X0173842Y0023341D01*
X0173311Y0022415D01*
X0171854Y0022019D01*
X0170001Y0023080D01*
X0169605Y0024537D01*
X0172519Y0025329D02*
X0173446Y0024798D01*
X0231908Y0025823D02*
X0232680Y0028743D01*
X0235902Y0023207D01*
X0237747Y0024281D02*
X0234056Y0022133D01*
X0239090Y0026298D02*
X0238553Y0027220D01*
X0238939Y0028680D01*
X0240784Y0029754D01*
X0242244Y0029368D01*
X0242781Y0028446D01*
X0242395Y0026986D01*
X0240550Y0025912D01*
X0239090Y0026298D01*
X0238939Y0028680D02*
X0237479Y0029066D01*
X0236942Y0029988D01*
X0237328Y0031448D01*
X0239173Y0032522D01*
X0240633Y0032136D01*
X0241170Y0031214D01*
X0240784Y0029754D01*
X0244661Y0029540D02*
X0245583Y0030077D01*
X0246120Y0029154D01*
X0245198Y0028617D01*
X0244661Y0029540D01*
X0247446Y0031161D02*
X0248906Y0030775D01*
X0250751Y0031849D01*
X0251137Y0033309D01*
X0250600Y0034232D01*
X0249140Y0034617D01*
X0248217Y0034080D01*
X0249140Y0034617D02*
X0249526Y0036077D01*
X0248989Y0037000D01*
X0247529Y0037385D01*
X0245684Y0036311D01*
X0245298Y0034852D01*
X0251943Y0036248D02*
X0255634Y0038397D01*
X0253100Y0040628D02*
X0251943Y0036248D01*
X0256322Y0035091D02*
X0253100Y0040628D01*
X0259169Y0050561D02*
X0260627Y0050171D01*
X0262476Y0051238D01*
X0262867Y0052697D01*
X0262333Y0053621D01*
X0260875Y0054012D01*
X0259951Y0053478D01*
X0260875Y0054012D02*
X0261266Y0055470D01*
X0260732Y0056395D01*
X0259274Y0056786D01*
X0257425Y0055718D01*
X0257034Y0054260D01*
X0263683Y0055633D02*
X0264751Y0053784D01*
X0266209Y0053393D01*
X0268058Y0054461D01*
X0268449Y0055919D01*
X0267915Y0056844D01*
X0266457Y0057235D01*
X0263683Y0055633D01*
X0264465Y0058550D01*
X0265780Y0060542D01*
X0270333Y0057007D02*
X0271258Y0057541D01*
X0271791Y0056616D01*
X0270867Y0056082D01*
X0270333Y0057007D01*
X0273124Y0058618D02*
X0272056Y0060467D01*
X0274830Y0062069D01*
X0276288Y0061678D01*
X0276822Y0060753D01*
X0276431Y0059295D01*
X0274582Y0058228D01*
X0273124Y0058618D01*
X0272056Y0060467D02*
X0272838Y0063384D01*
X0274153Y0065376D01*
X0277638Y0063690D02*
X0280412Y0065292D01*
X0281870Y0064901D01*
X0282404Y0063976D01*
X0282013Y0062518D01*
X0280164Y0061450D01*
X0278706Y0061841D01*
X0277638Y0063690D01*
X0278420Y0066607D01*
X0279735Y0068599D01*
X0345708Y0127635D02*
X0352114Y0127624D01*
X0352110Y0125489D02*
X0352117Y0129759D01*
X0351054Y0131936D02*
X0349986Y0131938D01*
X0348920Y0133007D01*
X0348924Y0135143D01*
X0349993Y0136208D01*
X0351061Y0136206D01*
X0352127Y0135137D01*
X0352123Y0133002D01*
X0351054Y0131936D01*
X0348920Y0133007D02*
X0347851Y0131942D01*
X0346783Y0131944D01*
X0345717Y0133013D01*
X0345721Y0135148D01*
X0346791Y0136214D01*
X0347858Y0136212D01*
X0348924Y0135143D01*
X0351065Y0138382D02*
X0351067Y0139449D01*
X0352134Y0139447D01*
X0352132Y0138380D01*
X0351065Y0138382D01*
X0351070Y0141604D02*
X0352140Y0142670D01*
X0352144Y0144805D01*
X0351078Y0145875D01*
X0350010Y0145877D01*
X0348941Y0144811D01*
X0348939Y0143743D01*
X0348941Y0144811D02*
X0347875Y0145880D01*
X0346808Y0145882D01*
X0345738Y0144816D01*
X0345734Y0142681D01*
X0346800Y0141612D01*
X0348946Y0148054D02*
X0348954Y0152324D01*
X0352155Y0151251D02*
X0345749Y0151262D01*
X0348946Y0148054D01*
X0335871Y0161590D02*
X0336938Y0162657D01*
X0336938Y0164792D01*
X0335871Y0165860D01*
X0334803Y0165860D01*
X0333735Y0164792D01*
X0333735Y0163725D01*
X0333735Y0164792D02*
X0332668Y0165860D01*
X0331600Y0165860D01*
X0330533Y0164792D01*
X0330533Y0162657D01*
X0331600Y0161590D01*
X0333735Y0168035D02*
X0333735Y0171238D01*
X0334803Y0172306D01*
X0335871Y0172306D01*
X0336938Y0171238D01*
X0336938Y0169103D01*
X0335871Y0168035D01*
X0333735Y0168035D01*
X0331600Y0170170D01*
X0330533Y0172306D01*
X0335871Y0174481D02*
X0335871Y0175548D01*
X0336938Y0175548D01*
X0336938Y0174481D01*
X0335871Y0174481D01*
X0335871Y0177703D02*
X0333735Y0177703D01*
X0333735Y0180906D01*
X0334803Y0181974D01*
X0335871Y0181974D01*
X0336938Y0180906D01*
X0336938Y0178771D01*
X0335871Y0177703D01*
X0333735Y0177703D02*
X0331600Y0179839D01*
X0330533Y0181974D01*
X0333735Y0184149D02*
X0333735Y0187352D01*
X0334803Y0188419D01*
X0335871Y0188419D01*
X0336938Y0187352D01*
X0336938Y0185217D01*
X0335871Y0184149D01*
X0333735Y0184149D01*
X0331600Y0186284D01*
X0330533Y0188419D01*
X0345708Y0127635D02*
X0347840Y0125496D01*
X0282899Y0284516D02*
X0281440Y0284125D01*
X0279591Y0285193D01*
X0279201Y0286651D01*
X0280268Y0288500D01*
X0283042Y0286899D01*
X0283433Y0285440D01*
X0282899Y0284516D01*
X0283185Y0289281D02*
X0280268Y0288500D01*
X0277851Y0288663D02*
X0277460Y0290121D01*
X0274686Y0291723D01*
X0273619Y0289874D01*
X0274009Y0288415D01*
X0275858Y0287348D01*
X0277317Y0287738D01*
X0277851Y0288663D01*
X0277603Y0292504D02*
X0274686Y0291723D01*
X0277603Y0292504D02*
X0279986Y0292361D01*
X0283185Y0289281D02*
X0285568Y0289138D01*
X0271752Y0290951D02*
X0271218Y0290027D01*
X0270294Y0290560D01*
X0270828Y0291485D01*
X0271752Y0290951D01*
X0268944Y0292573D02*
X0269478Y0293497D01*
X0269087Y0294955D01*
X0266313Y0296557D01*
X0265246Y0294708D01*
X0265636Y0293249D01*
X0267486Y0292182D01*
X0268944Y0292573D01*
X0269230Y0297338D02*
X0266313Y0296557D01*
X0264963Y0298569D02*
X0263505Y0298178D01*
X0263896Y0296720D01*
X0263362Y0295795D01*
X0261904Y0295405D01*
X0260054Y0296472D01*
X0259664Y0297930D01*
X0262580Y0298712D02*
X0263505Y0298178D01*
X0264963Y0298569D02*
X0265497Y0299494D01*
X0265106Y0300952D01*
X0263257Y0302019D01*
X0261799Y0301629D01*
X0269230Y0297338D02*
X0271613Y0297195D01*
X0258472Y0313653D02*
X0254807Y0315846D01*
X0260665Y0317317D01*
X0261213Y0318233D01*
X0260845Y0319697D01*
X0259013Y0320794D01*
X0257549Y0320426D01*
X0255682Y0321543D02*
X0255134Y0320627D01*
X0253670Y0320259D01*
X0254037Y0318795D01*
X0253489Y0317879D01*
X0252025Y0317511D01*
X0250193Y0318607D01*
X0249825Y0320072D01*
X0247976Y0321178D02*
X0247427Y0320262D01*
X0246511Y0320811D01*
X0247060Y0321727D01*
X0247976Y0321178D01*
X0245193Y0322844D02*
X0243729Y0322476D01*
X0241897Y0323572D01*
X0241529Y0325037D01*
X0242077Y0325953D01*
X0243542Y0326321D01*
X0245374Y0325224D01*
X0245741Y0323760D01*
X0245193Y0322844D01*
X0245374Y0325224D02*
X0246838Y0325592D01*
X0247386Y0326508D01*
X0247018Y0327972D01*
X0245186Y0329069D01*
X0243722Y0328701D01*
X0243174Y0327785D01*
X0243542Y0326321D01*
X0239114Y0325238D02*
X0235450Y0327431D01*
X0237282Y0326334D02*
X0240572Y0331831D01*
X0237643Y0331095D01*
X0252018Y0323736D02*
X0253482Y0324104D01*
X0255314Y0323007D01*
X0255682Y0321543D01*
X0253670Y0320259D02*
X0252754Y0320807D01*
X0147107Y0298315D02*
X0146716Y0296857D01*
X0144867Y0295789D01*
X0143409Y0296180D01*
X0142341Y0298029D01*
X0145115Y0299631D01*
X0146573Y0299240D01*
X0147107Y0298315D01*
X0143123Y0300946D02*
X0142341Y0298029D01*
X0140991Y0296017D02*
X0139533Y0296408D01*
X0136760Y0294806D01*
X0137827Y0292957D01*
X0139285Y0292567D01*
X0141135Y0293634D01*
X0141525Y0295093D01*
X0140991Y0296017D01*
X0137541Y0297723D02*
X0136760Y0294806D01*
X0137541Y0297723D02*
X0138856Y0299715D01*
X0143123Y0300946D02*
X0144438Y0302938D01*
X0135961Y0291880D02*
X0135036Y0291346D01*
X0135570Y0290421D01*
X0136494Y0290955D01*
X0135961Y0291880D01*
X0133152Y0290258D02*
X0132762Y0288800D01*
X0130912Y0287733D01*
X0129454Y0288123D01*
X0128387Y0289972D01*
X0131160Y0291574D01*
X0132619Y0291183D01*
X0133152Y0290258D01*
X0128387Y0289972D02*
X0129168Y0292889D01*
X0130483Y0294881D01*
X0125435Y0290734D02*
X0125969Y0289809D01*
X0125578Y0288351D01*
X0127037Y0287960D01*
X0127570Y0287036D01*
X0127180Y0285577D01*
X0125330Y0284510D01*
X0123872Y0284901D01*
X0124654Y0287817D02*
X0125578Y0288351D01*
X0125435Y0290734D02*
X0123977Y0291125D01*
X0122128Y0290057D01*
X0121737Y0288599D01*
X0108774Y0292383D02*
X0105080Y0290241D01*
X0106927Y0291312D02*
X0103715Y0296854D01*
X0102938Y0293936D01*
X0101056Y0292845D02*
X0100521Y0293768D01*
X0099062Y0294157D01*
X0097215Y0293086D01*
X0096826Y0291627D01*
X0099744Y0290850D02*
X0100668Y0291386D01*
X0102127Y0290998D01*
X0102662Y0290074D01*
X0102274Y0288615D01*
X0100427Y0287544D01*
X0098968Y0287932D01*
X0097103Y0286852D02*
X0097639Y0285928D01*
X0096715Y0285393D01*
X0096180Y0286316D01*
X0097103Y0286852D01*
X0094298Y0285225D02*
X0093910Y0283766D01*
X0092063Y0282695D01*
X0090604Y0283084D01*
X0090068Y0284007D01*
X0090456Y0285466D01*
X0092304Y0286537D01*
X0093763Y0286149D01*
X0094298Y0285225D01*
X0092304Y0286537D02*
X0092692Y0287996D01*
X0092156Y0288920D01*
X0090697Y0289308D01*
X0088850Y0288237D01*
X0088462Y0286778D01*
X0088997Y0285855D01*
X0090456Y0285466D01*
X0089257Y0281069D02*
X0085563Y0278928D01*
X0087410Y0279998D02*
X0084197Y0285540D01*
X0083421Y0282622D01*
X0100668Y0291386D02*
X0101056Y0292845D01*
X0064871Y0188419D02*
X0063803Y0188419D01*
X0062735Y0187352D01*
X0062735Y0184149D01*
X0064871Y0184149D01*
X0065938Y0185217D01*
X0065938Y0187352D01*
X0064871Y0188419D01*
X0060600Y0186284D02*
X0062735Y0184149D01*
X0063803Y0181974D02*
X0062735Y0180906D01*
X0062735Y0177703D01*
X0064871Y0177703D01*
X0065938Y0178771D01*
X0065938Y0180906D01*
X0064871Y0181974D01*
X0063803Y0181974D01*
X0060600Y0179839D02*
X0062735Y0177703D01*
X0060600Y0179839D02*
X0059533Y0181974D01*
X0060600Y0186284D02*
X0059533Y0188419D01*
X0064871Y0175548D02*
X0065938Y0175548D01*
X0065938Y0174481D01*
X0064871Y0174481D01*
X0064871Y0175548D01*
X0064871Y0172306D02*
X0063803Y0172306D01*
X0062735Y0171238D01*
X0062735Y0168035D01*
X0064871Y0168035D01*
X0065938Y0169103D01*
X0065938Y0171238D01*
X0064871Y0172306D01*
X0060600Y0170170D02*
X0062735Y0168035D01*
X0061668Y0165860D02*
X0062735Y0164792D01*
X0063803Y0165860D01*
X0064871Y0165860D01*
X0065938Y0164792D01*
X0065938Y0162657D01*
X0064871Y0161590D01*
X0062735Y0163725D02*
X0062735Y0164792D01*
X0061668Y0165860D02*
X0060600Y0165860D01*
X0059533Y0164792D01*
X0059533Y0162657D01*
X0060600Y0161590D01*
X0060600Y0170170D02*
X0059533Y0172306D01*
X0058597Y0149955D02*
X0058605Y0145685D01*
X0058601Y0147820D02*
X0065007Y0147831D01*
X0062868Y0149963D01*
X0062879Y0143517D02*
X0063947Y0143519D01*
X0065016Y0142453D01*
X0065020Y0140318D01*
X0063954Y0139249D01*
X0062886Y0139247D01*
X0061817Y0140312D01*
X0061813Y0142448D01*
X0062879Y0143517D01*
X0061813Y0142448D02*
X0060744Y0143513D01*
X0059676Y0143511D01*
X0058611Y0142442D01*
X0058614Y0140307D01*
X0059684Y0139241D01*
X0060751Y0139243D01*
X0061817Y0140312D01*
X0059687Y0137066D02*
X0058620Y0137064D01*
X0058622Y0135997D01*
X0059689Y0135998D01*
X0059687Y0137066D01*
X0059693Y0133843D02*
X0058627Y0132774D01*
X0058631Y0130639D01*
X0059701Y0129573D01*
X0060768Y0129575D01*
X0061834Y0130644D01*
X0061832Y0131712D01*
X0061834Y0130644D02*
X0062903Y0129579D01*
X0063971Y0129580D01*
X0065037Y0130650D01*
X0065033Y0132785D01*
X0063963Y0133851D01*
X0061839Y0127401D02*
X0061847Y0123131D01*
X0065048Y0124204D02*
X0061839Y0127401D01*
X0058642Y0124193D02*
X0065048Y0124204D01*
D13*
X0177915Y0149119D03*
X0177915Y0152268D03*
X0177915Y0155418D03*
X0177915Y0158568D03*
X0177915Y0161717D03*
X0177915Y0164867D03*
X0177915Y0168016D03*
X0177915Y0171166D03*
X0177915Y0174316D03*
X0177915Y0177465D03*
X0177915Y0180615D03*
X0223585Y0180615D03*
X0223585Y0177465D03*
X0223585Y0174316D03*
X0223585Y0171166D03*
X0223585Y0168016D03*
X0223585Y0164867D03*
X0223585Y0161717D03*
X0223585Y0158568D03*
X0223585Y0155418D03*
X0223585Y0152268D03*
X0223585Y0149119D03*
D14*
X0216498Y0142032D03*
X0213348Y0142032D03*
X0210199Y0142032D03*
X0207049Y0142032D03*
X0203900Y0142032D03*
X0200750Y0142032D03*
X0197600Y0142032D03*
X0194451Y0142032D03*
X0191301Y0142032D03*
X0188152Y0142032D03*
X0185002Y0142032D03*
X0185002Y0187701D03*
X0188152Y0187701D03*
X0191301Y0187701D03*
X0194451Y0187701D03*
X0197600Y0187701D03*
X0200750Y0187701D03*
X0203900Y0187701D03*
X0207049Y0187701D03*
X0210199Y0187701D03*
X0213348Y0187701D03*
X0216498Y0187701D03*
D15*
X0212886Y0224743D03*
X0212886Y0240491D03*
X0186114Y0240491D03*
X0186114Y0224743D03*
D16*
X0161000Y0260520D03*
X0161000Y0267213D03*
X0161000Y0275520D03*
X0161000Y0282213D03*
X0224904Y0137617D03*
X0231596Y0137617D03*
X0222096Y0104867D03*
X0215404Y0104867D03*
X0243654Y0102367D03*
X0250346Y0102367D03*
X0279154Y0114367D03*
X0285846Y0114367D03*
X0151596Y0099117D03*
X0144904Y0099117D03*
D17*
X0158250Y0153020D03*
X0158250Y0159713D03*
X0191250Y0201520D03*
X0191250Y0208213D03*
X0278154Y0138867D03*
X0284846Y0138867D03*
X0285096Y0125867D03*
X0278404Y0125867D03*
X0219750Y0094463D03*
X0219750Y0087770D03*
D18*
X0302817Y0123499D03*
X0302817Y0126058D03*
X0302817Y0128617D03*
X0302817Y0131176D03*
X0302817Y0133735D03*
D19*
X0313250Y0144365D03*
X0313250Y0112869D03*
D20*
X0313250Y0123617D03*
X0313250Y0133617D03*
D21*
X0237750Y0267477D03*
X0237750Y0281257D03*
D22*
X0230230Y0123394D03*
X0230230Y0114339D03*
X0215270Y0114339D03*
X0215270Y0123394D03*
D23*
X0149864Y0123384D03*
D24*
X0105600Y0109967D03*
X0096600Y0109967D03*
X0087600Y0109967D03*
D25*
X0096500Y0134767D03*
D26*
X0135000Y0208117D03*
X0270000Y0208367D03*
D27*
X0270000Y0258367D03*
X0270000Y0158367D03*
X0135000Y0158117D03*
X0135000Y0258117D03*
D28*
X0131850Y0232920D02*
X0126339Y0231345D01*
X0120827Y0228589D01*
X0116890Y0225440D01*
X0112953Y0219928D01*
X0110591Y0212054D01*
X0110197Y0208117D01*
X0110000Y0208117D01*
X0110197Y0206936D01*
X0110295Y0205755D01*
X0110197Y0204573D01*
X0110159Y0204063D01*
X0110213Y0203553D01*
X0110359Y0203062D01*
X0110591Y0202605D01*
X0111378Y0200243D01*
X0112165Y0197881D01*
X0113346Y0195912D01*
X0114134Y0194337D01*
X0114921Y0193156D01*
X0116102Y0191581D01*
X0117677Y0190007D01*
X0119252Y0188432D01*
X0121220Y0187251D01*
X0123189Y0186070D01*
X0125945Y0184888D01*
X0127913Y0184101D01*
X0129488Y0184101D01*
X0131457Y0183314D01*
X0136969Y0183314D01*
X0139331Y0183707D01*
X0141299Y0184101D01*
X0144055Y0184888D01*
X0146417Y0186070D01*
X0149961Y0188432D01*
X0152717Y0190794D01*
X0156654Y0195912D01*
X0159409Y0203392D01*
X0159803Y0211266D01*
X0158228Y0217172D01*
X0155472Y0222290D01*
X0151142Y0227014D01*
X0145236Y0230951D01*
X0138937Y0232526D01*
X0131850Y0232920D01*
X0130341Y0232489D02*
X0139088Y0232489D01*
X0141082Y0231990D02*
X0128596Y0231990D01*
X0126851Y0231492D02*
X0143076Y0231492D01*
X0145070Y0230993D02*
X0125634Y0230993D01*
X0124637Y0230494D02*
X0145922Y0230494D01*
X0146669Y0229996D02*
X0123640Y0229996D01*
X0122643Y0229497D02*
X0147417Y0229497D01*
X0148165Y0228999D02*
X0121646Y0228999D01*
X0120716Y0228500D02*
X0148913Y0228500D01*
X0149660Y0228002D02*
X0120093Y0228002D01*
X0119470Y0227503D02*
X0150408Y0227503D01*
X0151150Y0227005D02*
X0118846Y0227005D01*
X0118223Y0226506D02*
X0151607Y0226506D01*
X0152064Y0226008D02*
X0117600Y0226008D01*
X0116977Y0225509D02*
X0152521Y0225509D01*
X0152978Y0225011D02*
X0116584Y0225011D01*
X0116227Y0224512D02*
X0153435Y0224512D01*
X0153892Y0224014D02*
X0115871Y0224014D01*
X0115515Y0223515D02*
X0154349Y0223515D01*
X0154806Y0223017D02*
X0115159Y0223017D01*
X0114803Y0222518D02*
X0155263Y0222518D01*
X0155618Y0222020D02*
X0114447Y0222020D01*
X0114091Y0221521D02*
X0155886Y0221521D01*
X0156155Y0221023D02*
X0113735Y0221023D01*
X0113379Y0220524D02*
X0156423Y0220524D01*
X0156692Y0220026D02*
X0113023Y0220026D01*
X0112833Y0219527D02*
X0156960Y0219527D01*
X0157229Y0219029D02*
X0112683Y0219029D01*
X0112533Y0218530D02*
X0157497Y0218530D01*
X0157765Y0218032D02*
X0112384Y0218032D01*
X0112234Y0217533D02*
X0158034Y0217533D01*
X0158265Y0217035D02*
X0112085Y0217035D01*
X0111935Y0216536D02*
X0158398Y0216536D01*
X0158531Y0216038D02*
X0111786Y0216038D01*
X0111636Y0215539D02*
X0158664Y0215539D01*
X0158797Y0215041D02*
X0111487Y0215041D01*
X0111337Y0214542D02*
X0158930Y0214542D01*
X0159063Y0214044D02*
X0111188Y0214044D01*
X0111038Y0213545D02*
X0159195Y0213545D01*
X0159328Y0213047D02*
X0110888Y0213047D01*
X0110739Y0212548D02*
X0159461Y0212548D01*
X0159594Y0212050D02*
X0110590Y0212050D01*
X0110540Y0211551D02*
X0159727Y0211551D01*
X0159792Y0211053D02*
X0110490Y0211053D01*
X0110441Y0210554D02*
X0159768Y0210554D01*
X0159743Y0210056D02*
X0110391Y0210056D01*
X0110341Y0209557D02*
X0159718Y0209557D01*
X0159693Y0209059D02*
X0110291Y0209059D01*
X0110241Y0208560D02*
X0159668Y0208560D01*
X0159643Y0208061D02*
X0110009Y0208061D01*
X0110092Y0207563D02*
X0159618Y0207563D01*
X0159593Y0207064D02*
X0110175Y0207064D01*
X0110227Y0206566D02*
X0159568Y0206566D01*
X0159543Y0206067D02*
X0110269Y0206067D01*
X0110279Y0205569D02*
X0159518Y0205569D01*
X0159493Y0205070D02*
X0110238Y0205070D01*
X0110197Y0204572D02*
X0159468Y0204572D01*
X0159443Y0204073D02*
X0110160Y0204073D01*
X0110211Y0203575D02*
X0159419Y0203575D01*
X0159293Y0203076D02*
X0110355Y0203076D01*
X0110600Y0202578D02*
X0159109Y0202578D01*
X0158926Y0202079D02*
X0110766Y0202079D01*
X0110932Y0201581D02*
X0158742Y0201581D01*
X0158558Y0201082D02*
X0111098Y0201082D01*
X0111264Y0200584D02*
X0158375Y0200584D01*
X0158191Y0200085D02*
X0111430Y0200085D01*
X0111597Y0199587D02*
X0158007Y0199587D01*
X0157824Y0199088D02*
X0111763Y0199088D01*
X0111929Y0198590D02*
X0157640Y0198590D01*
X0157456Y0198091D02*
X0112095Y0198091D01*
X0112338Y0197593D02*
X0157273Y0197593D01*
X0157089Y0197094D02*
X0112637Y0197094D01*
X0112936Y0196596D02*
X0156905Y0196596D01*
X0156722Y0196097D02*
X0113235Y0196097D01*
X0113503Y0195599D02*
X0156413Y0195599D01*
X0156029Y0195100D02*
X0113752Y0195100D01*
X0114002Y0194602D02*
X0155646Y0194602D01*
X0155262Y0194103D02*
X0114290Y0194103D01*
X0114622Y0193605D02*
X0154879Y0193605D01*
X0154495Y0193106D02*
X0114959Y0193106D01*
X0115333Y0192608D02*
X0154112Y0192608D01*
X0153728Y0192109D02*
X0115707Y0192109D01*
X0116080Y0191611D02*
X0153345Y0191611D01*
X0152961Y0191112D02*
X0116572Y0191112D01*
X0117070Y0190614D02*
X0152506Y0190614D01*
X0151925Y0190115D02*
X0117569Y0190115D01*
X0118067Y0189617D02*
X0151343Y0189617D01*
X0150761Y0189118D02*
X0118566Y0189118D01*
X0119064Y0188620D02*
X0150180Y0188620D01*
X0149495Y0188121D02*
X0119770Y0188121D01*
X0120601Y0187623D02*
X0148747Y0187623D01*
X0147999Y0187124D02*
X0121431Y0187124D01*
X0122262Y0186625D02*
X0147251Y0186625D01*
X0146504Y0186127D02*
X0123093Y0186127D01*
X0124218Y0185628D02*
X0145535Y0185628D01*
X0144538Y0185130D02*
X0125381Y0185130D01*
X0126587Y0184631D02*
X0143156Y0184631D01*
X0141411Y0184133D02*
X0127834Y0184133D01*
X0130655Y0183634D02*
X0138893Y0183634D01*
X0110000Y0208117D02*
X0110008Y0208731D01*
X0110030Y0209344D01*
X0110068Y0209956D01*
X0110120Y0210567D01*
X0110188Y0211177D01*
X0110271Y0211785D01*
X0110368Y0212391D01*
X0110480Y0212994D01*
X0110607Y0213595D01*
X0110749Y0214192D01*
X0110906Y0214785D01*
X0111076Y0215374D01*
X0111262Y0215959D01*
X0111461Y0216539D01*
X0111675Y0217114D01*
X0111903Y0217684D01*
X0112145Y0218248D01*
X0112400Y0218806D01*
X0112669Y0219357D01*
X0112952Y0219902D01*
X0113248Y0220439D01*
X0113557Y0220970D01*
X0113879Y0221492D01*
X0114213Y0222006D01*
X0114560Y0222512D01*
X0114920Y0223009D01*
X0115291Y0223498D01*
X0115675Y0223977D01*
X0116070Y0224446D01*
X0116476Y0224906D01*
X0116894Y0225356D01*
X0117322Y0225795D01*
X0117761Y0226223D01*
X0118211Y0226641D01*
X0118671Y0227047D01*
X0119140Y0227442D01*
X0119619Y0227826D01*
X0120108Y0228197D01*
X0120605Y0228557D01*
X0121111Y0228904D01*
X0121625Y0229238D01*
X0122147Y0229560D01*
X0122678Y0229869D01*
X0123215Y0230165D01*
X0123760Y0230448D01*
X0124311Y0230717D01*
X0124869Y0230972D01*
X0125433Y0231214D01*
X0126003Y0231442D01*
X0126578Y0231656D01*
X0127158Y0231855D01*
X0127743Y0232041D01*
X0128332Y0232211D01*
X0128925Y0232368D01*
X0129522Y0232510D01*
X0130123Y0232637D01*
X0130726Y0232749D01*
X0131332Y0232846D01*
X0131940Y0232929D01*
X0132550Y0232997D01*
X0133161Y0233049D01*
X0133773Y0233087D01*
X0134386Y0233109D01*
X0135000Y0233117D01*
X0135614Y0233109D01*
X0136227Y0233087D01*
X0136839Y0233049D01*
X0137450Y0232997D01*
X0138060Y0232929D01*
X0138668Y0232846D01*
X0139274Y0232749D01*
X0139877Y0232637D01*
X0140478Y0232510D01*
X0141075Y0232368D01*
X0141668Y0232211D01*
X0142257Y0232041D01*
X0142842Y0231855D01*
X0143422Y0231656D01*
X0143997Y0231442D01*
X0144567Y0231214D01*
X0145131Y0230972D01*
X0145689Y0230717D01*
X0146240Y0230448D01*
X0146785Y0230165D01*
X0147322Y0229869D01*
X0147853Y0229560D01*
X0148375Y0229238D01*
X0148889Y0228904D01*
X0149395Y0228557D01*
X0149892Y0228197D01*
X0150381Y0227826D01*
X0150860Y0227442D01*
X0151329Y0227047D01*
X0151789Y0226641D01*
X0152239Y0226223D01*
X0152678Y0225795D01*
X0153106Y0225356D01*
X0153524Y0224906D01*
X0153930Y0224446D01*
X0154325Y0223977D01*
X0154709Y0223498D01*
X0155080Y0223009D01*
X0155440Y0222512D01*
X0155787Y0222006D01*
X0156121Y0221492D01*
X0156443Y0220970D01*
X0156752Y0220439D01*
X0157048Y0219902D01*
X0157331Y0219357D01*
X0157600Y0218806D01*
X0157855Y0218248D01*
X0158097Y0217684D01*
X0158325Y0217114D01*
X0158539Y0216539D01*
X0158738Y0215959D01*
X0158924Y0215374D01*
X0159094Y0214785D01*
X0159251Y0214192D01*
X0159393Y0213595D01*
X0159520Y0212994D01*
X0159632Y0212391D01*
X0159729Y0211785D01*
X0159812Y0211177D01*
X0159880Y0210567D01*
X0159932Y0209956D01*
X0159970Y0209344D01*
X0159992Y0208731D01*
X0160000Y0208117D01*
X0159992Y0207503D01*
X0159970Y0206890D01*
X0159932Y0206278D01*
X0159880Y0205667D01*
X0159812Y0205057D01*
X0159729Y0204449D01*
X0159632Y0203843D01*
X0159520Y0203240D01*
X0159393Y0202639D01*
X0159251Y0202042D01*
X0159094Y0201449D01*
X0158924Y0200860D01*
X0158738Y0200275D01*
X0158539Y0199695D01*
X0158325Y0199120D01*
X0158097Y0198550D01*
X0157855Y0197986D01*
X0157600Y0197428D01*
X0157331Y0196877D01*
X0157048Y0196332D01*
X0156752Y0195795D01*
X0156443Y0195264D01*
X0156121Y0194742D01*
X0155787Y0194228D01*
X0155440Y0193722D01*
X0155080Y0193225D01*
X0154709Y0192736D01*
X0154325Y0192257D01*
X0153930Y0191788D01*
X0153524Y0191328D01*
X0153106Y0190878D01*
X0152678Y0190439D01*
X0152239Y0190011D01*
X0151789Y0189593D01*
X0151329Y0189187D01*
X0150860Y0188792D01*
X0150381Y0188408D01*
X0149892Y0188037D01*
X0149395Y0187677D01*
X0148889Y0187330D01*
X0148375Y0186996D01*
X0147853Y0186674D01*
X0147322Y0186365D01*
X0146785Y0186069D01*
X0146240Y0185786D01*
X0145689Y0185517D01*
X0145131Y0185262D01*
X0144567Y0185020D01*
X0143997Y0184792D01*
X0143422Y0184578D01*
X0142842Y0184379D01*
X0142257Y0184193D01*
X0141668Y0184023D01*
X0141075Y0183866D01*
X0140478Y0183724D01*
X0139877Y0183597D01*
X0139274Y0183485D01*
X0138668Y0183388D01*
X0138060Y0183305D01*
X0137450Y0183237D01*
X0136839Y0183185D01*
X0136227Y0183147D01*
X0135614Y0183125D01*
X0135000Y0183117D01*
X0134386Y0183125D01*
X0133773Y0183147D01*
X0133161Y0183185D01*
X0132550Y0183237D01*
X0131940Y0183305D01*
X0131332Y0183388D01*
X0130726Y0183485D01*
X0130123Y0183597D01*
X0129522Y0183724D01*
X0128925Y0183866D01*
X0128332Y0184023D01*
X0127743Y0184193D01*
X0127158Y0184379D01*
X0126578Y0184578D01*
X0126003Y0184792D01*
X0125433Y0185020D01*
X0124869Y0185262D01*
X0124311Y0185517D01*
X0123760Y0185786D01*
X0123215Y0186069D01*
X0122678Y0186365D01*
X0122147Y0186674D01*
X0121625Y0186996D01*
X0121111Y0187330D01*
X0120605Y0187677D01*
X0120108Y0188037D01*
X0119619Y0188408D01*
X0119140Y0188792D01*
X0118671Y0189187D01*
X0118211Y0189593D01*
X0117761Y0190011D01*
X0117322Y0190439D01*
X0116894Y0190878D01*
X0116476Y0191328D01*
X0116070Y0191788D01*
X0115675Y0192257D01*
X0115291Y0192736D01*
X0114920Y0193225D01*
X0114560Y0193722D01*
X0114213Y0194228D01*
X0113879Y0194742D01*
X0113557Y0195264D01*
X0113248Y0195795D01*
X0112952Y0196332D01*
X0112669Y0196877D01*
X0112400Y0197428D01*
X0112145Y0197986D01*
X0111903Y0198550D01*
X0111675Y0199120D01*
X0111461Y0199695D01*
X0111262Y0200275D01*
X0111076Y0200860D01*
X0110906Y0201449D01*
X0110749Y0202042D01*
X0110607Y0202639D01*
X0110480Y0203240D01*
X0110368Y0203843D01*
X0110271Y0204449D01*
X0110188Y0205057D01*
X0110120Y0205667D01*
X0110068Y0206278D01*
X0110030Y0206890D01*
X0110008Y0207503D01*
X0110000Y0208117D01*
X0245197Y0205217D02*
X0246772Y0199312D01*
X0249528Y0194194D01*
X0253858Y0189469D01*
X0259764Y0185532D01*
X0266063Y0183957D01*
X0273150Y0183564D01*
X0278661Y0185138D01*
X0284173Y0187894D01*
X0288110Y0191044D01*
X0292047Y0196556D01*
X0294409Y0204430D01*
X0294803Y0208367D01*
X0295000Y0208367D01*
X0294803Y0209548D01*
X0294705Y0210729D01*
X0294803Y0211910D01*
X0294841Y0212421D01*
X0294787Y0212930D01*
X0294641Y0213422D01*
X0294409Y0213879D01*
X0293622Y0216241D01*
X0292835Y0218603D01*
X0291654Y0220571D01*
X0290866Y0222146D01*
X0290079Y0223327D01*
X0288898Y0224902D01*
X0287323Y0226477D01*
X0285748Y0228052D01*
X0283780Y0229233D01*
X0281811Y0230414D01*
X0279055Y0231595D01*
X0277087Y0232383D01*
X0275512Y0232383D01*
X0273543Y0233170D01*
X0268031Y0233170D01*
X0265669Y0232776D01*
X0263701Y0232383D01*
X0260945Y0231595D01*
X0258583Y0230414D01*
X0255039Y0228052D01*
X0252283Y0225690D01*
X0248346Y0220571D01*
X0245591Y0213091D01*
X0245197Y0205217D01*
X0245236Y0205070D02*
X0294474Y0205070D01*
X0294424Y0204572D02*
X0245369Y0204572D01*
X0245502Y0204073D02*
X0294303Y0204073D01*
X0294153Y0203575D02*
X0245635Y0203575D01*
X0245768Y0203076D02*
X0294003Y0203076D01*
X0293854Y0202578D02*
X0245901Y0202578D01*
X0246034Y0202079D02*
X0293704Y0202079D01*
X0293555Y0201581D02*
X0246167Y0201581D01*
X0246299Y0201082D02*
X0293405Y0201082D01*
X0293256Y0200584D02*
X0246432Y0200584D01*
X0246565Y0200085D02*
X0293106Y0200085D01*
X0292957Y0199587D02*
X0246698Y0199587D01*
X0246892Y0199088D02*
X0292807Y0199088D01*
X0292657Y0198590D02*
X0247160Y0198590D01*
X0247429Y0198091D02*
X0292508Y0198091D01*
X0292358Y0197593D02*
X0247697Y0197593D01*
X0247966Y0197094D02*
X0292209Y0197094D01*
X0292059Y0196596D02*
X0248234Y0196596D01*
X0248502Y0196097D02*
X0291720Y0196097D01*
X0291364Y0195599D02*
X0248771Y0195599D01*
X0249039Y0195100D02*
X0291008Y0195100D01*
X0290651Y0194602D02*
X0249308Y0194602D01*
X0249610Y0194103D02*
X0290295Y0194103D01*
X0289939Y0193605D02*
X0250067Y0193605D01*
X0250524Y0193106D02*
X0289583Y0193106D01*
X0289227Y0192608D02*
X0250981Y0192608D01*
X0251438Y0192109D02*
X0288871Y0192109D01*
X0288515Y0191611D02*
X0251895Y0191611D01*
X0252352Y0191112D02*
X0288159Y0191112D01*
X0287572Y0190614D02*
X0252809Y0190614D01*
X0253266Y0190115D02*
X0286949Y0190115D01*
X0286326Y0189617D02*
X0253723Y0189617D01*
X0254385Y0189118D02*
X0285703Y0189118D01*
X0285080Y0188620D02*
X0255133Y0188620D01*
X0255880Y0188121D02*
X0284457Y0188121D01*
X0283630Y0187623D02*
X0256628Y0187623D01*
X0257376Y0187124D02*
X0282633Y0187124D01*
X0281636Y0186625D02*
X0258124Y0186625D01*
X0258871Y0186127D02*
X0280639Y0186127D01*
X0279642Y0185628D02*
X0259619Y0185628D01*
X0261372Y0185130D02*
X0278632Y0185130D01*
X0276887Y0184631D02*
X0263366Y0184631D01*
X0265360Y0184133D02*
X0275142Y0184133D01*
X0273397Y0183634D02*
X0271875Y0183634D01*
X0294523Y0205569D02*
X0245214Y0205569D01*
X0245239Y0206067D02*
X0294573Y0206067D01*
X0294623Y0206566D02*
X0245264Y0206566D01*
X0245289Y0207064D02*
X0294673Y0207064D01*
X0294723Y0207563D02*
X0245314Y0207563D01*
X0245339Y0208061D02*
X0294773Y0208061D01*
X0294968Y0208560D02*
X0245364Y0208560D01*
X0245389Y0209059D02*
X0294885Y0209059D01*
X0294802Y0209557D02*
X0245414Y0209557D01*
X0245439Y0210056D02*
X0294761Y0210056D01*
X0294720Y0210554D02*
X0245464Y0210554D01*
X0245489Y0211053D02*
X0294732Y0211053D01*
X0294773Y0211551D02*
X0245514Y0211551D01*
X0245538Y0212050D02*
X0294814Y0212050D01*
X0294828Y0212548D02*
X0245563Y0212548D01*
X0245588Y0213047D02*
X0294752Y0213047D01*
X0294579Y0213545D02*
X0245758Y0213545D01*
X0245941Y0214044D02*
X0294354Y0214044D01*
X0294188Y0214542D02*
X0246125Y0214542D01*
X0246309Y0215041D02*
X0294022Y0215041D01*
X0293856Y0215539D02*
X0246492Y0215539D01*
X0246676Y0216038D02*
X0293690Y0216038D01*
X0293524Y0216536D02*
X0246860Y0216536D01*
X0247043Y0217035D02*
X0293357Y0217035D01*
X0293191Y0217533D02*
X0247227Y0217533D01*
X0247411Y0218032D02*
X0293025Y0218032D01*
X0292859Y0218530D02*
X0247594Y0218530D01*
X0247778Y0219029D02*
X0292579Y0219029D01*
X0292280Y0219527D02*
X0247962Y0219527D01*
X0248145Y0220026D02*
X0291981Y0220026D01*
X0291682Y0220524D02*
X0248329Y0220524D01*
X0248694Y0221023D02*
X0291428Y0221023D01*
X0291179Y0221521D02*
X0249077Y0221521D01*
X0249461Y0222020D02*
X0290929Y0222020D01*
X0290618Y0222518D02*
X0249844Y0222518D01*
X0250227Y0223017D02*
X0290286Y0223017D01*
X0289938Y0223515D02*
X0250611Y0223515D01*
X0250994Y0224014D02*
X0289564Y0224014D01*
X0289190Y0224512D02*
X0251378Y0224512D01*
X0251761Y0225011D02*
X0288789Y0225011D01*
X0288290Y0225509D02*
X0252145Y0225509D01*
X0252655Y0226008D02*
X0287792Y0226008D01*
X0287293Y0226506D02*
X0253236Y0226506D01*
X0253818Y0227005D02*
X0286795Y0227005D01*
X0286296Y0227503D02*
X0254400Y0227503D01*
X0254981Y0228002D02*
X0285798Y0228002D01*
X0285000Y0228500D02*
X0255712Y0228500D01*
X0256460Y0228999D02*
X0284169Y0228999D01*
X0283339Y0229497D02*
X0257208Y0229497D01*
X0257956Y0229996D02*
X0282508Y0229996D01*
X0281623Y0230494D02*
X0258744Y0230494D01*
X0259741Y0230993D02*
X0280460Y0230993D01*
X0279297Y0231492D02*
X0260738Y0231492D01*
X0262327Y0231990D02*
X0278068Y0231990D01*
X0275247Y0232489D02*
X0264231Y0232489D01*
X0266934Y0232987D02*
X0274000Y0232987D01*
X0245000Y0208367D02*
X0245008Y0208981D01*
X0245030Y0209594D01*
X0245068Y0210206D01*
X0245120Y0210817D01*
X0245188Y0211427D01*
X0245271Y0212035D01*
X0245368Y0212641D01*
X0245480Y0213244D01*
X0245607Y0213845D01*
X0245749Y0214442D01*
X0245906Y0215035D01*
X0246076Y0215624D01*
X0246262Y0216209D01*
X0246461Y0216789D01*
X0246675Y0217364D01*
X0246903Y0217934D01*
X0247145Y0218498D01*
X0247400Y0219056D01*
X0247669Y0219607D01*
X0247952Y0220152D01*
X0248248Y0220689D01*
X0248557Y0221220D01*
X0248879Y0221742D01*
X0249213Y0222256D01*
X0249560Y0222762D01*
X0249920Y0223259D01*
X0250291Y0223748D01*
X0250675Y0224227D01*
X0251070Y0224696D01*
X0251476Y0225156D01*
X0251894Y0225606D01*
X0252322Y0226045D01*
X0252761Y0226473D01*
X0253211Y0226891D01*
X0253671Y0227297D01*
X0254140Y0227692D01*
X0254619Y0228076D01*
X0255108Y0228447D01*
X0255605Y0228807D01*
X0256111Y0229154D01*
X0256625Y0229488D01*
X0257147Y0229810D01*
X0257678Y0230119D01*
X0258215Y0230415D01*
X0258760Y0230698D01*
X0259311Y0230967D01*
X0259869Y0231222D01*
X0260433Y0231464D01*
X0261003Y0231692D01*
X0261578Y0231906D01*
X0262158Y0232105D01*
X0262743Y0232291D01*
X0263332Y0232461D01*
X0263925Y0232618D01*
X0264522Y0232760D01*
X0265123Y0232887D01*
X0265726Y0232999D01*
X0266332Y0233096D01*
X0266940Y0233179D01*
X0267550Y0233247D01*
X0268161Y0233299D01*
X0268773Y0233337D01*
X0269386Y0233359D01*
X0270000Y0233367D01*
X0270614Y0233359D01*
X0271227Y0233337D01*
X0271839Y0233299D01*
X0272450Y0233247D01*
X0273060Y0233179D01*
X0273668Y0233096D01*
X0274274Y0232999D01*
X0274877Y0232887D01*
X0275478Y0232760D01*
X0276075Y0232618D01*
X0276668Y0232461D01*
X0277257Y0232291D01*
X0277842Y0232105D01*
X0278422Y0231906D01*
X0278997Y0231692D01*
X0279567Y0231464D01*
X0280131Y0231222D01*
X0280689Y0230967D01*
X0281240Y0230698D01*
X0281785Y0230415D01*
X0282322Y0230119D01*
X0282853Y0229810D01*
X0283375Y0229488D01*
X0283889Y0229154D01*
X0284395Y0228807D01*
X0284892Y0228447D01*
X0285381Y0228076D01*
X0285860Y0227692D01*
X0286329Y0227297D01*
X0286789Y0226891D01*
X0287239Y0226473D01*
X0287678Y0226045D01*
X0288106Y0225606D01*
X0288524Y0225156D01*
X0288930Y0224696D01*
X0289325Y0224227D01*
X0289709Y0223748D01*
X0290080Y0223259D01*
X0290440Y0222762D01*
X0290787Y0222256D01*
X0291121Y0221742D01*
X0291443Y0221220D01*
X0291752Y0220689D01*
X0292048Y0220152D01*
X0292331Y0219607D01*
X0292600Y0219056D01*
X0292855Y0218498D01*
X0293097Y0217934D01*
X0293325Y0217364D01*
X0293539Y0216789D01*
X0293738Y0216209D01*
X0293924Y0215624D01*
X0294094Y0215035D01*
X0294251Y0214442D01*
X0294393Y0213845D01*
X0294520Y0213244D01*
X0294632Y0212641D01*
X0294729Y0212035D01*
X0294812Y0211427D01*
X0294880Y0210817D01*
X0294932Y0210206D01*
X0294970Y0209594D01*
X0294992Y0208981D01*
X0295000Y0208367D01*
X0294992Y0207753D01*
X0294970Y0207140D01*
X0294932Y0206528D01*
X0294880Y0205917D01*
X0294812Y0205307D01*
X0294729Y0204699D01*
X0294632Y0204093D01*
X0294520Y0203490D01*
X0294393Y0202889D01*
X0294251Y0202292D01*
X0294094Y0201699D01*
X0293924Y0201110D01*
X0293738Y0200525D01*
X0293539Y0199945D01*
X0293325Y0199370D01*
X0293097Y0198800D01*
X0292855Y0198236D01*
X0292600Y0197678D01*
X0292331Y0197127D01*
X0292048Y0196582D01*
X0291752Y0196045D01*
X0291443Y0195514D01*
X0291121Y0194992D01*
X0290787Y0194478D01*
X0290440Y0193972D01*
X0290080Y0193475D01*
X0289709Y0192986D01*
X0289325Y0192507D01*
X0288930Y0192038D01*
X0288524Y0191578D01*
X0288106Y0191128D01*
X0287678Y0190689D01*
X0287239Y0190261D01*
X0286789Y0189843D01*
X0286329Y0189437D01*
X0285860Y0189042D01*
X0285381Y0188658D01*
X0284892Y0188287D01*
X0284395Y0187927D01*
X0283889Y0187580D01*
X0283375Y0187246D01*
X0282853Y0186924D01*
X0282322Y0186615D01*
X0281785Y0186319D01*
X0281240Y0186036D01*
X0280689Y0185767D01*
X0280131Y0185512D01*
X0279567Y0185270D01*
X0278997Y0185042D01*
X0278422Y0184828D01*
X0277842Y0184629D01*
X0277257Y0184443D01*
X0276668Y0184273D01*
X0276075Y0184116D01*
X0275478Y0183974D01*
X0274877Y0183847D01*
X0274274Y0183735D01*
X0273668Y0183638D01*
X0273060Y0183555D01*
X0272450Y0183487D01*
X0271839Y0183435D01*
X0271227Y0183397D01*
X0270614Y0183375D01*
X0270000Y0183367D01*
X0269386Y0183375D01*
X0268773Y0183397D01*
X0268161Y0183435D01*
X0267550Y0183487D01*
X0266940Y0183555D01*
X0266332Y0183638D01*
X0265726Y0183735D01*
X0265123Y0183847D01*
X0264522Y0183974D01*
X0263925Y0184116D01*
X0263332Y0184273D01*
X0262743Y0184443D01*
X0262158Y0184629D01*
X0261578Y0184828D01*
X0261003Y0185042D01*
X0260433Y0185270D01*
X0259869Y0185512D01*
X0259311Y0185767D01*
X0258760Y0186036D01*
X0258215Y0186319D01*
X0257678Y0186615D01*
X0257147Y0186924D01*
X0256625Y0187246D01*
X0256111Y0187580D01*
X0255605Y0187927D01*
X0255108Y0188287D01*
X0254619Y0188658D01*
X0254140Y0189042D01*
X0253671Y0189437D01*
X0253211Y0189843D01*
X0252761Y0190261D01*
X0252322Y0190689D01*
X0251894Y0191128D01*
X0251476Y0191578D01*
X0251070Y0192038D01*
X0250675Y0192507D01*
X0250291Y0192986D01*
X0249920Y0193475D01*
X0249560Y0193972D01*
X0249213Y0194478D01*
X0248879Y0194992D01*
X0248557Y0195514D01*
X0248248Y0196045D01*
X0247952Y0196582D01*
X0247669Y0197127D01*
X0247400Y0197678D01*
X0247145Y0198236D01*
X0246903Y0198800D01*
X0246675Y0199370D01*
X0246461Y0199945D01*
X0246262Y0200525D01*
X0246076Y0201110D01*
X0245906Y0201699D01*
X0245749Y0202292D01*
X0245607Y0202889D01*
X0245480Y0203490D01*
X0245368Y0204093D01*
X0245271Y0204699D01*
X0245188Y0205307D01*
X0245120Y0205917D01*
X0245068Y0206528D01*
X0245030Y0207140D01*
X0245008Y0207753D01*
X0245000Y0208367D01*
D29*
X0201000Y0073867D03*
X0196000Y0073867D03*
X0196000Y0068867D03*
X0201000Y0068867D03*
X0201000Y0063867D03*
X0196000Y0063867D03*
D30*
X0123750Y0113867D03*
X0123750Y0132367D03*
D31*
X0130750Y0132414D02*
X0134651Y0132414D01*
X0134651Y0130816D02*
X0130750Y0130816D01*
X0130750Y0129217D02*
X0134651Y0129217D01*
X0134651Y0127619D02*
X0130750Y0127619D01*
X0130750Y0126538D02*
X0130750Y0138195D01*
X0129578Y0139367D01*
X0126250Y0139367D01*
X0126250Y0145831D01*
X0126536Y0146117D01*
X0145828Y0146117D01*
X0147000Y0147288D01*
X0147000Y0168945D01*
X0145828Y0170117D01*
X0124172Y0170117D01*
X0123000Y0168945D01*
X0123000Y0149652D01*
X0121631Y0148283D01*
X0121250Y0147364D01*
X0121250Y0139367D01*
X0117922Y0139367D01*
X0116750Y0138195D01*
X0116750Y0126538D01*
X0117922Y0125367D01*
X0129578Y0125367D01*
X0130750Y0126538D01*
X0130232Y0126020D02*
X0134651Y0126020D01*
X0134651Y0124421D02*
X0099300Y0124421D01*
X0099300Y0122823D02*
X0134651Y0122823D01*
X0134651Y0121224D02*
X0099300Y0121224D01*
X0099300Y0119626D02*
X0116750Y0119626D01*
X0116750Y0119695D02*
X0116750Y0108038D01*
X0117922Y0106867D01*
X0118464Y0106867D01*
X0118172Y0106575D01*
X0117755Y0106992D01*
X0116292Y0107598D01*
X0114708Y0107598D01*
X0113245Y0106992D01*
X0113078Y0106825D01*
X0110550Y0109352D01*
X0110550Y0114745D01*
X0109378Y0115917D01*
X0101822Y0115917D01*
X0101100Y0115195D01*
X0100378Y0115917D01*
X0099300Y0115917D01*
X0099300Y0127817D01*
X0111807Y0127817D01*
X0112836Y0128243D01*
X0113624Y0129031D01*
X0114050Y0130060D01*
X0114050Y0151174D01*
X0113624Y0152203D01*
X0112836Y0152990D01*
X0111807Y0153417D01*
X0089693Y0153417D01*
X0088664Y0152990D01*
X0082914Y0147240D01*
X0082077Y0146404D01*
X0082250Y0242867D01*
X0123000Y0266189D01*
X0123000Y0247288D01*
X0124172Y0246117D01*
X0145828Y0246117D01*
X0147000Y0247288D01*
X0147000Y0268945D01*
X0145828Y0270117D01*
X0129863Y0270117D01*
X0193002Y0306253D01*
X0192869Y0305933D01*
X0192869Y0302301D01*
X0194259Y0298945D01*
X0196828Y0296376D01*
X0199868Y0295117D01*
X0176253Y0295117D01*
X0175334Y0294736D01*
X0174631Y0294033D01*
X0165311Y0284713D01*
X0165165Y0284713D01*
X0165165Y0285010D01*
X0163994Y0286182D01*
X0158006Y0286182D01*
X0156835Y0285010D01*
X0156835Y0279416D01*
X0157384Y0278867D01*
X0156835Y0278317D01*
X0156835Y0272723D01*
X0158006Y0271552D01*
X0158500Y0271552D01*
X0158500Y0271182D01*
X0158006Y0271182D01*
X0156835Y0270010D01*
X0156835Y0264416D01*
X0157384Y0263867D01*
X0156835Y0263317D01*
X0156835Y0257723D01*
X0158006Y0256552D01*
X0161433Y0256552D01*
X0170750Y0247235D01*
X0170750Y0238997D01*
X0169875Y0238122D01*
X0169269Y0236659D01*
X0169269Y0235075D01*
X0169875Y0233612D01*
X0170995Y0232492D01*
X0172458Y0231886D01*
X0172946Y0231886D01*
X0173381Y0231451D01*
X0174084Y0230747D01*
X0175003Y0230367D01*
X0176955Y0230367D01*
X0178601Y0228720D01*
X0177815Y0227933D01*
X0177815Y0222932D01*
X0177005Y0223742D01*
X0175542Y0224348D01*
X0173958Y0224348D01*
X0172683Y0223820D01*
X0172683Y0224797D01*
X0158324Y0239156D01*
X0162804Y0243636D01*
X0164042Y0243636D01*
X0165505Y0244242D01*
X0166625Y0245362D01*
X0167231Y0246825D01*
X0167231Y0248409D01*
X0166625Y0249872D01*
X0165505Y0250992D01*
X0164042Y0251598D01*
X0162458Y0251598D01*
X0160995Y0250992D01*
X0159875Y0249872D01*
X0159269Y0248409D01*
X0159269Y0247171D01*
X0154789Y0242691D01*
X0152998Y0244482D01*
X0151680Y0245800D01*
X0114383Y0245800D01*
X0098635Y0230052D01*
X0097317Y0228734D01*
X0097317Y0187500D01*
X0098635Y0186182D01*
X0108535Y0176282D01*
X0106769Y0174516D01*
X0106769Y0171218D01*
X0109101Y0168886D01*
X0112399Y0168886D01*
X0114165Y0170652D01*
X0114383Y0170434D01*
X0153281Y0170434D01*
X0153131Y0170283D01*
X0152855Y0169617D01*
X0150753Y0169617D01*
X0149834Y0169236D01*
X0149131Y0168533D01*
X0148131Y0167533D01*
X0147750Y0166614D01*
X0147750Y0158497D01*
X0147625Y0158372D01*
X0147019Y0156909D01*
X0147019Y0155325D01*
X0147625Y0153862D01*
X0148745Y0152742D01*
X0150208Y0152136D01*
X0151792Y0152136D01*
X0153255Y0152742D01*
X0154375Y0153862D01*
X0154481Y0154119D01*
X0154481Y0153205D01*
X0158066Y0153205D01*
X0158066Y0152836D01*
X0158434Y0152836D01*
X0158434Y0149055D01*
X0160455Y0149055D01*
X0160750Y0149134D01*
X0160750Y0142673D01*
X0138496Y0142673D01*
X0136732Y0141942D01*
X0135382Y0140592D01*
X0134651Y0138827D01*
X0134651Y0107941D01*
X0134785Y0107617D01*
X0130328Y0107617D01*
X0130750Y0108038D01*
X0130750Y0119695D01*
X0129578Y0120867D01*
X0117922Y0120867D01*
X0116750Y0119695D01*
X0116750Y0118027D02*
X0099300Y0118027D01*
X0099300Y0116429D02*
X0116750Y0116429D01*
X0116750Y0114830D02*
X0110465Y0114830D01*
X0110550Y0113232D02*
X0116750Y0113232D01*
X0116750Y0111633D02*
X0110550Y0111633D01*
X0110550Y0110035D02*
X0116750Y0110035D01*
X0116750Y0108436D02*
X0111466Y0108436D01*
X0113064Y0106838D02*
X0113091Y0106838D01*
X0117909Y0106838D02*
X0118436Y0106838D01*
X0126014Y0098845D02*
X0140938Y0098845D01*
X0140938Y0098932D02*
X0140938Y0096911D01*
X0141061Y0096453D01*
X0141298Y0096043D01*
X0141633Y0095708D01*
X0142043Y0095471D01*
X0142501Y0095348D01*
X0144719Y0095348D01*
X0144719Y0098932D01*
X0145088Y0098932D01*
X0145088Y0095348D01*
X0147306Y0095348D01*
X0147764Y0095471D01*
X0148091Y0095660D01*
X0148603Y0095148D01*
X0154590Y0095148D01*
X0155762Y0096320D01*
X0155762Y0096617D01*
X0156870Y0096617D01*
X0157745Y0095742D01*
X0159208Y0095136D01*
X0160792Y0095136D01*
X0162255Y0095742D01*
X0163375Y0096862D01*
X0163981Y0098325D01*
X0163981Y0099909D01*
X0163375Y0101372D01*
X0162255Y0102492D01*
X0160792Y0103098D01*
X0159208Y0103098D01*
X0157745Y0102492D01*
X0156870Y0101617D01*
X0155762Y0101617D01*
X0155762Y0101914D01*
X0154590Y0103085D01*
X0154000Y0103085D01*
X0154000Y0103864D01*
X0153904Y0104096D01*
X0161232Y0104096D01*
X0162997Y0104827D01*
X0163055Y0104886D01*
X0163946Y0104886D01*
X0165500Y0103331D01*
X0165500Y0085347D01*
X0164292Y0085848D01*
X0162708Y0085848D01*
X0161245Y0085242D01*
X0160125Y0084122D01*
X0159519Y0082659D01*
X0159519Y0081075D01*
X0160125Y0079612D01*
X0161245Y0078492D01*
X0162708Y0077886D01*
X0164292Y0077886D01*
X0165500Y0078386D01*
X0165500Y0068369D01*
X0165881Y0067451D01*
X0171500Y0061831D01*
X0171500Y0057119D01*
X0171881Y0056201D01*
X0181527Y0046554D01*
X0082000Y0103367D01*
X0082044Y0127817D01*
X0093700Y0127817D01*
X0093700Y0115917D01*
X0092822Y0115917D01*
X0091959Y0115054D01*
X0091655Y0115357D01*
X0091245Y0115594D01*
X0090787Y0115717D01*
X0088275Y0115717D01*
X0088275Y0110642D01*
X0086925Y0110642D01*
X0086925Y0115717D01*
X0084413Y0115717D01*
X0083955Y0115594D01*
X0083545Y0115357D01*
X0083210Y0115022D01*
X0082973Y0114612D01*
X0082850Y0114154D01*
X0082850Y0110642D01*
X0086925Y0110642D01*
X0086925Y0109292D01*
X0082850Y0109292D01*
X0082850Y0105780D01*
X0082973Y0105322D01*
X0083210Y0104912D01*
X0083545Y0104576D01*
X0083955Y0104339D01*
X0084413Y0104217D01*
X0086925Y0104217D01*
X0086925Y0109292D01*
X0088275Y0109292D01*
X0088275Y0104217D01*
X0090787Y0104217D01*
X0091245Y0104339D01*
X0091655Y0104576D01*
X0091959Y0104880D01*
X0092822Y0104017D01*
X0094412Y0104017D01*
X0094481Y0103851D01*
X0100381Y0097951D01*
X0101084Y0097247D01*
X0102003Y0096867D01*
X0123497Y0096867D01*
X0124416Y0097247D01*
X0129786Y0102617D01*
X0141791Y0102617D01*
X0141633Y0102526D01*
X0141298Y0102190D01*
X0141061Y0101780D01*
X0140938Y0101322D01*
X0140938Y0099301D01*
X0144719Y0099301D01*
X0144719Y0098932D01*
X0140938Y0098932D01*
X0140938Y0100444D02*
X0127613Y0100444D01*
X0129211Y0102042D02*
X0141212Y0102042D01*
X0144719Y0098845D02*
X0145088Y0098845D01*
X0145088Y0097247D02*
X0144719Y0097247D01*
X0144719Y0095648D02*
X0145088Y0095648D01*
X0148071Y0095648D02*
X0148103Y0095648D01*
X0155090Y0095648D02*
X0157971Y0095648D01*
X0162029Y0095648D02*
X0165500Y0095648D01*
X0165500Y0094050D02*
X0098322Y0094050D01*
X0095522Y0095648D02*
X0141736Y0095648D01*
X0140938Y0097247D02*
X0124415Y0097247D01*
X0130750Y0108436D02*
X0134651Y0108436D01*
X0134651Y0110035D02*
X0130750Y0110035D01*
X0130750Y0111633D02*
X0134651Y0111633D01*
X0134651Y0113232D02*
X0130750Y0113232D01*
X0130750Y0114830D02*
X0134651Y0114830D01*
X0134651Y0116429D02*
X0130750Y0116429D01*
X0130750Y0118027D02*
X0134651Y0118027D01*
X0134651Y0119626D02*
X0130750Y0119626D01*
X0117268Y0126020D02*
X0099300Y0126020D01*
X0099300Y0127619D02*
X0116750Y0127619D01*
X0116750Y0129217D02*
X0113701Y0129217D01*
X0114050Y0130816D02*
X0116750Y0130816D01*
X0116750Y0132414D02*
X0114050Y0132414D01*
X0114050Y0134013D02*
X0116750Y0134013D01*
X0116750Y0135611D02*
X0114050Y0135611D01*
X0114050Y0137210D02*
X0116750Y0137210D01*
X0117363Y0138808D02*
X0114050Y0138808D01*
X0114050Y0140407D02*
X0121250Y0140407D01*
X0121250Y0142005D02*
X0114050Y0142005D01*
X0114050Y0143604D02*
X0121250Y0143604D01*
X0121250Y0145202D02*
X0114050Y0145202D01*
X0114050Y0146801D02*
X0121250Y0146801D01*
X0121747Y0148399D02*
X0114050Y0148399D01*
X0114050Y0149998D02*
X0123000Y0149998D01*
X0123000Y0151596D02*
X0113875Y0151596D01*
X0112343Y0153195D02*
X0123000Y0153195D01*
X0123000Y0154793D02*
X0082092Y0154793D01*
X0082089Y0153195D02*
X0089157Y0153195D01*
X0087270Y0151596D02*
X0082086Y0151596D01*
X0082084Y0149998D02*
X0085671Y0149998D01*
X0084073Y0148399D02*
X0082081Y0148399D01*
X0082078Y0146801D02*
X0082474Y0146801D01*
X0084835Y0145202D02*
X0111250Y0145202D01*
X0111250Y0143604D02*
X0083237Y0143604D01*
X0081638Y0142005D02*
X0111250Y0142005D01*
X0111250Y0140407D02*
X0104648Y0140407D01*
X0104695Y0140394D02*
X0104237Y0140517D01*
X0097300Y0140517D01*
X0097300Y0135567D01*
X0095700Y0135567D01*
X0095700Y0140517D01*
X0088763Y0140517D01*
X0088305Y0140394D01*
X0087895Y0140157D01*
X0087560Y0139822D01*
X0087323Y0139412D01*
X0087200Y0138954D01*
X0087200Y0135567D01*
X0095700Y0135567D01*
X0095700Y0133967D01*
X0087200Y0133967D01*
X0087200Y0130617D01*
X0080250Y0130617D01*
X0080250Y0140617D01*
X0090250Y0150617D01*
X0111250Y0150617D01*
X0111250Y0130617D01*
X0105800Y0130617D01*
X0105800Y0133967D01*
X0097300Y0133967D01*
X0097300Y0135567D01*
X0105800Y0135567D01*
X0105800Y0138954D01*
X0105677Y0139412D01*
X0105440Y0139822D01*
X0105105Y0140157D01*
X0104695Y0140394D01*
X0105800Y0138808D02*
X0111250Y0138808D01*
X0111250Y0137210D02*
X0105800Y0137210D01*
X0105800Y0135611D02*
X0111250Y0135611D01*
X0111250Y0134013D02*
X0097300Y0134013D01*
X0096500Y0134767D02*
X0096500Y0110067D01*
X0096600Y0109967D01*
X0094690Y0103641D02*
X0082000Y0103641D01*
X0082003Y0105239D02*
X0083020Y0105239D01*
X0082850Y0106838D02*
X0082006Y0106838D01*
X0082009Y0108436D02*
X0082850Y0108436D01*
X0082012Y0110035D02*
X0086925Y0110035D01*
X0086925Y0111633D02*
X0088275Y0111633D01*
X0088275Y0113232D02*
X0086925Y0113232D01*
X0086925Y0114830D02*
X0088275Y0114830D01*
X0093700Y0116429D02*
X0082023Y0116429D01*
X0082026Y0118027D02*
X0093700Y0118027D01*
X0093700Y0119626D02*
X0082029Y0119626D01*
X0082032Y0121224D02*
X0093700Y0121224D01*
X0093700Y0122823D02*
X0082035Y0122823D01*
X0082038Y0124421D02*
X0093700Y0124421D01*
X0093700Y0126020D02*
X0082041Y0126020D01*
X0082043Y0127619D02*
X0093700Y0127619D01*
X0095700Y0134013D02*
X0080250Y0134013D01*
X0080250Y0135611D02*
X0087200Y0135611D01*
X0087200Y0137210D02*
X0080250Y0137210D01*
X0080250Y0138808D02*
X0087200Y0138808D01*
X0088352Y0140407D02*
X0080250Y0140407D01*
X0080250Y0132414D02*
X0087200Y0132414D01*
X0087200Y0130816D02*
X0080250Y0130816D01*
X0082021Y0114830D02*
X0083099Y0114830D01*
X0082850Y0113232D02*
X0082018Y0113232D01*
X0082015Y0111633D02*
X0082850Y0111633D01*
X0086925Y0108436D02*
X0088275Y0108436D01*
X0088275Y0106838D02*
X0086925Y0106838D01*
X0086925Y0105239D02*
X0088275Y0105239D01*
X0087121Y0100444D02*
X0097887Y0100444D01*
X0096289Y0102042D02*
X0084320Y0102042D01*
X0089921Y0098845D02*
X0099486Y0098845D01*
X0101085Y0097247D02*
X0092721Y0097247D01*
X0101122Y0092451D02*
X0165500Y0092451D01*
X0165500Y0090853D02*
X0103923Y0090853D01*
X0106723Y0089254D02*
X0165500Y0089254D01*
X0165500Y0087656D02*
X0109523Y0087656D01*
X0112324Y0086057D02*
X0165500Y0086057D01*
X0160462Y0084459D02*
X0115124Y0084459D01*
X0117924Y0082860D02*
X0159602Y0082860D01*
X0159519Y0081262D02*
X0120725Y0081262D01*
X0123525Y0079663D02*
X0160104Y0079663D01*
X0162276Y0078065D02*
X0126326Y0078065D01*
X0129126Y0076466D02*
X0165500Y0076466D01*
X0165500Y0074868D02*
X0131926Y0074868D01*
X0134727Y0073269D02*
X0165500Y0073269D01*
X0165500Y0071671D02*
X0137527Y0071671D01*
X0140327Y0070072D02*
X0165500Y0070072D01*
X0165500Y0068474D02*
X0143128Y0068474D01*
X0145928Y0066875D02*
X0166456Y0066875D01*
X0168055Y0065277D02*
X0148728Y0065277D01*
X0151529Y0063678D02*
X0169653Y0063678D01*
X0171252Y0062080D02*
X0154329Y0062080D01*
X0157129Y0060481D02*
X0171500Y0060481D01*
X0171500Y0058883D02*
X0159930Y0058883D01*
X0162730Y0057284D02*
X0171500Y0057284D01*
X0172396Y0055685D02*
X0165530Y0055685D01*
X0168331Y0054087D02*
X0173994Y0054087D01*
X0175593Y0052488D02*
X0171131Y0052488D01*
X0173932Y0050890D02*
X0177191Y0050890D01*
X0176732Y0049291D02*
X0178790Y0049291D01*
X0179532Y0047693D02*
X0180388Y0047693D01*
X0183607Y0045367D02*
X0213497Y0045367D01*
X0214416Y0045747D01*
X0233416Y0064747D01*
X0234119Y0065451D01*
X0234500Y0066369D01*
X0234500Y0083987D01*
X0235375Y0084862D01*
X0235981Y0086325D01*
X0235981Y0087909D01*
X0235375Y0089372D01*
X0234255Y0090492D01*
X0232792Y0091098D01*
X0231208Y0091098D01*
X0229745Y0090492D01*
X0228625Y0089372D01*
X0228019Y0087909D01*
X0228019Y0086325D01*
X0228481Y0085209D01*
X0227542Y0085598D01*
X0225958Y0085598D01*
X0224495Y0084992D01*
X0223375Y0083872D01*
X0222769Y0082409D01*
X0222769Y0080825D01*
X0223375Y0079362D01*
X0224495Y0078242D01*
X0225958Y0077636D01*
X0227542Y0077636D01*
X0229005Y0078242D01*
X0229500Y0078737D01*
X0229500Y0067902D01*
X0215481Y0053883D01*
X0215481Y0054409D01*
X0214875Y0055872D01*
X0214083Y0056664D01*
X0218119Y0060701D01*
X0218206Y0060910D01*
X0218416Y0060997D01*
X0219119Y0061701D01*
X0219500Y0062619D01*
X0219500Y0063614D01*
X0219250Y0064218D01*
X0219250Y0070364D01*
X0218869Y0071283D01*
X0218166Y0071986D01*
X0217247Y0072367D01*
X0216253Y0072367D01*
X0216003Y0072263D01*
X0215649Y0072617D01*
X0216532Y0073500D01*
X0217143Y0074974D01*
X0217369Y0075201D01*
X0217750Y0076119D01*
X0217750Y0076439D01*
X0217975Y0076982D01*
X0217975Y0080751D01*
X0217750Y0081294D01*
X0217750Y0083114D01*
X0217454Y0083829D01*
X0217545Y0083805D01*
X0219566Y0083805D01*
X0219566Y0087586D01*
X0219934Y0087586D01*
X0219934Y0083805D01*
X0221955Y0083805D01*
X0222413Y0083928D01*
X0222824Y0084165D01*
X0223159Y0084500D01*
X0223396Y0084910D01*
X0223518Y0085368D01*
X0223518Y0087586D01*
X0219934Y0087586D01*
X0219934Y0087955D01*
X0223518Y0087955D01*
X0223518Y0090173D01*
X0223396Y0090630D01*
X0223207Y0090958D01*
X0223718Y0091469D01*
X0223718Y0091963D01*
X0236247Y0091963D01*
X0237166Y0092344D01*
X0242077Y0097254D01*
X0246381Y0092951D01*
X0247084Y0092247D01*
X0248003Y0091867D01*
X0263870Y0091867D01*
X0264745Y0090992D01*
X0266208Y0090386D01*
X0267792Y0090386D01*
X0269255Y0090992D01*
X0270375Y0092112D01*
X0270981Y0093575D01*
X0270981Y0094312D01*
X0277304Y0100636D01*
X0278792Y0100636D01*
X0280255Y0101242D01*
X0281375Y0102362D01*
X0281981Y0103825D01*
X0281981Y0105409D01*
X0281375Y0106872D01*
X0280500Y0107747D01*
X0280500Y0110398D01*
X0282147Y0110398D01*
X0282500Y0110751D01*
X0282853Y0110398D01*
X0288840Y0110398D01*
X0290009Y0111567D01*
X0294242Y0111567D01*
X0295271Y0111993D01*
X0296059Y0112781D01*
X0296485Y0113810D01*
X0296485Y0118142D01*
X0299110Y0120767D01*
X0303202Y0120767D01*
X0303306Y0120810D01*
X0306401Y0120810D01*
X0307510Y0121918D01*
X0307510Y0119048D01*
X0308595Y0117963D01*
X0308405Y0117852D01*
X0308069Y0117517D01*
X0307833Y0117107D01*
X0307710Y0116649D01*
X0307710Y0113669D01*
X0312450Y0113669D01*
X0312450Y0112069D01*
X0307710Y0112069D01*
X0307710Y0109088D01*
X0307833Y0108631D01*
X0308069Y0108220D01*
X0308405Y0107885D01*
X0308815Y0107648D01*
X0309273Y0107525D01*
X0312450Y0107525D01*
X0312450Y0112069D01*
X0314050Y0112069D01*
X0314050Y0113669D01*
X0318790Y0113669D01*
X0318790Y0116649D01*
X0318667Y0117107D01*
X0318431Y0117517D01*
X0318095Y0117852D01*
X0317905Y0117963D01*
X0318990Y0119048D01*
X0318990Y0128185D01*
X0318559Y0128617D01*
X0318990Y0129048D01*
X0318990Y0138185D01*
X0317905Y0139271D01*
X0318095Y0139381D01*
X0318431Y0139716D01*
X0318667Y0140127D01*
X0318790Y0140584D01*
X0318790Y0143565D01*
X0314050Y0143565D01*
X0314050Y0145165D01*
X0312450Y0145165D01*
X0312450Y0149708D01*
X0309273Y0149708D01*
X0308815Y0149585D01*
X0308405Y0149348D01*
X0308069Y0149013D01*
X0307833Y0148603D01*
X0307710Y0148145D01*
X0307710Y0145165D01*
X0312450Y0145165D01*
X0312450Y0143565D01*
X0307710Y0143565D01*
X0307710Y0140584D01*
X0307833Y0140127D01*
X0308069Y0139716D01*
X0308405Y0139381D01*
X0308595Y0139271D01*
X0307510Y0138185D01*
X0307510Y0132756D01*
X0307373Y0132893D01*
X0307373Y0133735D01*
X0307373Y0134661D01*
X0307250Y0135119D01*
X0307013Y0135529D01*
X0306678Y0135864D01*
X0306268Y0136101D01*
X0305810Y0136224D01*
X0302817Y0136224D01*
X0302817Y0133865D01*
X0302817Y0133865D01*
X0302817Y0136224D01*
X0299824Y0136224D01*
X0299366Y0136101D01*
X0298956Y0135864D01*
X0298621Y0135529D01*
X0298384Y0135119D01*
X0298261Y0134661D01*
X0298261Y0133735D01*
X0299103Y0133735D01*
X0299103Y0133735D01*
X0298261Y0133735D01*
X0298261Y0132893D01*
X0298061Y0132693D01*
X0298061Y0131217D01*
X0296610Y0131217D01*
X0288815Y0139012D01*
X0288815Y0141861D01*
X0287643Y0143032D01*
X0282050Y0143032D01*
X0281500Y0142483D01*
X0280950Y0143032D01*
X0277524Y0143032D01*
X0277523Y0143033D01*
X0276820Y0143736D01*
X0275901Y0144117D01*
X0259286Y0144117D01*
X0258731Y0144671D01*
X0258731Y0145409D01*
X0258125Y0146872D01*
X0257005Y0147992D01*
X0255542Y0148598D01*
X0254804Y0148598D01*
X0254750Y0148652D01*
X0254750Y0158864D01*
X0254369Y0159783D01*
X0244750Y0169402D01*
X0244750Y0175114D01*
X0244369Y0176033D01*
X0221767Y0198636D01*
X0222042Y0198636D01*
X0223505Y0199242D01*
X0224625Y0200362D01*
X0225231Y0201825D01*
X0225231Y0203409D01*
X0224625Y0204872D01*
X0223958Y0205539D01*
X0229916Y0211497D01*
X0230619Y0212201D01*
X0231000Y0213119D01*
X0231000Y0232886D01*
X0231542Y0232886D01*
X0233005Y0233492D01*
X0234125Y0234612D01*
X0234731Y0236075D01*
X0234731Y0237659D01*
X0234125Y0239122D01*
X0233005Y0240242D01*
X0231542Y0240848D01*
X0229958Y0240848D01*
X0228495Y0240242D01*
X0227750Y0239497D01*
X0227750Y0241864D01*
X0227369Y0242783D01*
X0226666Y0243486D01*
X0218666Y0251486D01*
X0217747Y0251867D01*
X0216036Y0251867D01*
X0212500Y0255402D01*
X0212500Y0256117D01*
X0232214Y0256117D01*
X0233519Y0254812D01*
X0233519Y0253575D01*
X0234125Y0252112D01*
X0235245Y0250992D01*
X0236708Y0250386D01*
X0238292Y0250386D01*
X0239755Y0250992D01*
X0240875Y0252112D01*
X0241481Y0253575D01*
X0241481Y0255159D01*
X0240875Y0256622D01*
X0239755Y0257742D01*
X0238292Y0258348D01*
X0237054Y0258348D01*
X0234666Y0260736D01*
X0233747Y0261117D01*
X0190536Y0261117D01*
X0180731Y0270921D01*
X0180731Y0272159D01*
X0180125Y0273622D01*
X0179005Y0274742D01*
X0177542Y0275348D01*
X0175958Y0275348D01*
X0174495Y0274742D01*
X0173620Y0273867D01*
X0165165Y0273867D01*
X0165165Y0278317D01*
X0164616Y0278867D01*
X0165165Y0279416D01*
X0165165Y0279713D01*
X0166844Y0279713D01*
X0167763Y0280094D01*
X0177786Y0290117D01*
X0225354Y0290117D01*
X0232797Y0282674D01*
X0170343Y0282674D01*
X0171941Y0284273D02*
X0231198Y0284273D01*
X0229600Y0285871D02*
X0173540Y0285871D01*
X0175138Y0287470D02*
X0228001Y0287470D01*
X0226403Y0289068D02*
X0176737Y0289068D01*
X0172863Y0292265D02*
X0168562Y0292265D01*
X0171264Y0290667D02*
X0165769Y0290667D01*
X0162976Y0289068D02*
X0169666Y0289068D01*
X0168067Y0287470D02*
X0160182Y0287470D01*
X0157696Y0285871D02*
X0157389Y0285871D01*
X0156835Y0284273D02*
X0154596Y0284273D01*
X0156835Y0282674D02*
X0151803Y0282674D01*
X0149010Y0281076D02*
X0156835Y0281076D01*
X0156835Y0279477D02*
X0146217Y0279477D01*
X0143424Y0277879D02*
X0156835Y0277879D01*
X0156835Y0276280D02*
X0140631Y0276280D01*
X0137838Y0274682D02*
X0156835Y0274682D01*
X0156835Y0273083D02*
X0135045Y0273083D01*
X0132252Y0271485D02*
X0158500Y0271485D01*
X0156835Y0269886D02*
X0146059Y0269886D01*
X0147000Y0268288D02*
X0156835Y0268288D01*
X0156835Y0266689D02*
X0147000Y0266689D01*
X0147000Y0265090D02*
X0156835Y0265090D01*
X0157009Y0263492D02*
X0147000Y0263492D01*
X0147000Y0261893D02*
X0156835Y0261893D01*
X0156835Y0260295D02*
X0147000Y0260295D01*
X0147000Y0258696D02*
X0156835Y0258696D01*
X0157460Y0257098D02*
X0147000Y0257098D01*
X0147000Y0255499D02*
X0162485Y0255499D01*
X0164084Y0253901D02*
X0147000Y0253901D01*
X0147000Y0252302D02*
X0165682Y0252302D01*
X0165793Y0250704D02*
X0167281Y0250704D01*
X0166943Y0249105D02*
X0168879Y0249105D01*
X0170478Y0247507D02*
X0167231Y0247507D01*
X0166851Y0245908D02*
X0170750Y0245908D01*
X0170750Y0244310D02*
X0165573Y0244310D01*
X0161880Y0242711D02*
X0170750Y0242711D01*
X0170750Y0241113D02*
X0160282Y0241113D01*
X0158683Y0239514D02*
X0170750Y0239514D01*
X0169790Y0237916D02*
X0159564Y0237916D01*
X0161163Y0236317D02*
X0169269Y0236317D01*
X0169416Y0234719D02*
X0162761Y0234719D01*
X0164360Y0233120D02*
X0170366Y0233120D01*
X0173309Y0231522D02*
X0165958Y0231522D01*
X0167557Y0229923D02*
X0177398Y0229923D01*
X0178206Y0228325D02*
X0169155Y0228325D01*
X0170754Y0226726D02*
X0177815Y0226726D01*
X0177815Y0225128D02*
X0172352Y0225128D01*
X0177218Y0223529D02*
X0177815Y0223529D01*
X0178731Y0220636D02*
X0178987Y0220381D01*
X0193242Y0220381D01*
X0194413Y0221552D01*
X0194413Y0222243D01*
X0204587Y0222243D01*
X0204587Y0221552D01*
X0205758Y0220381D01*
X0220013Y0220381D01*
X0221185Y0221552D01*
X0221185Y0227933D01*
X0220566Y0228553D01*
X0221625Y0229612D01*
X0222231Y0231075D01*
X0222231Y0232659D01*
X0221625Y0234122D01*
X0220505Y0235242D01*
X0219042Y0235848D01*
X0217458Y0235848D01*
X0215995Y0235242D01*
X0214875Y0234122D01*
X0214269Y0232659D01*
X0214269Y0231075D01*
X0214683Y0230075D01*
X0213712Y0229105D01*
X0205758Y0229105D01*
X0204587Y0227933D01*
X0204587Y0227243D01*
X0194413Y0227243D01*
X0194413Y0227933D01*
X0193242Y0229105D01*
X0185287Y0229105D01*
X0179406Y0234986D01*
X0178487Y0235367D01*
X0177231Y0235367D01*
X0177231Y0236659D01*
X0176625Y0238122D01*
X0175750Y0238997D01*
X0175750Y0248768D01*
X0175369Y0249686D01*
X0165165Y0259890D01*
X0165165Y0263317D01*
X0164616Y0263867D01*
X0165165Y0264416D01*
X0165165Y0268867D01*
X0173620Y0268867D01*
X0174495Y0267992D01*
X0175958Y0267386D01*
X0177196Y0267386D01*
X0188084Y0256497D01*
X0189003Y0256117D01*
X0207500Y0256117D01*
X0207500Y0253869D01*
X0207881Y0252951D01*
X0212881Y0247951D01*
X0213584Y0247247D01*
X0214503Y0246867D01*
X0216214Y0246867D01*
X0218428Y0244653D01*
X0213267Y0244653D01*
X0213267Y0240872D01*
X0212505Y0240872D01*
X0212505Y0244653D01*
X0206350Y0244653D01*
X0205892Y0244530D01*
X0205481Y0244293D01*
X0205146Y0243958D01*
X0204909Y0243548D01*
X0204787Y0243090D01*
X0204787Y0240872D01*
X0212505Y0240872D01*
X0212505Y0240110D01*
X0213267Y0240110D01*
X0213267Y0240872D01*
X0220985Y0240872D01*
X0220985Y0242096D01*
X0222750Y0240331D01*
X0222750Y0220402D01*
X0219946Y0217598D01*
X0218708Y0217598D01*
X0217245Y0216992D01*
X0216125Y0215872D01*
X0215519Y0214409D01*
X0215519Y0213883D01*
X0214119Y0215283D01*
X0213416Y0215986D01*
X0212497Y0216367D01*
X0184130Y0216367D01*
X0183255Y0217242D01*
X0181792Y0217848D01*
X0180208Y0217848D01*
X0178745Y0217242D01*
X0177625Y0216122D01*
X0177019Y0214659D01*
X0177019Y0213075D01*
X0177625Y0211612D01*
X0178745Y0210492D01*
X0180208Y0209886D01*
X0181792Y0209886D01*
X0183255Y0210492D01*
X0184130Y0211367D01*
X0187774Y0211367D01*
X0187604Y0211073D01*
X0187481Y0210616D01*
X0187481Y0208397D01*
X0191066Y0208397D01*
X0191066Y0208029D01*
X0187481Y0208029D01*
X0187481Y0205811D01*
X0187604Y0205353D01*
X0187793Y0205026D01*
X0187281Y0204514D01*
X0187281Y0198527D01*
X0188453Y0197355D01*
X0188750Y0197355D01*
X0188750Y0192454D01*
X0188152Y0192454D01*
X0188152Y0187702D01*
X0188152Y0187702D01*
X0188152Y0192454D01*
X0187502Y0192454D01*
X0187502Y0193362D01*
X0187121Y0194281D01*
X0183619Y0197783D01*
X0182916Y0198486D01*
X0182462Y0198674D01*
X0182731Y0199325D01*
X0182731Y0200909D01*
X0182125Y0202372D01*
X0181005Y0203492D01*
X0179542Y0204098D01*
X0177958Y0204098D01*
X0176495Y0203492D01*
X0175375Y0202372D01*
X0174769Y0200909D01*
X0174769Y0199325D01*
X0175375Y0197862D01*
X0175950Y0197287D01*
X0175950Y0196602D01*
X0175584Y0196236D01*
X0174881Y0195533D01*
X0174500Y0194614D01*
X0174500Y0188902D01*
X0170834Y0185236D01*
X0170131Y0184533D01*
X0169750Y0183614D01*
X0169750Y0181367D01*
X0166550Y0181367D01*
X0171365Y0186182D01*
X0172683Y0187500D01*
X0172683Y0216914D01*
X0173958Y0216386D01*
X0175542Y0216386D01*
X0177005Y0216992D01*
X0178125Y0218112D01*
X0178731Y0219575D01*
X0178731Y0220636D01*
X0178731Y0220332D02*
X0222680Y0220332D01*
X0222750Y0221931D02*
X0221185Y0221931D01*
X0221185Y0223529D02*
X0222750Y0223529D01*
X0222750Y0225128D02*
X0221185Y0225128D01*
X0221185Y0226726D02*
X0222750Y0226726D01*
X0222750Y0228325D02*
X0220794Y0228325D01*
X0221754Y0229923D02*
X0222750Y0229923D01*
X0222750Y0231522D02*
X0222231Y0231522D01*
X0222040Y0233120D02*
X0222750Y0233120D01*
X0222750Y0234719D02*
X0221028Y0234719D01*
X0219880Y0236451D02*
X0220290Y0236688D01*
X0220625Y0237023D01*
X0220862Y0237434D01*
X0220985Y0237892D01*
X0220985Y0240110D01*
X0213267Y0240110D01*
X0213267Y0236329D01*
X0219422Y0236329D01*
X0219880Y0236451D01*
X0220985Y0237916D02*
X0222750Y0237916D01*
X0222750Y0239514D02*
X0220985Y0239514D01*
X0220985Y0241113D02*
X0221968Y0241113D01*
X0222750Y0236317D02*
X0193431Y0236317D01*
X0193242Y0236129D02*
X0194413Y0237300D01*
X0194413Y0243681D01*
X0193242Y0244853D01*
X0178987Y0244853D01*
X0177815Y0243681D01*
X0177815Y0237300D01*
X0178987Y0236129D01*
X0193242Y0236129D01*
X0194413Y0237916D02*
X0204787Y0237916D01*
X0204787Y0237892D02*
X0204909Y0237434D01*
X0205146Y0237023D01*
X0205481Y0236688D01*
X0205892Y0236451D01*
X0206350Y0236329D01*
X0212505Y0236329D01*
X0212505Y0240110D01*
X0204787Y0240110D01*
X0204787Y0237892D01*
X0204787Y0239514D02*
X0194413Y0239514D01*
X0194413Y0241113D02*
X0204787Y0241113D01*
X0204787Y0242711D02*
X0194413Y0242711D01*
X0193785Y0244310D02*
X0205510Y0244310D01*
X0212505Y0244310D02*
X0213267Y0244310D01*
X0213267Y0242711D02*
X0212505Y0242711D01*
X0212505Y0241113D02*
X0213267Y0241113D01*
X0213267Y0239514D02*
X0212505Y0239514D01*
X0212505Y0237916D02*
X0213267Y0237916D01*
X0215472Y0234719D02*
X0179674Y0234719D01*
X0178798Y0236317D02*
X0177231Y0236317D01*
X0176710Y0237916D02*
X0177815Y0237916D01*
X0177815Y0239514D02*
X0175750Y0239514D01*
X0175750Y0241113D02*
X0177815Y0241113D01*
X0177815Y0242711D02*
X0175750Y0242711D01*
X0175750Y0244310D02*
X0178443Y0244310D01*
X0175750Y0245908D02*
X0217173Y0245908D01*
X0213324Y0247507D02*
X0175750Y0247507D01*
X0175610Y0249105D02*
X0211726Y0249105D01*
X0210127Y0250704D02*
X0174352Y0250704D01*
X0172753Y0252302D02*
X0208529Y0252302D01*
X0207500Y0253901D02*
X0171155Y0253901D01*
X0169556Y0255499D02*
X0207500Y0255499D01*
X0212500Y0255499D02*
X0232832Y0255499D01*
X0233519Y0253901D02*
X0214001Y0253901D01*
X0215600Y0252302D02*
X0234046Y0252302D01*
X0235940Y0250704D02*
X0219448Y0250704D01*
X0221047Y0249105D02*
X0241703Y0249105D01*
X0240105Y0247507D02*
X0222645Y0247507D01*
X0224244Y0245908D02*
X0235661Y0245908D01*
X0235745Y0245992D02*
X0234625Y0244872D01*
X0234019Y0243409D01*
X0234019Y0241825D01*
X0234625Y0240362D01*
X0235745Y0239242D01*
X0237208Y0238636D01*
X0238792Y0238636D01*
X0240255Y0239242D01*
X0241375Y0240362D01*
X0241981Y0241825D01*
X0241981Y0242312D01*
X0248536Y0248867D01*
X0258000Y0248867D01*
X0258000Y0247538D01*
X0259172Y0246367D01*
X0280828Y0246367D01*
X0282000Y0247538D01*
X0282000Y0265914D01*
X0322250Y0243117D01*
X0321250Y0104867D01*
X0200250Y0035867D01*
X0183607Y0045367D01*
X0185133Y0044496D02*
X0215382Y0044496D01*
X0214763Y0046094D02*
X0218185Y0046094D01*
X0216362Y0047693D02*
X0220989Y0047693D01*
X0223792Y0049291D02*
X0217960Y0049291D01*
X0219559Y0050890D02*
X0226595Y0050890D01*
X0229398Y0052488D02*
X0221157Y0052488D01*
X0222756Y0054087D02*
X0232201Y0054087D01*
X0235005Y0055685D02*
X0224354Y0055685D01*
X0225953Y0057284D02*
X0237808Y0057284D01*
X0240611Y0058883D02*
X0227551Y0058883D01*
X0229150Y0060481D02*
X0243414Y0060481D01*
X0246217Y0062080D02*
X0230748Y0062080D01*
X0232347Y0063678D02*
X0249021Y0063678D01*
X0251824Y0065277D02*
X0233945Y0065277D01*
X0234500Y0066875D02*
X0254627Y0066875D01*
X0257430Y0068474D02*
X0234500Y0068474D01*
X0234500Y0070072D02*
X0260233Y0070072D01*
X0263036Y0071671D02*
X0234500Y0071671D01*
X0234500Y0073269D02*
X0265840Y0073269D01*
X0268643Y0074868D02*
X0234500Y0074868D01*
X0234500Y0076466D02*
X0271446Y0076466D01*
X0274249Y0078065D02*
X0234500Y0078065D01*
X0234500Y0079663D02*
X0277052Y0079663D01*
X0279856Y0081262D02*
X0234500Y0081262D01*
X0234500Y0082860D02*
X0282659Y0082860D01*
X0285462Y0084459D02*
X0234972Y0084459D01*
X0235870Y0086057D02*
X0288265Y0086057D01*
X0291068Y0087656D02*
X0235981Y0087656D01*
X0235424Y0089254D02*
X0293872Y0089254D01*
X0296675Y0090853D02*
X0268920Y0090853D01*
X0270516Y0092451D02*
X0299478Y0092451D01*
X0302281Y0094050D02*
X0270981Y0094050D01*
X0272317Y0095648D02*
X0290428Y0095648D01*
X0290458Y0095636D02*
X0292042Y0095636D01*
X0293505Y0096242D01*
X0294625Y0097362D01*
X0295231Y0098825D01*
X0295231Y0100409D01*
X0294625Y0101872D01*
X0293505Y0102992D01*
X0292042Y0103598D01*
X0290458Y0103598D01*
X0288995Y0102992D01*
X0287875Y0101872D01*
X0287269Y0100409D01*
X0287269Y0098825D01*
X0287875Y0097362D01*
X0288995Y0096242D01*
X0290458Y0095636D01*
X0292072Y0095648D02*
X0305084Y0095648D01*
X0307887Y0097247D02*
X0294510Y0097247D01*
X0295231Y0098845D02*
X0310691Y0098845D01*
X0313494Y0100444D02*
X0295217Y0100444D01*
X0294455Y0102042D02*
X0316297Y0102042D01*
X0319100Y0103641D02*
X0281905Y0103641D01*
X0281981Y0105239D02*
X0321253Y0105239D01*
X0321264Y0106838D02*
X0281389Y0106838D01*
X0280500Y0108436D02*
X0307945Y0108436D01*
X0307710Y0110035D02*
X0280500Y0110035D01*
X0285846Y0114367D02*
X0293685Y0114367D01*
X0293685Y0119302D01*
X0297750Y0123367D01*
X0297969Y0119626D02*
X0307510Y0119626D01*
X0307510Y0121224D02*
X0306816Y0121224D01*
X0308531Y0118027D02*
X0296485Y0118027D01*
X0296485Y0116429D02*
X0307710Y0116429D01*
X0307710Y0114830D02*
X0296485Y0114830D01*
X0296246Y0113232D02*
X0312450Y0113232D01*
X0312450Y0111633D02*
X0314050Y0111633D01*
X0314050Y0112069D02*
X0314050Y0107525D01*
X0317227Y0107525D01*
X0317685Y0107648D01*
X0318095Y0107885D01*
X0318431Y0108220D01*
X0318667Y0108631D01*
X0318790Y0109088D01*
X0318790Y0112069D01*
X0314050Y0112069D01*
X0314050Y0113232D02*
X0321311Y0113232D01*
X0321322Y0114830D02*
X0318790Y0114830D01*
X0318790Y0116429D02*
X0321334Y0116429D01*
X0321345Y0118027D02*
X0317969Y0118027D01*
X0318990Y0119626D02*
X0321357Y0119626D01*
X0321368Y0121224D02*
X0318990Y0121224D01*
X0318990Y0122823D02*
X0321380Y0122823D01*
X0321391Y0124421D02*
X0318990Y0124421D01*
X0318990Y0126020D02*
X0321403Y0126020D01*
X0321415Y0127619D02*
X0318990Y0127619D01*
X0318990Y0129217D02*
X0321426Y0129217D01*
X0321438Y0130816D02*
X0318990Y0130816D01*
X0318990Y0132414D02*
X0321449Y0132414D01*
X0321461Y0134013D02*
X0318990Y0134013D01*
X0318990Y0135611D02*
X0321472Y0135611D01*
X0321484Y0137210D02*
X0318990Y0137210D01*
X0318367Y0138808D02*
X0321496Y0138808D01*
X0321507Y0140407D02*
X0318742Y0140407D01*
X0318790Y0142005D02*
X0321519Y0142005D01*
X0321530Y0143604D02*
X0314050Y0143604D01*
X0313498Y0144117D02*
X0313250Y0144365D01*
X0313250Y0144168D01*
X0312450Y0143604D02*
X0276952Y0143604D01*
X0280828Y0146367D02*
X0282000Y0147538D01*
X0282000Y0169195D01*
X0280828Y0170367D01*
X0259172Y0170367D01*
X0258000Y0169195D01*
X0258000Y0147538D01*
X0259172Y0146367D01*
X0280828Y0146367D01*
X0281262Y0146801D02*
X0307710Y0146801D01*
X0307710Y0145202D02*
X0258731Y0145202D01*
X0258738Y0146801D02*
X0258155Y0146801D01*
X0258000Y0148399D02*
X0256022Y0148399D01*
X0254750Y0149998D02*
X0258000Y0149998D01*
X0258000Y0151596D02*
X0254750Y0151596D01*
X0254750Y0153195D02*
X0258000Y0153195D01*
X0258000Y0154793D02*
X0254750Y0154793D01*
X0254750Y0156392D02*
X0258000Y0156392D01*
X0258000Y0157990D02*
X0254750Y0157990D01*
X0254450Y0159589D02*
X0258000Y0159589D01*
X0258000Y0161187D02*
X0252965Y0161187D01*
X0251367Y0162786D02*
X0258000Y0162786D01*
X0258000Y0164384D02*
X0249768Y0164384D01*
X0248170Y0165983D02*
X0258000Y0165983D01*
X0258000Y0167581D02*
X0246571Y0167581D01*
X0244972Y0169180D02*
X0258000Y0169180D01*
X0253320Y0170684D02*
X0290617Y0170684D01*
X0306365Y0186432D01*
X0307683Y0187750D01*
X0307683Y0228984D01*
X0306365Y0230302D01*
X0291935Y0244732D01*
X0290617Y0246050D01*
X0249383Y0246050D01*
X0233635Y0230302D01*
X0232317Y0228984D01*
X0232317Y0191687D01*
X0252002Y0172002D01*
X0253320Y0170684D01*
X0253225Y0170778D02*
X0244750Y0170778D01*
X0244750Y0172377D02*
X0251627Y0172377D01*
X0250028Y0173975D02*
X0244750Y0173975D01*
X0244560Y0175574D02*
X0248430Y0175574D01*
X0246831Y0177172D02*
X0243230Y0177172D01*
X0241631Y0178771D02*
X0245233Y0178771D01*
X0243634Y0180369D02*
X0240033Y0180369D01*
X0238434Y0181968D02*
X0242036Y0181968D01*
X0240437Y0183566D02*
X0236836Y0183566D01*
X0235237Y0185165D02*
X0238839Y0185165D01*
X0237240Y0186763D02*
X0233639Y0186763D01*
X0232040Y0188362D02*
X0235642Y0188362D01*
X0234043Y0189960D02*
X0230442Y0189960D01*
X0228843Y0191559D02*
X0232445Y0191559D01*
X0232317Y0193157D02*
X0227245Y0193157D01*
X0225646Y0194756D02*
X0232317Y0194756D01*
X0232317Y0196354D02*
X0224048Y0196354D01*
X0222449Y0197953D02*
X0232317Y0197953D01*
X0232317Y0199552D02*
X0223815Y0199552D01*
X0224952Y0201150D02*
X0232317Y0201150D01*
X0232317Y0202749D02*
X0225231Y0202749D01*
X0224842Y0204347D02*
X0232317Y0204347D01*
X0232317Y0205946D02*
X0224364Y0205946D01*
X0225963Y0207544D02*
X0232317Y0207544D01*
X0232317Y0209143D02*
X0227561Y0209143D01*
X0229160Y0210741D02*
X0232317Y0210741D01*
X0232317Y0212340D02*
X0230677Y0212340D01*
X0231000Y0213938D02*
X0232317Y0213938D01*
X0232317Y0215537D02*
X0231000Y0215537D01*
X0231000Y0217135D02*
X0232317Y0217135D01*
X0232317Y0218734D02*
X0231000Y0218734D01*
X0231000Y0220332D02*
X0232317Y0220332D01*
X0232317Y0221931D02*
X0231000Y0221931D01*
X0231000Y0223529D02*
X0232317Y0223529D01*
X0232317Y0225128D02*
X0231000Y0225128D01*
X0231000Y0226726D02*
X0232317Y0226726D01*
X0232317Y0228325D02*
X0231000Y0228325D01*
X0231000Y0229923D02*
X0233256Y0229923D01*
X0234855Y0231522D02*
X0231000Y0231522D01*
X0232108Y0233120D02*
X0236453Y0233120D01*
X0238052Y0234719D02*
X0234169Y0234719D01*
X0234731Y0236317D02*
X0239650Y0236317D01*
X0241249Y0237916D02*
X0234625Y0237916D01*
X0235472Y0239514D02*
X0233733Y0239514D01*
X0234314Y0241113D02*
X0227750Y0241113D01*
X0227750Y0239514D02*
X0227767Y0239514D01*
X0227399Y0242711D02*
X0234019Y0242711D01*
X0234392Y0244310D02*
X0225842Y0244310D01*
X0235745Y0245992D02*
X0237208Y0246598D01*
X0238792Y0246598D01*
X0239077Y0246480D01*
X0245381Y0252783D01*
X0246084Y0253486D01*
X0247003Y0253867D01*
X0258000Y0253867D01*
X0258000Y0269195D01*
X0259172Y0270367D01*
X0274138Y0270367D01*
X0211065Y0306091D01*
X0211131Y0305933D01*
X0211131Y0302301D01*
X0209741Y0298945D01*
X0207172Y0296376D01*
X0204132Y0295117D01*
X0226887Y0295117D01*
X0227806Y0294736D01*
X0236333Y0286209D01*
X0241531Y0286209D01*
X0242703Y0285038D01*
X0242703Y0277475D01*
X0241531Y0276304D01*
X0233969Y0276304D01*
X0232797Y0277475D01*
X0232797Y0282674D01*
X0232797Y0281076D02*
X0168744Y0281076D01*
X0165165Y0279477D02*
X0232797Y0279477D01*
X0232797Y0277879D02*
X0165165Y0277879D01*
X0165165Y0276280D02*
X0263698Y0276280D01*
X0266520Y0274682D02*
X0179065Y0274682D01*
X0180348Y0273083D02*
X0269342Y0273083D01*
X0272165Y0271485D02*
X0242172Y0271485D01*
X0242143Y0271535D02*
X0241808Y0271870D01*
X0241398Y0272107D01*
X0240940Y0272230D01*
X0238426Y0272230D01*
X0238426Y0268153D01*
X0237074Y0268153D01*
X0237074Y0266801D01*
X0232997Y0266801D01*
X0232997Y0264287D01*
X0233120Y0263829D01*
X0233357Y0263419D01*
X0233692Y0263084D01*
X0234102Y0262847D01*
X0234560Y0262724D01*
X0237074Y0262724D01*
X0237074Y0266801D01*
X0238426Y0266801D01*
X0238426Y0268153D01*
X0242503Y0268153D01*
X0242503Y0270667D01*
X0242380Y0271125D01*
X0242143Y0271535D01*
X0242503Y0269886D02*
X0258691Y0269886D01*
X0258000Y0268288D02*
X0242503Y0268288D01*
X0242503Y0266801D02*
X0238426Y0266801D01*
X0238426Y0262724D01*
X0240940Y0262724D01*
X0241398Y0262847D01*
X0241808Y0263084D01*
X0242143Y0263419D01*
X0242380Y0263829D01*
X0242503Y0264287D01*
X0242503Y0266801D01*
X0242503Y0266689D02*
X0258000Y0266689D01*
X0258000Y0265090D02*
X0242503Y0265090D01*
X0242185Y0263492D02*
X0258000Y0263492D01*
X0258000Y0261893D02*
X0189759Y0261893D01*
X0188160Y0263492D02*
X0233315Y0263492D01*
X0232997Y0265090D02*
X0186562Y0265090D01*
X0184963Y0266689D02*
X0232997Y0266689D01*
X0232997Y0268153D02*
X0237074Y0268153D01*
X0237074Y0272230D01*
X0234560Y0272230D01*
X0234102Y0272107D01*
X0233692Y0271870D01*
X0233357Y0271535D01*
X0233120Y0271125D01*
X0232997Y0270667D01*
X0232997Y0268153D01*
X0232997Y0268288D02*
X0183365Y0268288D01*
X0181766Y0269886D02*
X0232997Y0269886D01*
X0233328Y0271485D02*
X0180731Y0271485D01*
X0177892Y0266689D02*
X0165165Y0266689D01*
X0165165Y0268288D02*
X0174199Y0268288D01*
X0179491Y0265090D02*
X0165165Y0265090D01*
X0164991Y0263492D02*
X0181089Y0263492D01*
X0182688Y0261893D02*
X0165165Y0261893D01*
X0165165Y0260295D02*
X0184286Y0260295D01*
X0185885Y0258696D02*
X0166359Y0258696D01*
X0167958Y0257098D02*
X0187483Y0257098D01*
X0174435Y0274682D02*
X0165165Y0274682D01*
X0164304Y0285871D02*
X0166469Y0285871D01*
X0171355Y0293864D02*
X0174461Y0293864D01*
X0174148Y0295462D02*
X0199034Y0295462D01*
X0196143Y0297061D02*
X0176941Y0297061D01*
X0179734Y0298659D02*
X0194545Y0298659D01*
X0193715Y0300258D02*
X0182527Y0300258D01*
X0185320Y0301856D02*
X0193053Y0301856D01*
X0192869Y0303455D02*
X0188113Y0303455D01*
X0190906Y0305053D02*
X0192869Y0305053D01*
X0204966Y0295462D02*
X0229831Y0295462D01*
X0228678Y0293864D02*
X0232653Y0293864D01*
X0230277Y0292265D02*
X0235475Y0292265D01*
X0238297Y0290667D02*
X0231875Y0290667D01*
X0233474Y0289068D02*
X0241120Y0289068D01*
X0243942Y0287470D02*
X0235072Y0287470D01*
X0241869Y0285871D02*
X0246764Y0285871D01*
X0249587Y0284273D02*
X0242703Y0284273D01*
X0242703Y0282674D02*
X0252409Y0282674D01*
X0255231Y0281076D02*
X0242703Y0281076D01*
X0242703Y0279477D02*
X0258053Y0279477D01*
X0260876Y0277879D02*
X0242703Y0277879D01*
X0238426Y0271485D02*
X0237074Y0271485D01*
X0237074Y0269886D02*
X0238426Y0269886D01*
X0238426Y0268288D02*
X0237074Y0268288D01*
X0237074Y0266689D02*
X0238426Y0266689D01*
X0238426Y0265090D02*
X0237074Y0265090D01*
X0237074Y0263492D02*
X0238426Y0263492D01*
X0235107Y0260295D02*
X0258000Y0260295D01*
X0258000Y0258696D02*
X0236706Y0258696D01*
X0240399Y0257098D02*
X0258000Y0257098D01*
X0258000Y0255499D02*
X0241340Y0255499D01*
X0241481Y0253901D02*
X0258000Y0253901D01*
X0258031Y0247507D02*
X0247176Y0247507D01*
X0245577Y0245908D02*
X0249241Y0245908D01*
X0247643Y0244310D02*
X0243979Y0244310D01*
X0242380Y0242711D02*
X0246044Y0242711D01*
X0244446Y0241113D02*
X0241686Y0241113D01*
X0240528Y0239514D02*
X0242847Y0239514D01*
X0243302Y0250704D02*
X0239060Y0250704D01*
X0240954Y0252302D02*
X0244900Y0252302D01*
X0214460Y0233120D02*
X0181272Y0233120D01*
X0182871Y0231522D02*
X0214269Y0231522D01*
X0214531Y0229923D02*
X0184469Y0229923D01*
X0194022Y0228325D02*
X0204978Y0228325D01*
X0204587Y0221931D02*
X0194413Y0221931D01*
X0183362Y0217135D02*
X0217591Y0217135D01*
X0215986Y0215537D02*
X0213866Y0215537D01*
X0215464Y0213938D02*
X0215519Y0213938D01*
X0211590Y0210741D02*
X0204403Y0210741D01*
X0205005Y0210492D02*
X0203542Y0211098D01*
X0201958Y0211098D01*
X0200495Y0210492D01*
X0199375Y0209372D01*
X0198769Y0207909D01*
X0198769Y0206325D01*
X0199375Y0204862D01*
X0200495Y0203742D01*
X0201958Y0203136D01*
X0203542Y0203136D01*
X0203979Y0203317D01*
X0204307Y0203317D01*
X0205031Y0203617D01*
X0208900Y0203617D01*
X0207995Y0203242D01*
X0206875Y0202122D01*
X0206269Y0200659D01*
X0206269Y0199075D01*
X0206875Y0197612D01*
X0207699Y0196788D01*
X0207699Y0192654D01*
X0193750Y0192654D01*
X0193750Y0197355D01*
X0194047Y0197355D01*
X0195218Y0198527D01*
X0195218Y0204514D01*
X0194707Y0205026D01*
X0194896Y0205353D01*
X0195018Y0205811D01*
X0195018Y0208029D01*
X0191434Y0208029D01*
X0191434Y0208397D01*
X0195018Y0208397D01*
X0195018Y0210616D01*
X0194896Y0211073D01*
X0194726Y0211367D01*
X0210964Y0211367D01*
X0213714Y0208617D01*
X0206438Y0208617D01*
X0206125Y0209372D01*
X0205005Y0210492D01*
X0206220Y0209143D02*
X0213189Y0209143D01*
X0207502Y0202749D02*
X0195218Y0202749D01*
X0195218Y0204347D02*
X0199890Y0204347D01*
X0198926Y0205946D02*
X0195018Y0205946D01*
X0195018Y0207544D02*
X0198769Y0207544D01*
X0199280Y0209143D02*
X0195018Y0209143D01*
X0194985Y0210741D02*
X0201097Y0210741D01*
X0202750Y0207117D02*
X0203750Y0206117D01*
X0206472Y0201150D02*
X0195218Y0201150D01*
X0195218Y0199552D02*
X0206269Y0199552D01*
X0206734Y0197953D02*
X0194645Y0197953D01*
X0193750Y0196354D02*
X0207699Y0196354D01*
X0207699Y0194756D02*
X0193750Y0194756D01*
X0193750Y0193157D02*
X0207699Y0193157D01*
X0212699Y0193157D02*
X0213998Y0193157D01*
X0213998Y0192454D02*
X0213348Y0192454D01*
X0212699Y0192454D01*
X0212699Y0196685D01*
X0212759Y0196745D01*
X0212881Y0196451D01*
X0213584Y0195747D01*
X0214000Y0195331D01*
X0214000Y0195117D01*
X0213998Y0195112D01*
X0213998Y0192454D01*
X0213348Y0192454D02*
X0213348Y0187702D01*
X0213348Y0192454D01*
X0213348Y0191559D02*
X0213348Y0191559D01*
X0213348Y0189960D02*
X0213348Y0189960D01*
X0213348Y0188362D02*
X0213348Y0188362D01*
X0213348Y0187702D02*
X0213348Y0187702D01*
X0213348Y0187701D02*
X0213348Y0187701D01*
X0213348Y0182949D01*
X0212211Y0182949D01*
X0212011Y0182749D01*
X0189488Y0182749D01*
X0189288Y0182949D01*
X0188152Y0182949D01*
X0188152Y0187701D01*
X0188152Y0187701D01*
X0188152Y0182949D01*
X0187015Y0182949D01*
X0186815Y0182749D01*
X0183189Y0182749D01*
X0182018Y0183920D01*
X0182018Y0191483D01*
X0182433Y0191898D01*
X0180484Y0193847D01*
X0180112Y0193693D01*
X0179500Y0193081D01*
X0179500Y0187369D01*
X0179119Y0186451D01*
X0176268Y0183599D01*
X0181697Y0183599D01*
X0182868Y0182427D01*
X0182868Y0169353D01*
X0182668Y0169153D01*
X0182668Y0168016D01*
X0177915Y0168016D01*
X0173163Y0168016D01*
X0173163Y0167367D01*
X0167753Y0167367D01*
X0166834Y0166986D01*
X0166131Y0166283D01*
X0162218Y0162371D01*
X0162218Y0162707D01*
X0161047Y0163879D01*
X0155453Y0163879D01*
X0154281Y0162707D01*
X0154281Y0158465D01*
X0153255Y0159492D01*
X0152750Y0159701D01*
X0152750Y0164617D01*
X0154747Y0164617D01*
X0155666Y0164997D01*
X0156666Y0165997D01*
X0157097Y0166429D01*
X0157125Y0166362D01*
X0158245Y0165242D01*
X0159708Y0164636D01*
X0161292Y0164636D01*
X0162755Y0165242D01*
X0163875Y0166362D01*
X0164481Y0167825D01*
X0164481Y0169062D01*
X0166519Y0171100D01*
X0166519Y0170575D01*
X0167125Y0169112D01*
X0168245Y0167992D01*
X0169708Y0167386D01*
X0171292Y0167386D01*
X0172755Y0167992D01*
X0173163Y0168399D01*
X0173163Y0168016D01*
X0177915Y0168016D01*
X0177915Y0168016D01*
X0177915Y0168016D01*
X0182668Y0168016D01*
X0182668Y0166879D01*
X0182868Y0166679D01*
X0182868Y0147306D01*
X0181697Y0146134D01*
X0180415Y0146134D01*
X0180415Y0142986D01*
X0181005Y0142742D01*
X0182018Y0141729D01*
X0182018Y0145813D01*
X0183189Y0146985D01*
X0193114Y0146985D01*
X0193314Y0146785D01*
X0194451Y0146785D01*
X0194451Y0142032D01*
X0194500Y0141983D01*
X0194451Y0142032D02*
X0194451Y0142032D01*
X0194451Y0146785D01*
X0195588Y0146785D01*
X0195788Y0146985D01*
X0218311Y0146985D01*
X0219482Y0145813D01*
X0219482Y0138385D01*
X0220738Y0139640D01*
X0220738Y0140414D01*
X0221910Y0141585D01*
X0227897Y0141585D01*
X0228409Y0141074D01*
X0228736Y0141263D01*
X0229194Y0141385D01*
X0231412Y0141385D01*
X0231412Y0137801D01*
X0231781Y0137801D01*
X0231781Y0141385D01*
X0233750Y0141385D01*
X0233750Y0142081D01*
X0232696Y0143136D01*
X0231458Y0143136D01*
X0229995Y0143742D01*
X0228875Y0144862D01*
X0228269Y0146325D01*
X0228269Y0147642D01*
X0228215Y0147440D01*
X0227978Y0147029D01*
X0227643Y0146694D01*
X0227232Y0146457D01*
X0226774Y0146334D01*
X0223585Y0146334D01*
X0223585Y0149119D01*
X0228337Y0149119D01*
X0228337Y0149867D01*
X0229370Y0149867D01*
X0228875Y0149372D01*
X0228337Y0148074D01*
X0228337Y0149119D01*
X0223585Y0149119D01*
X0223585Y0149119D01*
X0223585Y0149119D01*
X0223585Y0149119D01*
X0218832Y0149119D01*
X0218832Y0150256D01*
X0218632Y0150456D01*
X0218632Y0179278D01*
X0218832Y0179478D01*
X0218832Y0180615D01*
X0223585Y0180615D01*
X0228337Y0180615D01*
X0228337Y0181836D01*
X0228215Y0182294D01*
X0227978Y0182704D01*
X0227643Y0183039D01*
X0227232Y0183276D01*
X0226774Y0183399D01*
X0223585Y0183399D01*
X0223585Y0180615D01*
X0223585Y0180615D01*
X0223585Y0180615D01*
X0228337Y0180615D01*
X0228337Y0179478D01*
X0228537Y0179278D01*
X0228537Y0175652D01*
X0228537Y0173666D01*
X0234419Y0173666D01*
X0234745Y0173992D01*
X0236208Y0174598D01*
X0237792Y0174598D01*
X0239255Y0173992D01*
X0239750Y0173497D01*
X0239750Y0173581D01*
X0219000Y0194331D01*
X0219000Y0194119D01*
X0218998Y0194115D01*
X0218998Y0191967D01*
X0219482Y0191483D01*
X0219482Y0183920D01*
X0218311Y0182749D01*
X0214685Y0182749D01*
X0214485Y0182949D01*
X0213348Y0182949D01*
X0213348Y0187701D01*
X0213348Y0186763D02*
X0213348Y0186763D01*
X0213348Y0185165D02*
X0213348Y0185165D01*
X0213348Y0183566D02*
X0213348Y0183566D01*
X0218250Y0182367D02*
X0218250Y0147367D01*
X0183500Y0147367D01*
X0183500Y0182367D01*
X0218250Y0182367D01*
X0218250Y0181968D02*
X0183500Y0181968D01*
X0182868Y0181968D02*
X0218867Y0181968D01*
X0218832Y0181836D02*
X0218832Y0180615D01*
X0223585Y0180615D01*
X0223585Y0183399D01*
X0220395Y0183399D01*
X0219937Y0183276D01*
X0219527Y0183039D01*
X0219192Y0182704D01*
X0218955Y0182294D01*
X0218832Y0181836D01*
X0218832Y0180369D02*
X0182868Y0180369D01*
X0183500Y0180369D02*
X0218250Y0180369D01*
X0218250Y0178771D02*
X0183500Y0178771D01*
X0182868Y0178771D02*
X0218632Y0178771D01*
X0218632Y0177172D02*
X0182868Y0177172D01*
X0183500Y0177172D02*
X0218250Y0177172D01*
X0218250Y0175574D02*
X0183500Y0175574D01*
X0182868Y0175574D02*
X0218632Y0175574D01*
X0218632Y0173975D02*
X0182868Y0173975D01*
X0183500Y0173975D02*
X0218250Y0173975D01*
X0218250Y0172377D02*
X0183500Y0172377D01*
X0182868Y0172377D02*
X0218632Y0172377D01*
X0218632Y0170778D02*
X0182868Y0170778D01*
X0183500Y0170778D02*
X0218250Y0170778D01*
X0218250Y0169180D02*
X0183500Y0169180D01*
X0182695Y0169180D02*
X0218632Y0169180D01*
X0218632Y0167581D02*
X0182668Y0167581D01*
X0183500Y0167581D02*
X0218250Y0167581D01*
X0218250Y0165983D02*
X0183500Y0165983D01*
X0182868Y0165983D02*
X0218632Y0165983D01*
X0218632Y0164384D02*
X0182868Y0164384D01*
X0183500Y0164384D02*
X0218250Y0164384D01*
X0218250Y0162786D02*
X0183500Y0162786D01*
X0182868Y0162786D02*
X0218632Y0162786D01*
X0218632Y0161187D02*
X0182868Y0161187D01*
X0183500Y0161187D02*
X0218250Y0161187D01*
X0218250Y0159589D02*
X0183500Y0159589D01*
X0182868Y0159589D02*
X0218632Y0159589D01*
X0218632Y0157990D02*
X0182868Y0157990D01*
X0183500Y0157990D02*
X0218250Y0157990D01*
X0218250Y0156392D02*
X0183500Y0156392D01*
X0182868Y0156392D02*
X0218632Y0156392D01*
X0218632Y0154793D02*
X0182868Y0154793D01*
X0183500Y0154793D02*
X0218250Y0154793D01*
X0218250Y0153195D02*
X0183500Y0153195D01*
X0182868Y0153195D02*
X0218632Y0153195D01*
X0218632Y0151596D02*
X0182868Y0151596D01*
X0183500Y0151596D02*
X0218250Y0151596D01*
X0218250Y0149998D02*
X0183500Y0149998D01*
X0182868Y0149998D02*
X0218832Y0149998D01*
X0218832Y0149119D02*
X0218832Y0147897D01*
X0218955Y0147440D01*
X0219192Y0147029D01*
X0219527Y0146694D01*
X0219937Y0146457D01*
X0220395Y0146334D01*
X0223585Y0146334D01*
X0223585Y0149119D01*
X0218832Y0149119D01*
X0218832Y0148399D02*
X0182868Y0148399D01*
X0183500Y0148399D02*
X0218250Y0148399D01*
X0218495Y0146801D02*
X0219420Y0146801D01*
X0219482Y0145202D02*
X0228734Y0145202D01*
X0228269Y0146801D02*
X0227749Y0146801D01*
X0228337Y0148399D02*
X0228472Y0148399D01*
X0223585Y0148399D02*
X0223585Y0148399D01*
X0223585Y0146801D02*
X0223585Y0146801D01*
X0219482Y0143604D02*
X0230328Y0143604D01*
X0231412Y0140407D02*
X0231781Y0140407D01*
X0231781Y0138808D02*
X0231412Y0138808D01*
X0231412Y0137432D02*
X0231781Y0137432D01*
X0231781Y0133848D01*
X0233750Y0133848D01*
X0233750Y0127953D01*
X0232730Y0127953D01*
X0232730Y0128634D01*
X0232350Y0129553D01*
X0229500Y0132402D01*
X0229500Y0133848D01*
X0231412Y0133848D01*
X0231412Y0137432D01*
X0231412Y0137210D02*
X0231781Y0137210D01*
X0231781Y0135611D02*
X0231412Y0135611D01*
X0231412Y0134013D02*
X0231781Y0134013D01*
X0233750Y0132414D02*
X0229500Y0132414D01*
X0231087Y0130816D02*
X0233750Y0130816D01*
X0233750Y0129217D02*
X0232489Y0129217D01*
X0226878Y0127953D02*
X0226252Y0127953D01*
X0225081Y0126782D01*
X0225081Y0120007D01*
X0226221Y0118867D01*
X0225081Y0117727D01*
X0225081Y0110952D01*
X0226252Y0109780D01*
X0233750Y0109780D01*
X0233750Y0106152D01*
X0229464Y0101867D01*
X0225745Y0101867D01*
X0225939Y0102203D01*
X0226062Y0102661D01*
X0226062Y0104682D01*
X0222281Y0104682D01*
X0222281Y0105051D01*
X0226062Y0105051D01*
X0226062Y0107072D01*
X0225939Y0107530D01*
X0225702Y0107940D01*
X0225367Y0108276D01*
X0224957Y0108513D01*
X0224499Y0108635D01*
X0222281Y0108635D01*
X0222281Y0105051D01*
X0221912Y0105051D01*
X0221912Y0108635D01*
X0219694Y0108635D01*
X0219236Y0108513D01*
X0218909Y0108324D01*
X0218397Y0108835D01*
X0217904Y0108835D01*
X0217904Y0109780D01*
X0219248Y0109780D01*
X0220419Y0110952D01*
X0220419Y0117727D01*
X0219279Y0118867D01*
X0220419Y0120007D01*
X0220419Y0126782D01*
X0219248Y0127953D01*
X0211292Y0127953D01*
X0210120Y0126782D01*
X0210120Y0120007D01*
X0211260Y0118867D01*
X0210120Y0117727D01*
X0210120Y0117367D01*
X0209286Y0117367D01*
X0206500Y0120152D01*
X0206500Y0130114D01*
X0206395Y0130367D01*
X0217997Y0130367D01*
X0218916Y0130747D01*
X0219619Y0131451D01*
X0221863Y0133695D01*
X0221910Y0133648D01*
X0224500Y0133648D01*
X0224500Y0130869D01*
X0224881Y0129951D01*
X0225584Y0129247D01*
X0226878Y0127953D01*
X0225917Y0127619D02*
X0219583Y0127619D01*
X0220419Y0126020D02*
X0225081Y0126020D01*
X0225081Y0124421D02*
X0220419Y0124421D01*
X0220419Y0122823D02*
X0225081Y0122823D01*
X0225081Y0121224D02*
X0220419Y0121224D01*
X0220038Y0119626D02*
X0225462Y0119626D01*
X0225381Y0118027D02*
X0220119Y0118027D01*
X0220419Y0116429D02*
X0225081Y0116429D01*
X0225081Y0114830D02*
X0220419Y0114830D01*
X0220419Y0113232D02*
X0225081Y0113232D01*
X0225081Y0111633D02*
X0220419Y0111633D01*
X0219502Y0110035D02*
X0225998Y0110035D01*
X0225089Y0108436D02*
X0233750Y0108436D01*
X0233750Y0106838D02*
X0226062Y0106838D01*
X0226062Y0105239D02*
X0232837Y0105239D01*
X0231239Y0103641D02*
X0226062Y0103641D01*
X0225846Y0102042D02*
X0229640Y0102042D01*
X0222281Y0105239D02*
X0221912Y0105239D01*
X0221912Y0106838D02*
X0222281Y0106838D01*
X0222281Y0108436D02*
X0221912Y0108436D01*
X0219104Y0108436D02*
X0218796Y0108436D01*
X0210421Y0118027D02*
X0208625Y0118027D01*
X0207026Y0119626D02*
X0210501Y0119626D01*
X0210120Y0121224D02*
X0206500Y0121224D01*
X0206500Y0122823D02*
X0210120Y0122823D01*
X0210120Y0124421D02*
X0206500Y0124421D01*
X0206500Y0126020D02*
X0210120Y0126020D01*
X0210957Y0127619D02*
X0206500Y0127619D01*
X0206500Y0129217D02*
X0225614Y0129217D01*
X0224522Y0130816D02*
X0218984Y0130816D01*
X0220583Y0132414D02*
X0224500Y0132414D01*
X0219906Y0138808D02*
X0219482Y0138808D01*
X0219482Y0140407D02*
X0220738Y0140407D01*
X0219482Y0142005D02*
X0233750Y0142005D01*
X0234728Y0173975D02*
X0228537Y0173975D01*
X0228537Y0175574D02*
X0237757Y0175574D01*
X0239272Y0173975D02*
X0239356Y0173975D01*
X0236159Y0177172D02*
X0228537Y0177172D01*
X0228537Y0178771D02*
X0234560Y0178771D01*
X0232962Y0180369D02*
X0228337Y0180369D01*
X0228302Y0181968D02*
X0231363Y0181968D01*
X0229765Y0183566D02*
X0219128Y0183566D01*
X0219482Y0185165D02*
X0228166Y0185165D01*
X0226568Y0186763D02*
X0219482Y0186763D01*
X0219482Y0188362D02*
X0224969Y0188362D01*
X0223371Y0189960D02*
X0219482Y0189960D01*
X0219406Y0191559D02*
X0221772Y0191559D01*
X0220174Y0193157D02*
X0218998Y0193157D01*
X0213998Y0194756D02*
X0212699Y0194756D01*
X0212699Y0196354D02*
X0212977Y0196354D01*
X0223585Y0181968D02*
X0223585Y0181968D01*
X0223585Y0180615D02*
X0223585Y0180615D01*
X0188152Y0183566D02*
X0188152Y0183566D01*
X0188152Y0185165D02*
X0188152Y0185165D01*
X0188152Y0186763D02*
X0188152Y0186763D01*
X0188152Y0188362D02*
X0188152Y0188362D01*
X0188152Y0189960D02*
X0188152Y0189960D01*
X0188152Y0191559D02*
X0188152Y0191559D01*
X0188750Y0193157D02*
X0187502Y0193157D01*
X0186646Y0194756D02*
X0188750Y0194756D01*
X0188750Y0196354D02*
X0185048Y0196354D01*
X0183449Y0197953D02*
X0187855Y0197953D01*
X0187281Y0199552D02*
X0182731Y0199552D01*
X0182631Y0201150D02*
X0187281Y0201150D01*
X0187281Y0202749D02*
X0181748Y0202749D01*
X0178750Y0200117D02*
X0178750Y0196867D01*
X0179250Y0196367D01*
X0179576Y0193157D02*
X0181174Y0193157D01*
X0182094Y0191559D02*
X0179500Y0191559D01*
X0179500Y0189960D02*
X0182018Y0189960D01*
X0182018Y0188362D02*
X0179500Y0188362D01*
X0179249Y0186763D02*
X0182018Y0186763D01*
X0182018Y0185165D02*
X0177834Y0185165D01*
X0181729Y0183566D02*
X0182372Y0183566D01*
X0173960Y0188362D02*
X0172683Y0188362D01*
X0172683Y0189960D02*
X0174500Y0189960D01*
X0174500Y0191559D02*
X0172683Y0191559D01*
X0172683Y0193157D02*
X0174500Y0193157D01*
X0174559Y0194756D02*
X0172683Y0194756D01*
X0172683Y0196354D02*
X0175702Y0196354D01*
X0175337Y0197953D02*
X0172683Y0197953D01*
X0172683Y0199552D02*
X0174769Y0199552D01*
X0174869Y0201150D02*
X0172683Y0201150D01*
X0172683Y0202749D02*
X0175752Y0202749D01*
X0172683Y0204347D02*
X0187281Y0204347D01*
X0187481Y0205946D02*
X0172683Y0205946D01*
X0172683Y0207544D02*
X0187481Y0207544D01*
X0187481Y0209143D02*
X0172683Y0209143D01*
X0172683Y0210741D02*
X0178496Y0210741D01*
X0177323Y0212340D02*
X0172683Y0212340D01*
X0172683Y0213938D02*
X0177019Y0213938D01*
X0177383Y0215537D02*
X0172683Y0215537D01*
X0177148Y0217135D02*
X0178638Y0217135D01*
X0178383Y0218734D02*
X0221081Y0218734D01*
X0187515Y0210741D02*
X0183504Y0210741D01*
X0172361Y0186763D02*
X0171947Y0186763D01*
X0170763Y0185165D02*
X0170348Y0185165D01*
X0169750Y0183566D02*
X0168750Y0183566D01*
X0169750Y0181968D02*
X0167151Y0181968D01*
X0166519Y0170778D02*
X0166197Y0170778D01*
X0167097Y0169180D02*
X0164599Y0169180D01*
X0164380Y0167581D02*
X0169236Y0167581D01*
X0171764Y0167581D02*
X0173163Y0167581D01*
X0165830Y0165983D02*
X0163496Y0165983D01*
X0164232Y0164384D02*
X0152750Y0164384D01*
X0152750Y0162786D02*
X0154360Y0162786D01*
X0154281Y0161187D02*
X0152750Y0161187D01*
X0153021Y0159589D02*
X0154281Y0159589D01*
X0147750Y0159589D02*
X0147000Y0159589D01*
X0147000Y0161187D02*
X0147750Y0161187D01*
X0147750Y0162786D02*
X0147000Y0162786D01*
X0147000Y0164384D02*
X0147750Y0164384D01*
X0147750Y0165983D02*
X0147000Y0165983D01*
X0147000Y0167581D02*
X0148179Y0167581D01*
X0146765Y0169180D02*
X0149778Y0169180D01*
X0156652Y0165983D02*
X0157504Y0165983D01*
X0162140Y0162786D02*
X0162633Y0162786D01*
X0158066Y0153195D02*
X0153708Y0153195D01*
X0154481Y0152836D02*
X0154481Y0150618D01*
X0154604Y0150160D01*
X0154841Y0149750D01*
X0155176Y0149415D01*
X0155587Y0149178D01*
X0156045Y0149055D01*
X0158066Y0149055D01*
X0158066Y0152836D01*
X0154481Y0152836D01*
X0154481Y0151596D02*
X0147000Y0151596D01*
X0147000Y0149998D02*
X0154698Y0149998D01*
X0158066Y0149998D02*
X0158434Y0149998D01*
X0158434Y0151596D02*
X0158066Y0151596D01*
X0160750Y0148399D02*
X0147000Y0148399D01*
X0146512Y0146801D02*
X0160750Y0146801D01*
X0160750Y0145202D02*
X0126250Y0145202D01*
X0126250Y0143604D02*
X0160750Y0143604D01*
X0148292Y0153195D02*
X0147000Y0153195D01*
X0147000Y0154793D02*
X0147239Y0154793D01*
X0147019Y0156392D02*
X0147000Y0156392D01*
X0147000Y0157990D02*
X0147467Y0157990D01*
X0136884Y0142005D02*
X0126250Y0142005D01*
X0126250Y0140407D02*
X0135305Y0140407D01*
X0134651Y0138808D02*
X0130137Y0138808D01*
X0130750Y0137210D02*
X0134651Y0137210D01*
X0134651Y0135611D02*
X0130750Y0135611D01*
X0130750Y0134013D02*
X0134651Y0134013D01*
X0111250Y0132414D02*
X0105800Y0132414D01*
X0105800Y0130816D02*
X0111250Y0130816D01*
X0097300Y0135611D02*
X0095700Y0135611D01*
X0095700Y0137210D02*
X0097300Y0137210D01*
X0097300Y0138808D02*
X0095700Y0138808D01*
X0095700Y0140407D02*
X0097300Y0140407D01*
X0088032Y0148399D02*
X0111250Y0148399D01*
X0111250Y0146801D02*
X0086434Y0146801D01*
X0089631Y0149998D02*
X0111250Y0149998D01*
X0106505Y0155742D02*
X0105042Y0155136D01*
X0103458Y0155136D01*
X0101995Y0155742D01*
X0100875Y0156862D01*
X0100269Y0158325D01*
X0100269Y0159909D01*
X0100875Y0161372D01*
X0101995Y0162492D01*
X0103458Y0163098D01*
X0105042Y0163098D01*
X0106505Y0162492D01*
X0107625Y0161372D01*
X0108231Y0159909D01*
X0108231Y0158325D01*
X0107625Y0156862D01*
X0106505Y0155742D01*
X0107155Y0156392D02*
X0123000Y0156392D01*
X0123000Y0157990D02*
X0108092Y0157990D01*
X0108231Y0159589D02*
X0123000Y0159589D01*
X0123000Y0161187D02*
X0107701Y0161187D01*
X0105795Y0162786D02*
X0123000Y0162786D01*
X0123000Y0164384D02*
X0082109Y0164384D01*
X0082106Y0162786D02*
X0102705Y0162786D01*
X0100799Y0161187D02*
X0082104Y0161187D01*
X0082101Y0159589D02*
X0100269Y0159589D01*
X0100408Y0157990D02*
X0082098Y0157990D01*
X0082095Y0156392D02*
X0101345Y0156392D01*
X0108807Y0169180D02*
X0082118Y0169180D01*
X0082121Y0170778D02*
X0107208Y0170778D01*
X0106769Y0172377D02*
X0082124Y0172377D01*
X0082127Y0173975D02*
X0106769Y0173975D01*
X0107827Y0175574D02*
X0082129Y0175574D01*
X0082132Y0177172D02*
X0107644Y0177172D01*
X0106046Y0178771D02*
X0082135Y0178771D01*
X0082138Y0180369D02*
X0104447Y0180369D01*
X0102849Y0181968D02*
X0082141Y0181968D01*
X0082144Y0183566D02*
X0101250Y0183566D01*
X0099652Y0185165D02*
X0082147Y0185165D01*
X0082149Y0186763D02*
X0098053Y0186763D01*
X0097317Y0188362D02*
X0082152Y0188362D01*
X0082155Y0189960D02*
X0097317Y0189960D01*
X0097317Y0191559D02*
X0082158Y0191559D01*
X0082161Y0193157D02*
X0097317Y0193157D01*
X0097317Y0194756D02*
X0082164Y0194756D01*
X0082167Y0196354D02*
X0097317Y0196354D01*
X0097317Y0197953D02*
X0082170Y0197953D01*
X0082172Y0199552D02*
X0097317Y0199552D01*
X0097317Y0201150D02*
X0082175Y0201150D01*
X0082178Y0202749D02*
X0097317Y0202749D01*
X0097317Y0204347D02*
X0082181Y0204347D01*
X0082184Y0205946D02*
X0097317Y0205946D01*
X0097317Y0207544D02*
X0082187Y0207544D01*
X0082190Y0209143D02*
X0097317Y0209143D01*
X0097317Y0210741D02*
X0082192Y0210741D01*
X0082195Y0212340D02*
X0097317Y0212340D01*
X0097317Y0213938D02*
X0082198Y0213938D01*
X0082201Y0215537D02*
X0097317Y0215537D01*
X0097317Y0217135D02*
X0082204Y0217135D01*
X0082207Y0218734D02*
X0097317Y0218734D01*
X0097317Y0220332D02*
X0082210Y0220332D01*
X0082212Y0221931D02*
X0097317Y0221931D01*
X0097317Y0223529D02*
X0082215Y0223529D01*
X0082218Y0225128D02*
X0097317Y0225128D01*
X0097317Y0226726D02*
X0082221Y0226726D01*
X0082224Y0228325D02*
X0097317Y0228325D01*
X0098506Y0229923D02*
X0082227Y0229923D01*
X0082230Y0231522D02*
X0100105Y0231522D01*
X0101703Y0233120D02*
X0082233Y0233120D01*
X0082235Y0234719D02*
X0103302Y0234719D01*
X0104900Y0236317D02*
X0082238Y0236317D01*
X0082241Y0237916D02*
X0106499Y0237916D01*
X0108097Y0239514D02*
X0082244Y0239514D01*
X0082247Y0241113D02*
X0109696Y0241113D01*
X0111294Y0242711D02*
X0082250Y0242711D01*
X0084771Y0244310D02*
X0112893Y0244310D01*
X0123000Y0247507D02*
X0090357Y0247507D01*
X0087564Y0245908D02*
X0158006Y0245908D01*
X0159269Y0247507D02*
X0147000Y0247507D01*
X0147000Y0249105D02*
X0159557Y0249105D01*
X0160707Y0250704D02*
X0147000Y0250704D01*
X0153170Y0244310D02*
X0156408Y0244310D01*
X0154809Y0242711D02*
X0154769Y0242711D01*
X0123000Y0249105D02*
X0093150Y0249105D01*
X0095943Y0250704D02*
X0123000Y0250704D01*
X0123000Y0252302D02*
X0098736Y0252302D01*
X0101529Y0253901D02*
X0123000Y0253901D01*
X0123000Y0255499D02*
X0104322Y0255499D01*
X0107115Y0257098D02*
X0123000Y0257098D01*
X0123000Y0258696D02*
X0109908Y0258696D01*
X0112701Y0260295D02*
X0123000Y0260295D01*
X0123000Y0261893D02*
X0115494Y0261893D01*
X0118287Y0263492D02*
X0123000Y0263492D01*
X0123000Y0265090D02*
X0121080Y0265090D01*
X0207857Y0297061D02*
X0227008Y0297061D01*
X0224186Y0298659D02*
X0209455Y0298659D01*
X0210285Y0300258D02*
X0221364Y0300258D01*
X0218541Y0301856D02*
X0210947Y0301856D01*
X0211131Y0303455D02*
X0215719Y0303455D01*
X0212897Y0305053D02*
X0211131Y0305053D01*
X0282000Y0265090D02*
X0283454Y0265090D01*
X0282000Y0263492D02*
X0286276Y0263492D01*
X0289098Y0261893D02*
X0282000Y0261893D01*
X0282000Y0260295D02*
X0291921Y0260295D01*
X0294743Y0258696D02*
X0282000Y0258696D01*
X0282000Y0257098D02*
X0297565Y0257098D01*
X0300388Y0255499D02*
X0282000Y0255499D01*
X0282000Y0253901D02*
X0303210Y0253901D01*
X0306032Y0252302D02*
X0282000Y0252302D01*
X0282000Y0250704D02*
X0308854Y0250704D01*
X0311677Y0249105D02*
X0282000Y0249105D01*
X0281969Y0247507D02*
X0314499Y0247507D01*
X0317321Y0245908D02*
X0290758Y0245908D01*
X0292357Y0244310D02*
X0320144Y0244310D01*
X0322247Y0242711D02*
X0293956Y0242711D01*
X0295554Y0241113D02*
X0322236Y0241113D01*
X0322224Y0239514D02*
X0297153Y0239514D01*
X0298751Y0237916D02*
X0322212Y0237916D01*
X0322201Y0236317D02*
X0300350Y0236317D01*
X0301948Y0234719D02*
X0322189Y0234719D01*
X0322178Y0233120D02*
X0303547Y0233120D01*
X0305145Y0231522D02*
X0322166Y0231522D01*
X0322155Y0229923D02*
X0306744Y0229923D01*
X0306365Y0230302D02*
X0306365Y0230302D01*
X0307683Y0228325D02*
X0322143Y0228325D01*
X0322131Y0226726D02*
X0307683Y0226726D01*
X0307683Y0225128D02*
X0322120Y0225128D01*
X0322108Y0223529D02*
X0307683Y0223529D01*
X0307683Y0221931D02*
X0322097Y0221931D01*
X0322085Y0220332D02*
X0307683Y0220332D01*
X0307683Y0218734D02*
X0322074Y0218734D01*
X0322062Y0217135D02*
X0307683Y0217135D01*
X0307683Y0215537D02*
X0322051Y0215537D01*
X0322039Y0213938D02*
X0307683Y0213938D01*
X0307683Y0212340D02*
X0322027Y0212340D01*
X0322016Y0210741D02*
X0307683Y0210741D01*
X0307683Y0209143D02*
X0322004Y0209143D01*
X0321993Y0207544D02*
X0307683Y0207544D01*
X0307683Y0205946D02*
X0321981Y0205946D01*
X0321970Y0204347D02*
X0307683Y0204347D01*
X0307683Y0202749D02*
X0321958Y0202749D01*
X0321946Y0201150D02*
X0307683Y0201150D01*
X0307683Y0199552D02*
X0321935Y0199552D01*
X0321923Y0197953D02*
X0307683Y0197953D01*
X0307683Y0196354D02*
X0321912Y0196354D01*
X0321900Y0194756D02*
X0307683Y0194756D01*
X0307683Y0193157D02*
X0321889Y0193157D01*
X0321877Y0191559D02*
X0307683Y0191559D01*
X0307683Y0189960D02*
X0321866Y0189960D01*
X0321854Y0188362D02*
X0307683Y0188362D01*
X0306697Y0186763D02*
X0321842Y0186763D01*
X0321831Y0185165D02*
X0305098Y0185165D01*
X0303500Y0183566D02*
X0321819Y0183566D01*
X0321808Y0181968D02*
X0301901Y0181968D01*
X0300303Y0180369D02*
X0321796Y0180369D01*
X0321785Y0178771D02*
X0298704Y0178771D01*
X0297106Y0177172D02*
X0321773Y0177172D01*
X0321761Y0175574D02*
X0295507Y0175574D01*
X0293909Y0173975D02*
X0321750Y0173975D01*
X0321738Y0172377D02*
X0292310Y0172377D01*
X0290712Y0170778D02*
X0321727Y0170778D01*
X0321715Y0169180D02*
X0282000Y0169180D01*
X0282000Y0167581D02*
X0321704Y0167581D01*
X0321692Y0165983D02*
X0282000Y0165983D01*
X0282000Y0164384D02*
X0321681Y0164384D01*
X0321669Y0162786D02*
X0282000Y0162786D01*
X0282000Y0161187D02*
X0321657Y0161187D01*
X0321646Y0159589D02*
X0282000Y0159589D01*
X0282000Y0157990D02*
X0321634Y0157990D01*
X0321623Y0156392D02*
X0282000Y0156392D01*
X0282000Y0154793D02*
X0321611Y0154793D01*
X0321600Y0153195D02*
X0282000Y0153195D01*
X0282000Y0151596D02*
X0321588Y0151596D01*
X0321576Y0149998D02*
X0282000Y0149998D01*
X0282000Y0148399D02*
X0307778Y0148399D01*
X0312450Y0148399D02*
X0314050Y0148399D01*
X0314050Y0149708D02*
X0314050Y0145165D01*
X0318790Y0145165D01*
X0318790Y0148145D01*
X0318667Y0148603D01*
X0318431Y0149013D01*
X0318095Y0149348D01*
X0317685Y0149585D01*
X0317227Y0149708D01*
X0314050Y0149708D01*
X0314050Y0146801D02*
X0312450Y0146801D01*
X0312450Y0145202D02*
X0314050Y0145202D01*
X0307710Y0142005D02*
X0288670Y0142005D01*
X0288815Y0140407D02*
X0307758Y0140407D01*
X0308133Y0138808D02*
X0289018Y0138808D01*
X0290617Y0137210D02*
X0307510Y0137210D01*
X0307510Y0135611D02*
X0306931Y0135611D01*
X0307373Y0134013D02*
X0307510Y0134013D01*
X0307373Y0133735D02*
X0306531Y0133735D01*
X0306531Y0133735D01*
X0307373Y0133735D01*
X0302817Y0134013D02*
X0302817Y0134013D01*
X0302817Y0135611D02*
X0302817Y0135611D01*
X0298703Y0135611D02*
X0292215Y0135611D01*
X0293814Y0134013D02*
X0298261Y0134013D01*
X0298061Y0132414D02*
X0295413Y0132414D01*
X0295250Y0128617D02*
X0285000Y0138867D01*
X0284846Y0138867D01*
X0294403Y0111633D02*
X0307710Y0111633D01*
X0312450Y0110035D02*
X0314050Y0110035D01*
X0314050Y0108436D02*
X0312450Y0108436D01*
X0318555Y0108436D02*
X0321276Y0108436D01*
X0321287Y0110035D02*
X0318790Y0110035D01*
X0318790Y0111633D02*
X0321299Y0111633D01*
X0288045Y0102042D02*
X0281056Y0102042D01*
X0277113Y0100444D02*
X0287283Y0100444D01*
X0287269Y0098845D02*
X0275514Y0098845D01*
X0273916Y0097247D02*
X0287990Y0097247D01*
X0265080Y0090853D02*
X0233384Y0090853D01*
X0230616Y0090853D02*
X0223267Y0090853D01*
X0223518Y0089254D02*
X0228576Y0089254D01*
X0228019Y0087656D02*
X0219934Y0087656D01*
X0219566Y0087656D02*
X0213981Y0087656D01*
X0213981Y0087421D02*
X0213981Y0088659D01*
X0213375Y0090122D01*
X0212255Y0091242D01*
X0210792Y0091848D01*
X0210267Y0091848D01*
X0210382Y0091963D01*
X0215781Y0091963D01*
X0215781Y0091469D01*
X0216293Y0090958D01*
X0216104Y0090630D01*
X0215981Y0090173D01*
X0215981Y0087955D01*
X0219566Y0087955D01*
X0219566Y0087586D01*
X0215981Y0087586D01*
X0215981Y0085421D01*
X0213981Y0087421D01*
X0213734Y0089254D02*
X0215981Y0089254D01*
X0216233Y0090853D02*
X0212644Y0090853D01*
X0215345Y0086057D02*
X0215981Y0086057D01*
X0219566Y0086057D02*
X0219934Y0086057D01*
X0219934Y0084459D02*
X0219566Y0084459D01*
X0217750Y0082860D02*
X0222956Y0082860D01*
X0223118Y0084459D02*
X0223962Y0084459D01*
X0223518Y0086057D02*
X0228130Y0086057D01*
X0222769Y0081262D02*
X0217763Y0081262D01*
X0217975Y0079663D02*
X0223250Y0079663D01*
X0224922Y0078065D02*
X0217975Y0078065D01*
X0217761Y0076466D02*
X0229500Y0076466D01*
X0229500Y0074868D02*
X0217099Y0074868D01*
X0216302Y0073269D02*
X0229500Y0073269D01*
X0229500Y0071671D02*
X0218482Y0071671D01*
X0219250Y0070072D02*
X0229500Y0070072D01*
X0229500Y0068474D02*
X0219250Y0068474D01*
X0219250Y0066875D02*
X0228473Y0066875D01*
X0226874Y0065277D02*
X0219250Y0065277D01*
X0219473Y0063678D02*
X0225276Y0063678D01*
X0223677Y0062080D02*
X0219276Y0062080D01*
X0217900Y0060481D02*
X0222079Y0060481D01*
X0220480Y0058883D02*
X0216301Y0058883D01*
X0214703Y0057284D02*
X0218882Y0057284D01*
X0217283Y0055685D02*
X0214952Y0055685D01*
X0215481Y0054087D02*
X0215685Y0054087D01*
X0212579Y0042897D02*
X0187933Y0042897D01*
X0190734Y0041299D02*
X0209776Y0041299D01*
X0206973Y0039700D02*
X0193534Y0039700D01*
X0196334Y0038102D02*
X0204170Y0038102D01*
X0201366Y0036503D02*
X0199135Y0036503D01*
X0196000Y0063867D02*
X0194750Y0063867D01*
X0165500Y0078065D02*
X0164724Y0078065D01*
X0165500Y0097247D02*
X0163535Y0097247D01*
X0163981Y0098845D02*
X0165500Y0098845D01*
X0165500Y0100444D02*
X0163759Y0100444D01*
X0162705Y0102042D02*
X0165500Y0102042D01*
X0165190Y0103641D02*
X0154000Y0103641D01*
X0155633Y0102042D02*
X0157295Y0102042D01*
X0181742Y0142005D02*
X0182018Y0142005D01*
X0182018Y0143604D02*
X0180415Y0143604D01*
X0180415Y0145202D02*
X0182018Y0145202D01*
X0182363Y0146801D02*
X0183005Y0146801D01*
X0193298Y0146801D02*
X0195603Y0146801D01*
X0194451Y0145202D02*
X0194451Y0145202D01*
X0194451Y0143604D02*
X0194451Y0143604D01*
X0242069Y0097247D02*
X0242084Y0097247D01*
X0243683Y0095648D02*
X0240471Y0095648D01*
X0238872Y0094050D02*
X0245281Y0094050D01*
X0246880Y0092451D02*
X0237274Y0092451D01*
X0229500Y0078065D02*
X0228578Y0078065D01*
X0318790Y0145202D02*
X0321542Y0145202D01*
X0321553Y0146801D02*
X0318790Y0146801D01*
X0318722Y0148399D02*
X0321565Y0148399D01*
X0123000Y0165983D02*
X0082112Y0165983D01*
X0082115Y0167581D02*
X0123000Y0167581D01*
X0123235Y0169180D02*
X0112693Y0169180D01*
D32*
X0135000Y0158117D02*
X0123750Y0146867D01*
X0123750Y0132367D01*
X0123750Y0113867D02*
X0123750Y0108617D01*
X0118750Y0103617D01*
X0115500Y0103617D01*
X0112750Y0103617D01*
X0106400Y0109967D01*
X0105600Y0109967D01*
X0096600Y0109967D02*
X0096600Y0105267D01*
X0102500Y0099367D01*
X0123000Y0099367D01*
X0128750Y0105117D01*
X0149750Y0105117D01*
X0151500Y0103367D01*
X0151500Y0099213D01*
X0151596Y0099117D01*
X0160000Y0099117D01*
X0168000Y0104367D02*
X0168000Y0068867D01*
X0174000Y0062867D01*
X0174000Y0057617D01*
X0183750Y0047867D01*
X0213000Y0047867D01*
X0232000Y0066867D01*
X0232000Y0087117D01*
X0235750Y0094463D02*
X0243654Y0102367D01*
X0243654Y0104463D01*
X0238250Y0109867D01*
X0238250Y0151367D01*
X0237250Y0152367D01*
X0223683Y0152367D01*
X0223585Y0152268D01*
X0223636Y0155367D02*
X0234750Y0155367D01*
X0236000Y0156617D01*
X0236000Y0160867D01*
X0242250Y0168367D02*
X0242250Y0174617D01*
X0217500Y0199367D01*
X0217500Y0208367D01*
X0212000Y0213867D01*
X0181000Y0213867D01*
X0191250Y0201520D02*
X0191250Y0187753D01*
X0191301Y0187701D01*
X0188400Y0186817D02*
X0188152Y0187701D01*
X0188400Y0186817D02*
X0188400Y0182317D01*
X0185002Y0187701D02*
X0185002Y0192865D01*
X0181500Y0196367D01*
X0179250Y0196367D01*
X0177000Y0194117D01*
X0177000Y0187867D01*
X0172250Y0183117D01*
X0172250Y0178867D01*
X0165250Y0178867D01*
X0155250Y0168867D01*
X0155250Y0168117D01*
X0154250Y0167117D01*
X0151250Y0167117D01*
X0150250Y0166117D01*
X0150250Y0156867D01*
X0151000Y0156117D01*
X0158250Y0159713D02*
X0163096Y0159713D01*
X0168250Y0164867D01*
X0177915Y0164867D01*
X0177766Y0161867D02*
X0171000Y0161867D01*
X0170000Y0160867D01*
X0170000Y0159117D01*
X0166301Y0155418D02*
X0163250Y0152367D01*
X0163250Y0139117D01*
X0167000Y0135367D01*
X0167000Y0119117D01*
X0181500Y0104617D01*
X0181500Y0076117D01*
X0184750Y0072867D01*
X0192000Y0072867D01*
X0196000Y0068867D01*
X0201000Y0068867D02*
X0201750Y0068867D01*
X0205500Y0072617D01*
X0211250Y0072617D01*
X0215250Y0076617D01*
X0215250Y0082617D01*
X0210000Y0087867D01*
X0204000Y0089117D02*
X0204000Y0083367D01*
X0201500Y0080867D01*
X0201500Y0074367D01*
X0201000Y0073867D01*
X0196000Y0073867D02*
X0194750Y0075117D01*
X0194750Y0091367D01*
X0193500Y0092617D01*
X0191250Y0092617D01*
X0201750Y0096867D02*
X0201750Y0107867D01*
X0198750Y0110867D01*
X0196500Y0110867D01*
X0169500Y0137867D01*
X0169500Y0140117D01*
X0166750Y0142867D01*
X0166750Y0149617D01*
X0169500Y0152367D01*
X0177817Y0152367D01*
X0177915Y0152268D01*
X0177915Y0149119D02*
X0177915Y0140201D01*
X0178750Y0139367D01*
X0188000Y0141881D02*
X0188000Y0130617D01*
X0188000Y0122367D01*
X0195750Y0114367D01*
X0201250Y0114617D01*
X0207750Y0108117D01*
X0207750Y0101117D01*
X0209500Y0099367D01*
X0230500Y0099367D01*
X0236250Y0105117D01*
X0236250Y0143117D01*
X0232250Y0147117D01*
X0223636Y0155367D02*
X0223585Y0155418D01*
X0223585Y0171166D02*
X0236451Y0171166D01*
X0237000Y0170617D01*
X0242250Y0168367D02*
X0252250Y0158367D01*
X0252250Y0147617D01*
X0258250Y0141617D01*
X0275404Y0141617D01*
X0278154Y0138867D01*
X0278404Y0125867D02*
X0269000Y0116463D01*
X0269000Y0105867D01*
X0278000Y0104867D02*
X0278000Y0113213D01*
X0279154Y0114367D01*
X0278000Y0104867D02*
X0278000Y0104617D01*
X0278000Y0104867D02*
X0267500Y0094367D01*
X0267000Y0094367D01*
X0248500Y0094367D01*
X0243654Y0099213D01*
X0243654Y0102367D01*
X0250346Y0102367D02*
X0259500Y0102367D01*
X0259750Y0102617D01*
X0235750Y0094463D02*
X0219750Y0094463D01*
X0209346Y0094463D01*
X0204000Y0089117D01*
X0219750Y0087770D02*
X0219750Y0076117D01*
X0216000Y0072367D01*
X0216000Y0062867D01*
X0212250Y0059117D01*
X0207000Y0059117D01*
X0203750Y0062367D01*
X0202500Y0062367D01*
X0201000Y0063867D01*
X0194750Y0063867D02*
X0189250Y0058367D01*
X0185000Y0058367D01*
X0179000Y0064367D01*
X0179000Y0096867D01*
X0174000Y0101867D01*
X0168000Y0104367D02*
X0163500Y0108867D01*
X0171000Y0127617D02*
X0187500Y0111117D01*
X0188000Y0111117D01*
X0197750Y0124867D02*
X0197750Y0131867D01*
X0191301Y0138316D01*
X0191301Y0142032D01*
X0188152Y0142032D02*
X0188152Y0130768D01*
X0188000Y0130617D01*
X0197600Y0136016D02*
X0204000Y0129617D01*
X0204000Y0119117D01*
X0208250Y0114867D01*
X0214742Y0114867D01*
X0215270Y0114339D01*
X0215404Y0114205D01*
X0215404Y0104867D01*
X0230230Y0123394D02*
X0230230Y0128136D01*
X0227000Y0131367D01*
X0227000Y0135520D01*
X0224904Y0137617D01*
X0222250Y0137617D01*
X0217500Y0132867D01*
X0204750Y0132867D01*
X0200750Y0136867D01*
X0200750Y0142032D01*
X0197600Y0142032D02*
X0197600Y0136016D01*
X0188152Y0142032D02*
X0188000Y0141881D01*
X0177915Y0155418D02*
X0166301Y0155418D01*
X0177766Y0161867D02*
X0177915Y0161717D01*
X0177915Y0171166D02*
X0170701Y0171166D01*
X0170500Y0171367D01*
X0174301Y0174316D02*
X0173250Y0175367D01*
X0167250Y0175367D01*
X0160500Y0168617D01*
X0174301Y0174316D02*
X0177915Y0174316D01*
X0177817Y0177367D02*
X0173750Y0177367D01*
X0172250Y0178867D01*
X0177817Y0177367D02*
X0177915Y0177465D01*
X0210199Y0187701D02*
X0210199Y0199816D01*
X0210250Y0199867D01*
X0215000Y0197867D02*
X0215000Y0205117D01*
X0214000Y0206117D01*
X0203750Y0206117D01*
X0215000Y0197867D02*
X0216500Y0196367D01*
X0216500Y0194617D01*
X0216498Y0194615D01*
X0216498Y0187701D01*
X0221250Y0202617D02*
X0221250Y0206367D01*
X0228500Y0213617D01*
X0228500Y0234617D01*
X0230750Y0236867D01*
X0225250Y0241367D02*
X0225250Y0219367D01*
X0219500Y0213617D01*
X0212886Y0224743D02*
X0218250Y0230107D01*
X0218250Y0231867D01*
X0212886Y0224743D02*
X0186114Y0224743D01*
X0177990Y0232867D01*
X0175500Y0232867D01*
X0173250Y0235117D01*
X0173250Y0235867D01*
X0173250Y0248270D01*
X0161000Y0260520D01*
X0161000Y0267213D02*
X0161000Y0271367D01*
X0176750Y0271367D01*
X0189500Y0258617D01*
X0210000Y0258617D01*
X0210000Y0254367D01*
X0215000Y0249367D01*
X0217250Y0249367D01*
X0225250Y0241367D01*
X0238000Y0242617D02*
X0238750Y0242617D01*
X0247500Y0251367D01*
X0263000Y0251367D01*
X0270000Y0258367D01*
X0237500Y0254367D02*
X0233250Y0258617D01*
X0210000Y0258617D01*
X0237750Y0281257D02*
X0226390Y0292617D01*
X0176750Y0292617D01*
X0166346Y0282213D01*
X0161000Y0282213D01*
X0161000Y0275520D02*
X0161000Y0271367D01*
X0163250Y0247617D02*
X0135000Y0219367D01*
X0135000Y0208117D01*
X0096250Y0146617D02*
X0096250Y0135017D01*
X0096500Y0134767D01*
X0119850Y0109967D02*
X0123750Y0113867D01*
X0135750Y0099117D02*
X0135250Y0098617D01*
X0135750Y0099117D02*
X0144904Y0099117D01*
X0212250Y0058367D02*
X0216000Y0062117D01*
X0216750Y0063117D02*
X0216750Y0069867D01*
X0216750Y0063117D02*
X0217000Y0063117D01*
D33*
X0211500Y0053617D03*
X0185250Y0051867D03*
X0163500Y0081867D03*
X0160000Y0099117D03*
X0163500Y0108867D03*
X0174000Y0101867D03*
X0188000Y0111117D03*
X0197750Y0124867D03*
X0188000Y0130617D03*
X0178750Y0139367D03*
X0171000Y0127617D03*
X0158500Y0144867D03*
X0151000Y0156117D03*
X0160500Y0168617D03*
X0170500Y0171367D03*
X0170000Y0159117D03*
X0178750Y0200117D03*
X0181000Y0213867D03*
X0174750Y0220367D03*
X0173250Y0235867D03*
X0163250Y0247617D03*
X0176750Y0271367D03*
X0218250Y0231867D03*
X0230750Y0236867D03*
X0238000Y0242617D03*
X0237500Y0254367D03*
X0219500Y0213617D03*
X0221250Y0202617D03*
X0210250Y0199867D03*
X0202750Y0207117D03*
X0237000Y0170617D03*
X0236000Y0160867D03*
X0232250Y0147117D03*
X0254750Y0144617D03*
X0269000Y0105867D03*
X0278000Y0104617D03*
X0267000Y0094367D03*
X0259750Y0102617D03*
X0232000Y0087117D03*
X0226750Y0081617D03*
X0210000Y0087867D03*
X0201750Y0096867D03*
X0191250Y0092617D03*
X0135250Y0098617D03*
X0115500Y0103617D03*
X0096250Y0146617D03*
X0104250Y0159117D03*
X0291250Y0099617D03*
D34*
X0297750Y0123367D02*
X0302685Y0123367D01*
X0302817Y0123499D01*
X0302817Y0126058D02*
X0285287Y0126058D01*
X0285096Y0125867D01*
X0295250Y0128617D02*
X0302817Y0128617D01*
D35*
X0110750Y0172867D03*
M02*
