G75*
%MOIN*%
%OFA0B0*%
%FSLAX25Y25*%
%IPPOS*%
%LPD*%
%AMOC8*
5,1,8,0,0,1.08239X$1,22.5*
%
%ADD10R,0.05906X0.01969*%
%ADD11R,0.01969X0.05906*%
%ADD12R,0.12598X0.04724*%
%ADD13R,0.04331X0.03937*%
%ADD14R,0.03937X0.04331*%
%ADD15R,0.05512X0.01378*%
%ADD16R,0.07480X0.07087*%
%ADD17R,0.07480X0.07480*%
%ADD18R,0.05906X0.05906*%
%ADD19R,0.06299X0.05118*%
%ADD20R,0.05900X0.07900*%
%ADD21R,0.15000X0.07900*%
%ADD22R,0.16000X0.16000*%
%ADD23R,0.20000X0.20000*%
%ADD24R,0.10000X0.10000*%
D10*
X0177915Y0149119D03*
X0177915Y0152268D03*
X0177915Y0155418D03*
X0177915Y0158568D03*
X0177915Y0161717D03*
X0177915Y0164867D03*
X0177915Y0168016D03*
X0177915Y0171166D03*
X0177915Y0174316D03*
X0177915Y0177465D03*
X0177915Y0180615D03*
X0223585Y0180615D03*
X0223585Y0177465D03*
X0223585Y0174316D03*
X0223585Y0171166D03*
X0223585Y0168016D03*
X0223585Y0164867D03*
X0223585Y0161717D03*
X0223585Y0158568D03*
X0223585Y0155418D03*
X0223585Y0152268D03*
X0223585Y0149119D03*
D11*
X0216498Y0142032D03*
X0213348Y0142032D03*
X0210199Y0142032D03*
X0207049Y0142032D03*
X0203900Y0142032D03*
X0200750Y0142032D03*
X0197600Y0142032D03*
X0194451Y0142032D03*
X0191301Y0142032D03*
X0188152Y0142032D03*
X0185002Y0142032D03*
X0185002Y0187701D03*
X0188152Y0187701D03*
X0191301Y0187701D03*
X0194451Y0187701D03*
X0197600Y0187701D03*
X0200750Y0187701D03*
X0203900Y0187701D03*
X0207049Y0187701D03*
X0210199Y0187701D03*
X0213348Y0187701D03*
X0216498Y0187701D03*
D12*
X0212886Y0224743D03*
X0212886Y0240491D03*
X0186114Y0240491D03*
X0186114Y0224743D03*
D13*
X0161000Y0260520D03*
X0161000Y0267213D03*
X0161000Y0275520D03*
X0161000Y0282213D03*
X0224904Y0137617D03*
X0231596Y0137617D03*
X0222096Y0104867D03*
X0215404Y0104867D03*
X0243654Y0102367D03*
X0250346Y0102367D03*
X0279154Y0114367D03*
X0285846Y0114367D03*
X0151596Y0099117D03*
X0144904Y0099117D03*
D14*
X0158250Y0153020D03*
X0158250Y0159713D03*
X0191250Y0201520D03*
X0191250Y0208213D03*
X0278154Y0138867D03*
X0284846Y0138867D03*
X0285096Y0125867D03*
X0278404Y0125867D03*
X0219750Y0094463D03*
X0219750Y0087770D03*
D15*
X0302817Y0123499D03*
X0302817Y0126058D03*
X0302817Y0128617D03*
X0302817Y0131176D03*
X0302817Y0133735D03*
D16*
X0313250Y0144365D03*
X0313250Y0112869D03*
D17*
X0313250Y0123617D03*
X0313250Y0133617D03*
D18*
X0237750Y0267477D03*
X0237750Y0281257D03*
D19*
X0230230Y0123394D03*
X0230230Y0114339D03*
X0215270Y0114339D03*
X0215270Y0123394D03*
D20*
X0087600Y0109967D03*
X0096600Y0109967D03*
X0105600Y0109967D03*
D21*
X0096500Y0134767D03*
D22*
X0135000Y0208117D03*
X0270000Y0208367D03*
D23*
X0270000Y0258367D03*
X0270000Y0158367D03*
X0135000Y0158117D03*
X0135000Y0258117D03*
D24*
X0123750Y0132367D03*
X0123750Y0113867D03*
M02*
