G75*
%MOIN*%
%OFA0B0*%
%FSLAX25Y25*%
%IPPOS*%
%LPD*%
%AMOC8*
5,1,8,0,0,1.08239X$1,22.5*
%
%ADD10C,0.09461*%
%ADD11R,0.06706X0.04343*%
%ADD12R,0.07800X0.04400*%
%ADD13R,0.05131X0.03950*%
%ADD14C,0.04300*%
%ADD15C,0.10150*%
%ADD16C,0.04762*%
%ADD17OC8,0.04762*%
D10*
X0202000Y0304117D03*
D11*
X0155646Y0273363D03*
X0155646Y0260371D03*
X0136354Y0260371D03*
X0136354Y0273363D03*
X0104396Y0180613D03*
X0104396Y0167621D03*
X0085104Y0167621D03*
X0085104Y0180613D03*
X0138104Y0087863D03*
X0138104Y0074871D03*
X0157396Y0074871D03*
X0157396Y0087863D03*
X0248354Y0086863D03*
X0248354Y0073871D03*
X0267646Y0073871D03*
X0267646Y0086863D03*
X0299854Y0167371D03*
X0299854Y0180363D03*
X0319146Y0180363D03*
X0319146Y0167371D03*
X0266396Y0260371D03*
X0266396Y0273363D03*
X0247104Y0273363D03*
X0247104Y0260371D03*
D12*
X0159342Y0130846D03*
X0157720Y0130846D03*
X0157719Y0125904D03*
X0159372Y0125904D03*
X0159372Y0120786D03*
X0157600Y0120786D03*
X0157600Y0116022D03*
X0159451Y0116022D03*
D13*
X0247185Y0120861D03*
X0247185Y0126766D03*
X0257815Y0126766D03*
X0257815Y0120861D03*
D14*
X0198500Y0078867D03*
X0194500Y0058867D03*
X0202500Y0058867D03*
D15*
X0208500Y0066367D03*
X0208500Y0078867D03*
X0188500Y0078867D03*
X0188500Y0066367D03*
D16*
X0115500Y0103617D03*
X0135250Y0098617D03*
X0160000Y0099117D03*
X0163500Y0108867D03*
X0174000Y0101867D03*
X0188000Y0111117D03*
X0197750Y0124867D03*
X0188000Y0130617D03*
X0178750Y0139367D03*
X0171000Y0127617D03*
X0158500Y0144867D03*
X0151000Y0156117D03*
X0160500Y0168617D03*
X0170500Y0171367D03*
X0170000Y0159117D03*
X0178750Y0200117D03*
X0181000Y0213867D03*
X0174750Y0220367D03*
X0173250Y0235867D03*
X0163250Y0247617D03*
X0176750Y0271367D03*
X0218250Y0231867D03*
X0230750Y0236867D03*
X0238000Y0242617D03*
X0237500Y0254367D03*
X0219500Y0213617D03*
X0221250Y0202617D03*
X0210250Y0199867D03*
X0202750Y0207117D03*
X0237000Y0170617D03*
X0236000Y0160867D03*
X0232250Y0147117D03*
X0254750Y0144617D03*
X0269000Y0105867D03*
X0278000Y0104617D03*
X0267000Y0094367D03*
X0259750Y0102617D03*
X0232000Y0087117D03*
X0226750Y0081617D03*
X0210000Y0087867D03*
X0201750Y0096867D03*
X0191250Y0092617D03*
X0163500Y0081867D03*
X0185250Y0051867D03*
X0211500Y0053617D03*
X0291250Y0099617D03*
X0104250Y0159117D03*
X0096250Y0146617D03*
D17*
X0110750Y0172867D03*
M02*
