G75*
%MOIN*%
%OFA0B0*%
%FSLAX25Y25*%
%IPPOS*%
%LPD*%
%AMOC8*
5,1,8,0,0,1.08239X$1,22.5*
%
%ADD10R,0.05906X0.03543*%
%ADD11R,0.07000X0.03600*%
%ADD12R,0.04331X0.03150*%
%ADD13R,0.17717X0.10630*%
%ADD14C,0.01200*%
%ADD15C,0.03962*%
%ADD16C,0.01000*%
%ADD17C,0.01600*%
%ADD18OC8,0.03962*%
D10*
X0138104Y0074871D03*
X0138104Y0087863D03*
X0157396Y0087863D03*
X0157396Y0074871D03*
X0248354Y0073871D03*
X0248354Y0086863D03*
X0267646Y0086863D03*
X0267646Y0073871D03*
X0299854Y0167371D03*
X0299854Y0180363D03*
X0319146Y0180363D03*
X0319146Y0167371D03*
X0266396Y0260371D03*
X0266396Y0273363D03*
X0247104Y0273363D03*
X0247104Y0260371D03*
X0155646Y0260371D03*
X0155646Y0273363D03*
X0136354Y0273363D03*
X0136354Y0260371D03*
X0104396Y0180613D03*
X0104396Y0167621D03*
X0085104Y0167621D03*
X0085104Y0180613D03*
D11*
X0157720Y0130846D03*
X0159342Y0130846D03*
X0159372Y0125904D03*
X0157719Y0125904D03*
X0157600Y0120786D03*
X0159372Y0120786D03*
X0159451Y0116022D03*
X0157600Y0116022D03*
D12*
X0247185Y0120861D03*
X0247185Y0126766D03*
X0257815Y0126766D03*
X0257815Y0120861D03*
D13*
X0264508Y0117121D03*
X0264508Y0130507D03*
X0240492Y0130507D03*
X0240492Y0117121D03*
D14*
X0159342Y0130846D02*
X0157720Y0130846D01*
D15*
X0115500Y0103617D03*
X0135250Y0098617D03*
X0160000Y0099117D03*
X0163500Y0108867D03*
X0174000Y0101867D03*
X0188000Y0111117D03*
X0197750Y0124867D03*
X0188000Y0130617D03*
X0178750Y0139367D03*
X0171000Y0127617D03*
X0158500Y0144867D03*
X0151000Y0156117D03*
X0160500Y0168617D03*
X0170500Y0171367D03*
X0170000Y0159117D03*
X0178750Y0200117D03*
X0181000Y0213867D03*
X0174750Y0220367D03*
X0173250Y0235867D03*
X0163250Y0247617D03*
X0176750Y0271367D03*
X0218250Y0231867D03*
X0230750Y0236867D03*
X0238000Y0242617D03*
X0237500Y0254367D03*
X0219500Y0213617D03*
X0221250Y0202617D03*
X0210250Y0199867D03*
X0202750Y0207117D03*
X0237000Y0170617D03*
X0236000Y0160867D03*
X0232250Y0147117D03*
X0254750Y0144617D03*
X0269000Y0105867D03*
X0278000Y0104617D03*
X0267000Y0094367D03*
X0259750Y0102617D03*
X0232000Y0087117D03*
X0226750Y0081617D03*
X0210000Y0087867D03*
X0201750Y0096867D03*
X0191250Y0092617D03*
X0163500Y0081867D03*
X0185250Y0051867D03*
X0211500Y0053617D03*
X0291250Y0099617D03*
X0104250Y0159117D03*
X0096250Y0146617D03*
D16*
X0085104Y0157762D01*
X0085104Y0167621D01*
X0095750Y0168117D02*
X0095750Y0169967D01*
X0085104Y0180613D01*
X0095750Y0168117D02*
X0110750Y0153117D01*
X0114500Y0153117D01*
X0135500Y0132117D01*
X0135500Y0107117D01*
X0140500Y0102117D01*
X0140500Y0095117D01*
X0138104Y0092721D01*
X0138104Y0087863D01*
X0129250Y0083725D02*
X0138104Y0074871D01*
X0129250Y0083725D02*
X0129250Y0092617D01*
X0135250Y0098617D01*
X0157396Y0096512D02*
X0157396Y0087863D01*
X0158004Y0087863D01*
X0172500Y0073367D01*
X0172500Y0064867D01*
X0179250Y0058117D01*
X0184250Y0058117D01*
X0193250Y0049117D01*
X0207750Y0049117D01*
X0217250Y0058617D01*
X0223250Y0058617D01*
X0231500Y0066867D01*
X0231500Y0073867D01*
X0242250Y0084617D01*
X0242250Y0090117D01*
X0246000Y0093867D01*
X0266500Y0093867D01*
X0267000Y0094367D01*
X0267000Y0087508D01*
X0267646Y0086863D01*
X0263000Y0098117D02*
X0266250Y0101367D01*
X0266250Y0103117D01*
X0269000Y0105867D01*
X0278000Y0104617D02*
X0280500Y0107117D01*
X0293500Y0107117D01*
X0293750Y0107367D01*
X0293750Y0154617D01*
X0299854Y0160721D01*
X0299854Y0167371D01*
X0306750Y0156117D02*
X0307892Y0156117D01*
X0319146Y0167371D01*
X0306750Y0156117D02*
X0301000Y0150367D01*
X0301000Y0109117D01*
X0267646Y0075762D01*
X0267646Y0073871D01*
X0248354Y0085971D02*
X0234250Y0071867D01*
X0234250Y0065617D01*
X0225000Y0056367D01*
X0219500Y0056367D01*
X0209250Y0046117D01*
X0191750Y0046117D01*
X0183000Y0054867D01*
X0177750Y0054867D01*
X0168250Y0064367D01*
X0168250Y0071617D01*
X0165500Y0074367D01*
X0157900Y0074367D01*
X0157396Y0074871D01*
X0172250Y0088867D02*
X0187500Y0088867D01*
X0191250Y0092617D01*
X0201750Y0096867D02*
X0210000Y0088617D01*
X0210000Y0087867D01*
X0222000Y0086367D02*
X0226750Y0081617D01*
X0227000Y0081367D01*
X0234750Y0081367D01*
X0238250Y0084867D01*
X0238250Y0092367D01*
X0244000Y0098117D01*
X0263000Y0098117D01*
X0259750Y0102617D02*
X0259750Y0118926D01*
X0257815Y0120861D01*
X0247185Y0126766D02*
X0245500Y0128451D01*
X0245500Y0158867D01*
X0237000Y0167367D01*
X0237000Y0170617D01*
X0230750Y0166117D02*
X0229500Y0166117D01*
X0225250Y0170367D01*
X0225250Y0216867D01*
X0222750Y0219367D01*
X0170250Y0219367D01*
X0126500Y0175617D01*
X0113500Y0175617D01*
X0110750Y0172867D01*
X0105504Y0167621D01*
X0104396Y0167621D01*
X0151000Y0156117D02*
X0158750Y0156117D01*
X0162000Y0159367D01*
X0169750Y0159367D01*
X0170000Y0159117D01*
X0170250Y0158867D01*
X0170250Y0145367D01*
X0171500Y0144117D01*
X0180750Y0144117D01*
X0184250Y0140617D01*
X0184250Y0137117D01*
X0185750Y0135617D01*
X0191750Y0135617D01*
X0194875Y0132492D01*
X0195375Y0132492D01*
X0197750Y0130117D01*
X0197750Y0124867D01*
X0197750Y0120867D01*
X0188000Y0111117D01*
X0174000Y0116617D02*
X0174000Y0101867D01*
X0171250Y0105867D02*
X0167250Y0101867D01*
X0167250Y0093867D01*
X0172250Y0088867D01*
X0160000Y0099117D02*
X0168250Y0107367D01*
X0168250Y0119617D01*
X0167081Y0120786D01*
X0171000Y0124705D01*
X0171000Y0127617D01*
X0166500Y0131367D02*
X0165979Y0130846D01*
X0157720Y0130846D01*
X0166500Y0131367D02*
X0166500Y0136867D01*
X0158500Y0144867D01*
X0178750Y0139367D02*
X0178750Y0127617D01*
X0171250Y0120117D01*
X0171250Y0105867D01*
X0163500Y0108867D02*
X0163500Y0111973D01*
X0159451Y0116022D01*
X0157600Y0116022D01*
X0157600Y0120786D02*
X0167081Y0120786D01*
X0174000Y0116617D02*
X0188000Y0130617D01*
X0194875Y0132492D02*
X0195500Y0131867D01*
X0210250Y0144867D02*
X0210250Y0199867D01*
X0215250Y0196617D02*
X0221250Y0202617D01*
X0215250Y0196617D02*
X0215250Y0157117D01*
X0225250Y0147117D01*
X0232250Y0147117D01*
X0236000Y0160867D02*
X0230750Y0166117D01*
X0210250Y0144867D02*
X0222250Y0132867D01*
X0222250Y0113867D01*
X0227750Y0108367D01*
X0227750Y0091367D01*
X0232000Y0087117D01*
X0222000Y0086367D02*
X0222000Y0106867D01*
X0212250Y0116617D01*
X0212250Y0128617D01*
X0176000Y0164867D01*
X0166750Y0164867D01*
X0163000Y0168617D01*
X0160500Y0168617D01*
X0166000Y0175867D02*
X0170500Y0171367D01*
X0166000Y0175867D02*
X0166000Y0198867D01*
X0181000Y0213867D01*
X0178750Y0200117D02*
X0183750Y0195117D01*
X0195500Y0195117D01*
X0202750Y0202367D01*
X0202750Y0207117D01*
X0209250Y0213617D01*
X0219500Y0213617D01*
X0218250Y0231867D02*
X0223250Y0236867D01*
X0230750Y0236867D01*
X0238000Y0242617D02*
X0233000Y0247617D01*
X0163250Y0247617D01*
X0157400Y0257117D02*
X0223000Y0257117D01*
X0239246Y0273363D01*
X0247104Y0273363D01*
X0247104Y0260371D02*
X0241100Y0254367D01*
X0237500Y0254367D01*
X0266396Y0260371D02*
X0279400Y0247367D01*
X0297000Y0247367D01*
X0299854Y0244512D01*
X0299854Y0180363D01*
X0248354Y0086863D02*
X0248354Y0085971D01*
X0160000Y0099117D02*
X0157396Y0096512D01*
X0136354Y0260371D02*
X0141100Y0265117D01*
X0170500Y0265117D01*
X0176750Y0271367D01*
D17*
X0155646Y0260371D02*
X0157400Y0257117D01*
X0107000Y0151117D02*
X0090250Y0151117D01*
X0087000Y0147867D01*
X0087000Y0130117D01*
X0111250Y0130117D01*
X0111250Y0146867D01*
X0107000Y0151117D01*
X0108119Y0149998D02*
X0089131Y0149998D01*
X0087532Y0148399D02*
X0109718Y0148399D01*
X0111250Y0146801D02*
X0087000Y0146801D01*
X0087000Y0145202D02*
X0111250Y0145202D01*
X0111250Y0143604D02*
X0087000Y0143604D01*
X0087000Y0142005D02*
X0111250Y0142005D01*
X0111250Y0140407D02*
X0087000Y0140407D01*
X0087000Y0138808D02*
X0111250Y0138808D01*
X0111250Y0137210D02*
X0087000Y0137210D01*
X0087000Y0135611D02*
X0111250Y0135611D01*
X0111250Y0134013D02*
X0087000Y0134013D01*
X0087000Y0132414D02*
X0111250Y0132414D01*
X0111250Y0130816D02*
X0087000Y0130816D01*
X0247185Y0120861D02*
X0257815Y0120861D01*
X0257815Y0126766D01*
D18*
X0110750Y0172867D03*
M02*
